<svg width="24" height="24" viewBox="0 0 24 24" fill="none" xmlns="http://www.w3.org/2000/svg">
<mask id="path-1-outside-1_1356_6529" maskUnits="userSpaceOnUse" x="2" y="0" width="21" height="24" fill="black">
<rect fill="white" x="2" width="21" height="24"/>
<path d="M17.0804 19.9966C17.0804 20.1925 16.9222 20.3515 16.7271 20.3515C16.532 20.3515 16.3737 20.1925 16.3737 19.9966V12.4658C16.3737 12.2699 16.532 12.1109 16.7271 12.1109C16.9222 12.1109 17.0804 12.2699 17.0804 12.4658V13.2374L20.0933 14.8168C20.2221 14.8695 20.3132 14.997 20.3132 15.1458V21.0464H21.6466C21.8417 21.0464 22 21.2053 22 21.4012V22.6451C22 22.841 21.8417 23 21.6466 23H3.35337C3.15828 23 3 22.841 3 22.6451V21.4012C3 21.2053 3.15828 21.0464 3.35337 21.0464H4.5276V10.1868C4.5276 9.99089 4.68588 9.83194 4.88097 9.83194C5.07605 9.83194 5.23434 9.99089 5.23434 10.1868V21.0464H6.88707V17.5622C6.88707 17.4218 6.96897 17.2998 7.08676 17.2425L9.25207 15.9866C9.42048 15.8886 9.63673 15.9459 9.73336 16.115C9.76833 16.176 9.78306 16.2435 9.78029 16.3091L9.77937 21.0445H11.4339V1.96469L5.23348 5.55954V7.12043C5.23348 7.31635 5.0752 7.4753 4.88011 7.4753C4.68502 7.4753 4.52674 7.31635 4.52674 7.12043V5.35717C4.52858 5.23518 4.59208 5.11597 4.70527 5.05127L11.6089 1.04879C11.7148 0.986871 11.8491 0.981326 11.9632 1.04694L16.8737 3.8942C16.996 3.94964 17.0807 4.07348 17.0807 4.21765V10.9583C17.0807 11.1542 16.9224 11.3132 16.7273 11.3132C16.5323 11.3132 16.374 11.1542 16.374 10.9583V4.42087L12.1408 1.96634V21.0461H19.6059V15.359L17.0798 14.0347V19.9972L17.0804 19.9966ZM7.59362 21.0455H9.07613L9.07705 16.9054L7.59363 17.7648L7.59362 21.0455ZM21.2931 21.7553H3.70655V22.2894H21.2931V21.7553ZM13.2622 15.7788C13.0937 15.6817 13.0358 15.4655 13.1324 15.2963C13.229 15.1272 13.4444 15.069 13.6128 15.166L15.2526 16.117C15.421 16.214 15.479 16.4303 15.3824 16.5994C15.2857 16.7685 15.0704 16.8267 14.902 16.7297L13.2622 15.7788ZM13.2622 13.0129C13.0937 12.9159 13.0358 12.6996 13.1324 12.5305C13.229 12.3613 13.4444 12.3031 13.6128 12.4002L15.2526 13.3511C15.421 13.4481 15.479 13.6644 15.3824 13.8335C15.2857 14.0026 15.0704 14.0609 14.902 13.9638L13.2622 13.0129ZM13.2622 10.247C13.0937 10.15 13.0358 9.93374 13.1324 9.76461C13.229 9.59549 13.4444 9.53727 13.6128 9.63431L15.2526 10.5852C15.421 10.6823 15.479 10.8985 15.3824 11.0677C15.2857 11.2368 15.0704 11.295 14.902 11.198L13.2622 10.247ZM13.2622 7.48115C13.0937 7.38412 13.0358 7.16787 13.1324 6.99874C13.229 6.82962 13.4444 6.7714 13.6128 6.86843L15.2526 7.81937C15.421 7.91641 15.479 8.13265 15.3824 8.30178C15.2857 8.4709 15.0704 8.52913 14.902 8.43209L13.2622 7.48115ZM13.2622 4.71528C13.0937 4.61825 13.0358 4.402 13.1324 4.23287C13.229 4.06374 13.4444 4.00553 13.6128 4.10256L15.2526 5.0535C15.421 5.15054 15.479 5.36678 15.3824 5.53591C15.2857 5.70503 15.0704 5.76326 14.902 5.66622L13.2622 4.71528ZM6.29134 13.7016L10.046 11.5243C10.2144 11.4263 10.4307 11.4836 10.5273 11.6528C10.5595 11.7082 10.5752 11.7701 10.5742 11.8302L10.5752 13.5824C10.5752 13.7228 10.4933 13.8448 10.3755 13.9021L6.62079 16.0794C6.45239 16.1774 6.23613 16.1201 6.1395 15.9509C6.10729 15.8955 6.09165 15.8336 6.09257 15.7735L6.09165 14.0213C6.09165 13.8809 6.17355 13.7589 6.29134 13.7016ZM9.86933 12.4447L6.79854 14.2256V15.1608L9.86933 13.38V12.4447ZM6.29134 10.0669L10.046 7.88959C10.2144 7.79163 10.4307 7.84892 10.5273 8.01804C10.5595 8.07349 10.5752 8.13541 10.5742 8.19548L10.5752 9.94765C10.5752 10.0881 10.4933 10.2101 10.3755 10.2674L6.62079 12.4447C6.45239 12.5426 6.23613 12.4854 6.1395 12.3162C6.10729 12.2608 6.09165 12.1989 6.09257 12.1388L6.09165 10.3866C6.09165 10.2462 6.17355 10.1242 6.29134 10.0669ZM9.86933 8.81003L6.79854 10.5908V11.5261L9.86933 9.74526V8.81003ZM6.29134 6.43215L10.046 4.25487C10.2144 4.15691 10.4307 4.21421 10.5273 4.38333C10.5595 4.43878 10.5752 4.50069 10.5742 4.56076L10.5752 6.31293C10.5752 6.4534 10.4933 6.57539 10.3755 6.63269L6.62079 8.80997C6.45239 8.90793 6.23613 8.85064 6.1395 8.68152C6.10729 8.62607 6.09165 8.56415 6.09257 8.50408L6.09165 6.75191C6.09165 6.61144 6.17355 6.48945 6.29134 6.43215ZM9.86933 5.17531L6.79854 6.95613V7.89136L9.86933 6.11054V5.17531ZM4.52731 8.62987C4.52731 8.43395 4.6856 8.275 4.88068 8.275C5.07577 8.275 5.23406 8.43395 5.23406 8.62987V8.67885C5.23406 8.87477 5.07577 9.03372 4.88068 9.03372C4.6856 9.03372 4.52731 8.87477 4.52731 8.67885V8.62987Z"/>
</mask>
<path d="M17.0804 19.9966C17.0804 20.1925 16.9222 20.3515 16.7271 20.3515C16.532 20.3515 16.3737 20.1925 16.3737 19.9966V12.4658C16.3737 12.2699 16.532 12.1109 16.7271 12.1109C16.9222 12.1109 17.0804 12.2699 17.0804 12.4658V13.2374L20.0933 14.8168C20.2221 14.8695 20.3132 14.997 20.3132 15.1458V21.0464H21.6466C21.8417 21.0464 22 21.2053 22 21.4012V22.6451C22 22.841 21.8417 23 21.6466 23H3.35337C3.15828 23 3 22.841 3 22.6451V21.4012C3 21.2053 3.15828 21.0464 3.35337 21.0464H4.5276V10.1868C4.5276 9.99089 4.68588 9.83194 4.88097 9.83194C5.07605 9.83194 5.23434 9.99089 5.23434 10.1868V21.0464H6.88707V17.5622C6.88707 17.4218 6.96897 17.2998 7.08676 17.2425L9.25207 15.9866C9.42048 15.8886 9.63673 15.9459 9.73336 16.115C9.76833 16.176 9.78306 16.2435 9.78029 16.3091L9.77937 21.0445H11.4339V1.96469L5.23348 5.55954V7.12043C5.23348 7.31635 5.0752 7.4753 4.88011 7.4753C4.68502 7.4753 4.52674 7.31635 4.52674 7.12043V5.35717C4.52858 5.23518 4.59208 5.11597 4.70527 5.05127L11.6089 1.04879C11.7148 0.986871 11.8491 0.981326 11.9632 1.04694L16.8737 3.8942C16.996 3.94964 17.0807 4.07348 17.0807 4.21765V10.9583C17.0807 11.1542 16.9224 11.3132 16.7273 11.3132C16.5323 11.3132 16.374 11.1542 16.374 10.9583V4.42087L12.1408 1.96634V21.0461H19.6059V15.359L17.0798 14.0347V19.9972L17.0804 19.9966ZM7.59362 21.0455H9.07613L9.07705 16.9054L7.59363 17.7648L7.59362 21.0455ZM21.2931 21.7553H3.70655V22.2894H21.2931V21.7553ZM13.2622 15.7788C13.0937 15.6817 13.0358 15.4655 13.1324 15.2963C13.229 15.1272 13.4444 15.069 13.6128 15.166L15.2526 16.117C15.421 16.214 15.479 16.4303 15.3824 16.5994C15.2857 16.7685 15.0704 16.8267 14.902 16.7297L13.2622 15.7788ZM13.2622 13.0129C13.0937 12.9159 13.0358 12.6996 13.1324 12.5305C13.229 12.3613 13.4444 12.3031 13.6128 12.4002L15.2526 13.3511C15.421 13.4481 15.479 13.6644 15.3824 13.8335C15.2857 14.0026 15.0704 14.0609 14.902 13.9638L13.2622 13.0129ZM13.2622 10.247C13.0937 10.15 13.0358 9.93374 13.1324 9.76461C13.229 9.59549 13.4444 9.53727 13.6128 9.63431L15.2526 10.5852C15.421 10.6823 15.479 10.8985 15.3824 11.0677C15.2857 11.2368 15.0704 11.295 14.902 11.198L13.2622 10.247ZM13.2622 7.48115C13.0937 7.38412 13.0358 7.16787 13.1324 6.99874C13.229 6.82962 13.4444 6.7714 13.6128 6.86843L15.2526 7.81937C15.421 7.91641 15.479 8.13265 15.3824 8.30178C15.2857 8.4709 15.0704 8.52913 14.902 8.43209L13.2622 7.48115ZM13.2622 4.71528C13.0937 4.61825 13.0358 4.402 13.1324 4.23287C13.229 4.06374 13.4444 4.00553 13.6128 4.10256L15.2526 5.0535C15.421 5.15054 15.479 5.36678 15.3824 5.53591C15.2857 5.70503 15.0704 5.76326 14.902 5.66622L13.2622 4.71528ZM6.29134 13.7016L10.046 11.5243C10.2144 11.4263 10.4307 11.4836 10.5273 11.6528C10.5595 11.7082 10.5752 11.7701 10.5742 11.8302L10.5752 13.5824C10.5752 13.7228 10.4933 13.8448 10.3755 13.9021L6.62079 16.0794C6.45239 16.1774 6.23613 16.1201 6.1395 15.9509C6.10729 15.8955 6.09165 15.8336 6.09257 15.7735L6.09165 14.0213C6.09165 13.8809 6.17355 13.7589 6.29134 13.7016ZM9.86933 12.4447L6.79854 14.2256V15.1608L9.86933 13.38V12.4447ZM6.29134 10.0669L10.046 7.88959C10.2144 7.79163 10.4307 7.84892 10.5273 8.01804C10.5595 8.07349 10.5752 8.13541 10.5742 8.19548L10.5752 9.94765C10.5752 10.0881 10.4933 10.2101 10.3755 10.2674L6.62079 12.4447C6.45239 12.5426 6.23613 12.4854 6.1395 12.3162C6.10729 12.2608 6.09165 12.1989 6.09257 12.1388L6.09165 10.3866C6.09165 10.2462 6.17355 10.1242 6.29134 10.0669ZM9.86933 8.81003L6.79854 10.5908V11.5261L9.86933 9.74526V8.81003ZM6.29134 6.43215L10.046 4.25487C10.2144 4.15691 10.4307 4.21421 10.5273 4.38333C10.5595 4.43878 10.5752 4.50069 10.5742 4.56076L10.5752 6.31293C10.5752 6.4534 10.4933 6.57539 10.3755 6.63269L6.62079 8.80997C6.45239 8.90793 6.23613 8.85064 6.1395 8.68152C6.10729 8.62607 6.09165 8.56415 6.09257 8.50408L6.09165 6.75191C6.09165 6.61144 6.17355 6.48945 6.29134 6.43215ZM9.86933 5.17531L6.79854 6.95613V7.89136L9.86933 6.11054V5.17531ZM4.52731 8.62987C4.52731 8.43395 4.6856 8.275 4.88068 8.275C5.07577 8.275 5.23406 8.43395 5.23406 8.62987V8.67885C5.23406 8.87477 5.07577 9.03372 4.88068 9.03372C4.6856 9.03372 4.52731 8.87477 4.52731 8.67885V8.62987Z" fill="black"/>
<path d="M17.0804 19.9966C17.0804 20.1925 16.9222 20.3515 16.7271 20.3515C16.532 20.3515 16.3737 20.1925 16.3737 19.9966V12.4658C16.3737 12.2699 16.532 12.1109 16.7271 12.1109C16.9222 12.1109 17.0804 12.2699 17.0804 12.4658V13.2374L20.0933 14.8168C20.2221 14.8695 20.3132 14.997 20.3132 15.1458V21.0464H21.6466C21.8417 21.0464 22 21.2053 22 21.4012V22.6451C22 22.841 21.8417 23 21.6466 23H3.35337C3.15828 23 3 22.841 3 22.6451V21.4012C3 21.2053 3.15828 21.0464 3.35337 21.0464H4.5276V10.1868C4.5276 9.99089 4.68588 9.83194 4.88097 9.83194C5.07605 9.83194 5.23434 9.99089 5.23434 10.1868V21.0464H6.88707V17.5622C6.88707 17.4218 6.96897 17.2998 7.08676 17.2425L9.25207 15.9866C9.42048 15.8886 9.63673 15.9459 9.73336 16.115C9.76833 16.176 9.78306 16.2435 9.78029 16.3091L9.77937 21.0445H11.4339V1.96469L5.23348 5.55954V7.12043C5.23348 7.31635 5.0752 7.4753 4.88011 7.4753C4.68502 7.4753 4.52674 7.31635 4.52674 7.12043V5.35717C4.52858 5.23518 4.59208 5.11597 4.70527 5.05127L11.6089 1.04879C11.7148 0.986871 11.8491 0.981326 11.9632 1.04694L16.8737 3.8942C16.996 3.94964 17.0807 4.07348 17.0807 4.21765V10.9583C17.0807 11.1542 16.9224 11.3132 16.7273 11.3132C16.5323 11.3132 16.374 11.1542 16.374 10.9583V4.42087L12.1408 1.96634V21.0461H19.6059V15.359L17.0798 14.0347V19.9972L17.0804 19.9966ZM7.59362 21.0455H9.07613L9.07705 16.9054L7.59363 17.7648L7.59362 21.0455ZM21.2931 21.7553H3.70655V22.2894H21.2931V21.7553ZM13.2622 15.7788C13.0937 15.6817 13.0358 15.4655 13.1324 15.2963C13.229 15.1272 13.4444 15.069 13.6128 15.166L15.2526 16.117C15.421 16.214 15.479 16.4303 15.3824 16.5994C15.2857 16.7685 15.0704 16.8267 14.902 16.7297L13.2622 15.7788ZM13.2622 13.0129C13.0937 12.9159 13.0358 12.6996 13.1324 12.5305C13.229 12.3613 13.4444 12.3031 13.6128 12.4002L15.2526 13.3511C15.421 13.4481 15.479 13.6644 15.3824 13.8335C15.2857 14.0026 15.0704 14.0609 14.902 13.9638L13.2622 13.0129ZM13.2622 10.247C13.0937 10.15 13.0358 9.93374 13.1324 9.76461C13.229 9.59549 13.4444 9.53727 13.6128 9.63431L15.2526 10.5852C15.421 10.6823 15.479 10.8985 15.3824 11.0677C15.2857 11.2368 15.0704 11.295 14.902 11.198L13.2622 10.247ZM13.2622 7.48115C13.0937 7.38412 13.0358 7.16787 13.1324 6.99874C13.229 6.82962 13.4444 6.7714 13.6128 6.86843L15.2526 7.81937C15.421 7.91641 15.479 8.13265 15.3824 8.30178C15.2857 8.4709 15.0704 8.52913 14.902 8.43209L13.2622 7.48115ZM13.2622 4.71528C13.0937 4.61825 13.0358 4.402 13.1324 4.23287C13.229 4.06374 13.4444 4.00553 13.6128 4.10256L15.2526 5.0535C15.421 5.15054 15.479 5.36678 15.3824 5.53591C15.2857 5.70503 15.0704 5.76326 14.902 5.66622L13.2622 4.71528ZM6.29134 13.7016L10.046 11.5243C10.2144 11.4263 10.4307 11.4836 10.5273 11.6528C10.5595 11.7082 10.5752 11.7701 10.5742 11.8302L10.5752 13.5824C10.5752 13.7228 10.4933 13.8448 10.3755 13.9021L6.62079 16.0794C6.45239 16.1774 6.23613 16.1201 6.1395 15.9509C6.10729 15.8955 6.09165 15.8336 6.09257 15.7735L6.09165 14.0213C6.09165 13.8809 6.17355 13.7589 6.29134 13.7016ZM9.86933 12.4447L6.79854 14.2256V15.1608L9.86933 13.38V12.4447ZM6.29134 10.0669L10.046 7.88959C10.2144 7.79163 10.4307 7.84892 10.5273 8.01804C10.5595 8.07349 10.5752 8.13541 10.5742 8.19548L10.5752 9.94765C10.5752 10.0881 10.4933 10.2101 10.3755 10.2674L6.62079 12.4447C6.45239 12.5426 6.23613 12.4854 6.1395 12.3162C6.10729 12.2608 6.09165 12.1989 6.09257 12.1388L6.09165 10.3866C6.09165 10.2462 6.17355 10.1242 6.29134 10.0669ZM9.86933 8.81003L6.79854 10.5908V11.5261L9.86933 9.74526V8.81003ZM6.29134 6.43215L10.046 4.25487C10.2144 4.15691 10.4307 4.21421 10.5273 4.38333C10.5595 4.43878 10.5752 4.50069 10.5742 4.56076L10.5752 6.31293C10.5752 6.4534 10.4933 6.57539 10.3755 6.63269L6.62079 8.80997C6.45239 8.90793 6.23613 8.85064 6.1395 8.68152C6.10729 8.62607 6.09165 8.56415 6.09257 8.50408L6.09165 6.75191C6.09165 6.61144 6.17355 6.48945 6.29134 6.43215ZM9.86933 5.17531L6.79854 6.95613V7.89136L9.86933 6.11054V5.17531ZM4.52731 8.62987C4.52731 8.43395 4.6856 8.275 4.88068 8.275C5.07577 8.275 5.23406 8.43395 5.23406 8.62987V8.67885C5.23406 8.87477 5.07577 9.03372 4.88068 9.03372C4.6856 9.03372 4.52731 8.87477 4.52731 8.67885V8.62987Z" stroke="black" stroke-width="0.2" mask="url(#path-1-outside-1_1356_6529)"/>
</svg>
