<svg width="24" height="24" viewBox="0 0 24 24" fill="none" xmlns="http://www.w3.org/2000/svg">
<path d="M21.7501 11.9998C21.7501 12.4138 21.4141 12.7498 21.0001 12.7498H4.81115L10.5311 18.4698C10.8241 18.7628 10.8241 19.2378 10.5311 19.5308C10.3851 19.6768 10.1931 19.7508 10.0011 19.7508C9.80909 19.7508 9.61706 19.6778 9.47106 19.5308L2.47106 12.5308C2.40206 12.4618 2.3472 12.3789 2.3092 12.2869C2.2332 12.1039 2.2332 11.8969 2.3092 11.7139C2.3472 11.6219 2.40206 11.5387 2.47106 11.4697L9.47106 4.46975C9.76406 4.17675 10.2391 4.17675 10.5321 4.46975C10.8251 4.76275 10.8251 5.23779 10.5321 5.53079L4.81213 11.2508H21.0001C21.4141 11.2498 21.7501 11.5858 21.7501 11.9998Z" fill="#1C1C1E"/>
</svg>
