<svg width="24" height="24" viewBox="0 0 24 24" fill="none" xmlns="http://www.w3.org/2000/svg">
<path d="M21.6 20.0667H2.4C2.18 20.0667 2 20.2317 2 20.4334V21.5334C2 22.3437 2.71601 23 3.6 23H15.6C15.82 23 16 22.835 16 22.6334C16 22.4317 15.82 22.2667 15.6 22.2667H3.6C3.15999 22.2667 2.8 21.9367 2.8 21.5334V20.8H21.2V21.5334C21.2 21.9367 20.84 22.2667 20.4 22.2667H17.2C16.98 22.2667 16.8 22.4317 16.8 22.6334C16.8 22.835 16.98 23 17.2 23H20.4C21.284 23 22 22.3437 22 21.5334V20.4334C22 20.2317 21.82 20.0667 21.6 20.0667Z" fill="black"/>
<path d="M21.6 11.6335C21.38 11.6335 21.2 11.7985 21.2 12.0001V12.7335H2.8V12.0001C2.8 11.7985 2.62 11.6335 2.4 11.6335C2.18 11.6335 2 11.7985 2 12.0001V18.9669C2 19.1686 2.18 19.3336 2.4 19.3336C2.62 19.3336 2.8 19.1686 2.8 18.9669V13.4668H4.4V18.9669C4.4 19.1686 4.58 19.3336 4.8 19.3336C5.02 19.3336 5.2 19.1686 5.2 18.9669V13.4668H6.8V18.9669C6.8 19.1686 6.98 19.3336 7.2 19.3336C7.42 19.3336 7.6 19.1686 7.6 18.9669V13.4668H9.2V18.9669C9.2 19.1686 9.38 19.3336 9.6 19.3336C9.82 19.3336 10 19.1686 10 18.9669V13.4668H11.6V18.9669C11.6 19.1686 11.78 19.3336 12 19.3336C12.22 19.3336 12.4 19.1686 12.4 18.9669V13.4668H14V18.9669C14 19.1686 14.18 19.3336 14.4 19.3336C14.62 19.3336 14.8 19.1686 14.8 18.9669V13.4668H16.4V18.9669C16.4 19.1686 16.58 19.3336 16.8 19.3336C17.02 19.3336 17.2 19.1686 17.2 18.9669V13.4668H18.8V18.9669C18.8 19.1686 18.98 19.3336 19.2 19.3336C19.42 19.3336 19.6 19.1686 19.6 18.9669V13.4668H21.2V18.9669C21.2 19.1686 21.38 19.3336 21.6 19.3336C21.82 19.3336 22 19.1686 22 18.9669V12.0001C22 11.7985 21.82 11.6335 21.6 11.6335Z" fill="black"/>
<path d="M10.0006 1.73345H16.8005C17.6845 1.73345 18.4005 2.38979 18.4005 3.20011V11.6335C18.4005 11.8352 18.5805 12.0002 18.8005 12.0002C19.0205 12.0002 19.2005 11.8352 19.2005 11.6335V3.20011C19.2005 1.98644 18.1245 1.00012 16.8005 1.00012H10.0006C9.78058 1.00012 9.60059 1.16512 9.60059 1.36679C9.60059 1.56845 9.78058 1.73345 10.0006 1.73345Z" fill="black"/>
<path d="M5.1998 12.0001C5.41981 12.0001 5.5998 11.8351 5.5998 11.6334V3.19999C5.5998 2.38967 6.31581 1.73333 7.1998 1.73333H8.3998C8.61981 1.73333 8.7998 1.56833 8.7998 1.36666C8.7998 1.165 8.61981 1 8.3998 1H7.1998C5.8758 1 4.7998 1.98632 4.7998 3.19999V11.6334C4.7998 11.8351 4.9798 12.0001 5.1998 12.0001Z" fill="black"/>
<path d="M17.1998 9.06671C16.9798 9.06671 16.7998 9.23171 16.7998 9.43338V11.6334C16.7998 11.835 16.9798 12 17.1998 12C17.4198 12 17.5998 11.835 17.5998 11.6334V9.43338C17.5998 9.23171 17.4198 9.06671 17.1998 9.06671Z" fill="black"/>
<path d="M17.5994 3.20007C17.5994 2.79672 17.2394 2.46674 16.7994 2.46674H7.19941C6.7594 2.46674 6.39941 2.79672 6.39941 3.20007V11.6335C6.39941 11.8351 6.57941 12.0001 6.79941 12.0001C7.01942 12.0001 7.19941 11.8351 7.19941 11.6335V3.20007H10.7993V11.6335C10.7993 11.8351 10.9793 12.0001 11.1993 12.0001C11.4193 12.0001 11.5993 11.8351 11.5993 11.6335V3.20007H12.3993V11.6335C12.3993 11.8351 12.5793 12.0001 12.7993 12.0001C13.0193 12.0001 13.1993 11.8351 13.1993 11.6335V3.20007H16.7992V7.96659C16.7992 8.16826 16.9792 8.33325 17.1992 8.33325C17.4192 8.33325 17.5992 8.16826 17.5992 7.96659L17.5994 3.20007Z" fill="black"/>
<path d="M14.6839 5.66036L15.4839 4.92703C15.6399 4.78403 15.6399 4.55302 15.4839 4.41004C15.3279 4.26706 15.0759 4.26704 14.9199 4.41004L14.1199 5.14337C13.9639 5.28637 13.9639 5.51738 14.1199 5.66036C14.1999 5.73369 14.2999 5.76669 14.4039 5.76669C14.5079 5.76669 14.6079 5.73002 14.6879 5.66036H14.6839Z" fill="black"/>
<path d="M13.7165 8.22709C13.7965 8.30042 13.8965 8.33342 14.0005 8.33342C14.1045 8.33342 14.2045 8.29675 14.2845 8.22709L16.2845 6.39377C16.4405 6.25077 16.4405 6.01976 16.2845 5.87677C16.1285 5.73379 15.8765 5.73377 15.7205 5.87677L13.7205 7.7101C13.5645 7.8531 13.5645 8.08411 13.7205 8.22709H13.7165Z" fill="black"/>
<path d="M8.68392 5.66036L9.48392 4.92703C9.63993 4.78403 9.63993 4.55302 9.48392 4.41004C9.32792 4.26706 9.07591 4.26704 8.91993 4.41004L8.11993 5.14337C7.96393 5.28637 7.96393 5.51738 8.11993 5.66036C8.19993 5.73369 8.29993 5.76669 8.40394 5.76669C8.50795 5.76669 8.60794 5.73002 8.68794 5.66036H8.68392Z" fill="black"/>
<path d="M7.71552 8.22709C7.79552 8.30042 7.89552 8.33342 7.99953 8.33342C8.10354 8.33342 8.20353 8.29675 8.28353 8.22709L10.2835 6.39377C10.4395 6.25077 10.4395 6.01976 10.2835 5.87677C10.1275 5.73379 9.87552 5.73377 9.71954 5.87677L7.71954 7.7101C7.56354 7.8531 7.56354 8.08411 7.71954 8.22709H7.71552Z" fill="black"/>
</svg>
