<svg width="24" height="24" viewBox="0 0 24 24" fill="none" xmlns="http://www.w3.org/2000/svg">
<path d="M1.00001 13.5173C0.999395 13.785 1.0921 14.0443 1.2617 14.2492C1.43129 14.4541 1.66681 14.5913 1.9265 14.6366V16.6322C1.92533 17.4381 2.09434 18.2348 2.42211 18.9687C2.74989 19.7025 3.2288 20.3564 3.82651 20.8861L3.30764 21.4228C3.18233 21.5525 3.09727 21.7167 3.06302 21.8951C3.02877 22.0734 3.04685 22.2581 3.11501 22.4261C3.18317 22.5941 3.2984 22.7381 3.4464 22.8401C3.59439 22.9421 3.76862 22.9977 3.94745 23H4.50737C4.68622 22.9993 4.86316 22.9626 5.02799 22.8921C5.19283 22.8216 5.34232 22.7187 5.46783 22.5892L5.98445 22.0517C6.43114 22.1754 6.89182 22.2391 7.35477 22.2414H16.6555C17.1184 22.2391 17.5791 22.1754 18.0258 22.0517L18.5439 22.5877C18.6692 22.7175 18.8186 22.8207 18.9833 22.8915C19.1481 22.9623 19.3251 22.9991 19.504 23H20.0639C20.2427 22.9974 20.4167 22.9416 20.5645 22.8394C20.7123 22.7373 20.8273 22.5933 20.8953 22.4253C20.9633 22.2573 20.9813 22.0728 20.9471 21.8945C20.9128 21.7162 20.8278 21.5521 20.7026 21.4225L20.1841 20.8861C20.7817 20.3563 21.2605 19.7025 21.5882 18.9686C21.9159 18.2348 22.0849 17.438 22.0838 16.6322V14.6366C22.3411 14.5883 22.5736 14.4499 22.741 14.2455C22.9084 14.0411 23 13.7835 23 13.5176C23 13.2517 22.9084 12.9942 22.741 12.7898C22.5736 12.5854 22.3411 12.447 22.0838 12.3987V1.37935C22.0838 1.27875 22.0444 1.18228 21.9744 1.11114C21.9044 1.04001 21.8095 1.00004 21.7105 1.00004H19.8441C19.7944 1.00005 19.7453 1.01012 19.6995 1.02966C19.6538 1.0492 19.6123 1.07781 19.5775 1.11384L19.0975 1.61035L18.8493 1.35394C18.6866 1.18544 18.478 1.07034 18.2503 1.02349C18.0227 0.976645 17.7864 1.0002 17.5721 1.09113C17.3577 1.18205 17.1751 1.33616 17.0478 1.53358C16.9205 1.731 16.8543 1.96266 16.8578 2.19866C16.8567 2.51469 16.9783 2.81839 17.1964 3.04376L18.2259 4.11038C18.3887 4.27884 18.5976 4.39383 18.8254 4.4405C19.0532 4.48717 19.2895 4.46338 19.5039 4.3722C19.7183 4.28103 19.9008 4.12665 20.028 3.929C20.1552 3.73135 20.2211 3.4995 20.2173 3.26338C20.2184 2.94729 20.0966 2.64355 19.8784 2.41828L19.6208 2.15277L20.0008 1.75866H21.3372V10.4828H20.2173V11.2414H21.3372V12.3793H6.40589V11.609C6.4053 11.1093 6.20969 10.6302 5.86196 10.2769C5.51424 9.92354 5.0428 9.72477 4.55105 9.72416H3.57417L3.54207 9.69154C3.37914 9.52596 3.17154 9.4132 2.94554 9.36752C2.71954 9.32183 2.48528 9.34527 2.27239 9.43488C2.0595 9.52449 1.87754 9.67624 1.74953 9.87093C1.62152 10.0656 1.5532 10.2945 1.55322 10.5287C1.55278 10.6842 1.5827 10.8383 1.64127 10.982C1.69983 11.1257 1.78587 11.2561 1.8944 11.3658L2.89181 12.3793H2.10791C1.81256 12.3811 1.52998 12.502 1.32225 12.7154C1.11452 12.9287 0.998622 13.2171 1.00001 13.5173ZM19.0523 3.70338C18.9976 3.70339 18.9434 3.69221 18.893 3.67051C18.8426 3.64881 18.797 3.61703 18.7589 3.57707L17.7294 2.51197C17.6492 2.42805 17.6043 2.31566 17.6044 2.19866C17.6026 2.08397 17.6456 1.97323 17.7241 1.89075C17.8025 1.80826 17.9099 1.76076 18.0228 1.75866C18.0776 1.75874 18.1318 1.76995 18.1823 1.79165C18.2327 1.81334 18.2784 1.84507 18.3166 1.88497L19.3457 2.9497C19.4259 3.0338 19.4707 3.14629 19.4708 3.26338C19.4726 3.37808 19.4295 3.48882 19.3511 3.5713C19.2726 3.65379 19.1652 3.70129 19.0523 3.70338ZM4.93441 22.0574C4.87877 22.1156 4.81221 22.1619 4.73867 22.1935C4.66513 22.2251 4.5861 22.2414 4.50625 22.2414H3.94633C3.90428 22.2397 3.86458 22.2212 3.83586 22.19C3.80713 22.1587 3.7917 22.1172 3.79291 22.0745C3.79285 22.0296 3.80999 21.9865 3.84069 21.9542L4.42675 21.3473C4.67339 21.5124 4.93295 21.6567 5.2028 21.7786L4.93441 22.0574ZM20.1696 21.9539C20.2002 21.9863 20.2173 22.0295 20.2173 22.0745C20.2185 22.1174 20.203 22.1591 20.174 22.1904C20.145 22.2217 20.105 22.24 20.0628 22.2414H19.5029C19.4231 22.2413 19.3441 22.225 19.2707 22.1934C19.1972 22.1618 19.1307 22.1156 19.0751 22.0574L18.8063 21.7794C19.0764 21.6575 19.3361 21.5132 19.5828 21.3477L20.1696 21.9539ZM21.3372 16.6322C21.3478 17.9058 20.8609 19.1317 19.9833 20.041C19.1056 20.9504 17.9088 21.4688 16.6555 21.4828H7.35477C6.10141 21.4688 4.90465 20.9504 4.02698 20.041C3.14932 19.1317 2.66241 17.9058 2.67306 16.6322V14.6552H21.3372V16.6322ZM22.2637 13.5173C22.2653 13.616 22.2283 13.7114 22.1609 13.7824C22.0934 13.8535 22.001 13.8946 21.9038 13.8966H2.10642C2.00742 13.8966 1.91248 13.8566 1.84247 13.7855C1.77247 13.7143 1.73314 13.6179 1.73314 13.5173C1.73314 13.4167 1.77247 13.3202 1.84247 13.249C1.91248 13.1779 2.00742 13.138 2.10642 13.138H21.9038C22.001 13.1399 22.0934 13.181 22.1609 13.2521C22.2283 13.3232 22.2653 13.4185 22.2637 13.5173ZM4.55105 10.4828C4.84486 10.4832 5.12653 10.602 5.33428 10.8131C5.54204 11.0242 5.65893 11.3104 5.65932 11.609V11.843L4.32073 10.4828H4.55105ZM2.42334 10.8295C2.36483 10.7701 2.32496 10.6944 2.30876 10.612C2.29256 10.5296 2.30075 10.4441 2.3323 10.3665C2.36386 10.2888 2.41736 10.2223 2.48604 10.1755C2.55473 10.1287 2.63553 10.1036 2.71823 10.1035C2.82914 10.1039 2.93544 10.1486 3.01424 10.2279L3.15572 10.3716L5.1315 12.3793H3.94745L2.42334 10.8295Z" fill="black"/>
<path d="M20.5912 16.6155V15.4138H19.8446V16.6155C19.8523 17.4948 19.5164 18.3413 18.9107 18.9693C18.305 19.5974 17.4788 19.9556 16.6135 19.9655H15.3652V20.7242H16.6135C17.6768 20.714 18.6927 20.2758 19.4384 19.5055C20.1841 18.7353 20.5986 17.6959 20.5912 16.6155Z" fill="black"/>
<path d="M16.2181 3.0445L15.4717 3.81689L16.0046 4.34869L16.7511 3.5763L16.2181 3.0445Z" fill="black"/>
<path d="M14.7252 4.58909L13.2324 6.13452L13.7655 6.66619L15.2583 5.12076L14.7252 4.58909Z" fill="black"/>
<path d="M16.9649 3.81717L15.4717 5.36212L16.0046 5.89396L17.4978 4.34901L16.9649 3.81717Z" fill="black"/>
<path d="M14.7248 6.13392L13.9785 6.90649L14.5116 7.43816L15.2578 6.66558L14.7248 6.13392Z" fill="black"/>
<path d="M17.7111 4.58948L16.9648 5.36206L17.4979 5.89373L18.2442 5.12115L17.7111 4.58948Z" fill="black"/>
<path d="M16.2179 6.13388L14.7246 7.67883L15.2575 8.21067L16.7508 6.66572L16.2179 6.13388Z" fill="black"/>
</svg>
