<svg width="24" height="24" viewBox="0 0 24 24" fill="none" xmlns="http://www.w3.org/2000/svg">
<mask id="path-1-outside-1_1356_6544" maskUnits="userSpaceOnUse" x="0" y="5" width="24" height="14" fill="black">
<rect fill="white" y="5" width="24" height="14"/>
<path d="M22.1047 11.2266V6.17361C22.1047 6.12792 22.0888 6.08354 22.058 6.05091C22.0286 6.01827 21.9868 6 21.9438 6H2.0661C2.02311 6 1.98135 6.01828 1.95188 6.05091C1.92117 6.08354 1.9052 6.12792 1.9052 6.17361V11.2266C1.38445 11.3167 1.00123 11.7944 1 12.3557V17.4348C1 17.4805 1.0172 17.5249 1.0479 17.5575C1.07861 17.5901 1.12037 17.6084 1.16335 17.6084H2.0784C2.12139 17.6084 2.16314 17.5901 2.19262 17.5575C2.22333 17.5249 2.2393 17.4805 2.2393 17.4348V16.6294C2.3179 16.6855 2.40633 16.7247 2.49968 16.7469L2.71094 17.8564C2.72445 17.936 2.79077 17.9948 2.86815 17.9935H3.59771C3.62105 17.9856 3.64439 17.9739 3.66281 17.9556C3.68123 17.9413 3.69474 17.9217 3.70457 17.8995C3.7058 17.8851 3.7058 17.8708 3.70457 17.8564L3.91214 16.7704H20.0768L20.2844 17.8603L20.2831 17.859C20.2991 17.94 20.3642 17.9987 20.4404 18H21.1613C21.1847 17.9935 21.208 17.983 21.2264 17.9661C21.2436 17.9491 21.2584 17.9282 21.2682 17.906C21.2694 17.8917 21.2694 17.8773 21.2682 17.8629L21.4794 16.7638H21.4782C21.5802 16.7429 21.676 16.7012 21.7619 16.6398V17.4452C21.7607 17.4909 21.7767 17.5353 21.8074 17.5679C21.8381 17.6006 21.8786 17.6188 21.9216 17.6188H22.8366C22.8809 17.6188 22.9214 17.6006 22.9521 17.5679C22.9828 17.5353 23 17.4909 23 17.4452V12.3558C23 11.7971 22.6218 11.3206 22.1047 11.2266ZM2.22574 6.34337H5.2226V7.11875C5.20909 7.17227 5.21892 7.2284 5.24962 7.27147C5.28033 7.31455 5.32823 7.34066 5.37981 7.34066C5.4314 7.34066 5.4793 7.31455 5.51001 7.27147C5.54194 7.2284 5.55176 7.17227 5.53703 7.11875V6.34337H8.49584V7.11875C8.48233 7.17227 8.49216 7.2284 8.52286 7.27147C8.55357 7.31455 8.60147 7.34066 8.65305 7.34066C8.70464 7.34066 8.75254 7.31455 8.78324 7.27147C8.81395 7.2284 8.825 7.17227 8.81027 7.11875V6.34337H11.8071V7.11875C11.7924 7.17227 11.8022 7.2284 11.8329 7.27147C11.8649 7.31455 11.9128 7.34066 11.9643 7.34066C12.0147 7.34066 12.0638 7.31455 12.0945 7.27147C12.1252 7.2284 12.1351 7.17227 12.1216 7.11875V6.34337H15.1491V7.11875C15.1356 7.17227 15.1454 7.2284 15.1762 7.27147C15.2069 7.31455 15.2548 7.34066 15.3063 7.34066C15.3579 7.34066 15.4058 7.31455 15.4365 7.27147C15.4672 7.2284 15.4771 7.17227 15.4636 7.11875V6.34337H18.4604V7.11875C18.4457 7.17227 18.4555 7.2284 18.4862 7.27147C18.5181 7.31455 18.566 7.34066 18.6176 7.34066C18.668 7.34066 18.7171 7.31455 18.7478 7.27147C18.7785 7.2284 18.7884 7.17227 18.7748 7.11875V6.34337H21.784V8.60554L21.0164 8.60685C20.9463 8.62773 20.8972 8.69561 20.8972 8.77393C20.8972 8.85095 20.9463 8.91883 21.0164 8.94102H21.784V11.2032H19.3312C19.4049 11.0818 19.4454 10.9395 19.4442 10.7946V9.19816C19.443 8.79482 19.1568 8.45804 18.781 8.41627V8.32228C18.781 8.27659 18.765 8.23221 18.7343 8.19958C18.7048 8.16695 18.6631 8.14867 18.6201 8.14867C18.5304 8.14867 18.4567 8.22569 18.4567 8.32228V8.42932H15.4635V8.32228C15.4439 8.24788 15.3788 8.19566 15.3063 8.19566C15.2339 8.19566 15.1688 8.24788 15.1491 8.32228V8.4254H13.6175C13.2097 8.4254 12.8793 8.77785 12.8793 9.21124V10.8181C12.8781 10.963 12.9174 11.1053 12.9923 11.2267H12.1498V10.437C12.1633 10.3848 12.1534 10.3286 12.1227 10.2856C12.092 10.2412 12.0441 10.2164 11.9925 10.2164C11.941 10.2164 11.8931 10.2412 11.8611 10.2856C11.8304 10.3286 11.8206 10.3848 11.8353 10.437V11.2124H10.983C11.0554 11.091 11.0947 10.95 11.096 10.8051V9.19817C11.0947 8.76479 10.7643 8.41494 10.3578 8.41234H8.8323V8.32227C8.81756 8.24264 8.75124 8.18521 8.67509 8.18521C8.59894 8.18521 8.53262 8.24264 8.51788 8.32227V8.42539H5.54312V8.32227C5.55786 8.27006 5.54803 8.21392 5.5161 8.16954C5.48539 8.12647 5.43749 8.10036 5.38591 8.10036C5.33432 8.10036 5.28642 8.12647 5.25572 8.16954C5.22501 8.21392 5.21518 8.27006 5.22869 8.32227V8.43192C4.84057 8.45933 4.53843 8.80134 4.53721 9.21515V10.822C4.53598 10.9669 4.57528 11.1079 4.65021 11.2293H2.2257V8.95018H2.97491C3.04492 8.9293 3.09282 8.86142 3.09282 8.7831C3.09282 8.70608 3.04492 8.63821 2.97491 8.61601H2.2257L2.22574 6.34337ZM15.3065 11.2122H13.5772C13.3659 11.2122 13.1939 11.0308 13.1939 10.805V9.19806C13.1952 8.95396 13.3819 8.75685 13.6115 8.75685H18.7049C18.9346 8.75685 19.1213 8.95396 19.1237 9.19806V10.805C19.1237 11.0308 18.9518 11.2122 18.7405 11.2122H15.3065ZM8.66551 11.2122H5.23512C5.02386 11.2122 4.85189 11.0308 4.85189 10.805V9.19806C4.85189 8.95396 5.03735 8.75685 5.26703 8.75685H10.3579C10.4672 8.75685 10.5728 8.80254 10.6515 8.88608C10.7288 8.96832 10.7718 9.08058 10.7718 9.19806V10.805C10.7718 11.0308 10.6011 11.2122 10.3886 11.2122L8.66551 11.2122ZM3.41239 17.6527H2.98741L2.82037 16.7677H3.58188L3.41239 17.6527ZM21.0017 17.6527H20.5731L20.406 16.7677H21.1675L21.0017 17.6527ZM21.7816 15.9819H21.7804C21.7804 16.226 21.595 16.4244 21.3653 16.4257H2.64465C2.41497 16.4244 2.22951 16.226 2.22951 15.9819V12.9743C2.22951 12.7289 2.41497 12.5305 2.64465 12.5292H21.3653C21.595 12.5305 21.7804 12.7289 21.7804 12.9743L21.7816 15.9819ZM22.6954 17.265H22.1047V12.3557C22.1047 12.2617 22.0322 12.1847 21.9438 12.1847H2.06604C1.9776 12.1847 1.90514 12.2617 1.90514 12.3557V17.265H1.31436V12.3557C1.31436 12.1442 1.39297 11.9406 1.53422 11.7905C1.67669 11.6417 1.8683 11.5568 2.06849 11.5568H21.9437C22.3576 11.5581 22.6941 11.9158 22.6954 12.3557L22.6954 17.265Z"/>
</mask>
<path d="M22.1047 11.2266V6.17361C22.1047 6.12792 22.0888 6.08354 22.058 6.05091C22.0286 6.01827 21.9868 6 21.9438 6H2.0661C2.02311 6 1.98135 6.01828 1.95188 6.05091C1.92117 6.08354 1.9052 6.12792 1.9052 6.17361V11.2266C1.38445 11.3167 1.00123 11.7944 1 12.3557V17.4348C1 17.4805 1.0172 17.5249 1.0479 17.5575C1.07861 17.5901 1.12037 17.6084 1.16335 17.6084H2.0784C2.12139 17.6084 2.16314 17.5901 2.19262 17.5575C2.22333 17.5249 2.2393 17.4805 2.2393 17.4348V16.6294C2.3179 16.6855 2.40633 16.7247 2.49968 16.7469L2.71094 17.8564C2.72445 17.936 2.79077 17.9948 2.86815 17.9935H3.59771C3.62105 17.9856 3.64439 17.9739 3.66281 17.9556C3.68123 17.9413 3.69474 17.9217 3.70457 17.8995C3.7058 17.8851 3.7058 17.8708 3.70457 17.8564L3.91214 16.7704H20.0768L20.2844 17.8603L20.2831 17.859C20.2991 17.94 20.3642 17.9987 20.4404 18H21.1613C21.1847 17.9935 21.208 17.983 21.2264 17.9661C21.2436 17.9491 21.2584 17.9282 21.2682 17.906C21.2694 17.8917 21.2694 17.8773 21.2682 17.8629L21.4794 16.7638H21.4782C21.5802 16.7429 21.676 16.7012 21.7619 16.6398V17.4452C21.7607 17.4909 21.7767 17.5353 21.8074 17.5679C21.8381 17.6006 21.8786 17.6188 21.9216 17.6188H22.8366C22.8809 17.6188 22.9214 17.6006 22.9521 17.5679C22.9828 17.5353 23 17.4909 23 17.4452V12.3558C23 11.7971 22.6218 11.3206 22.1047 11.2266ZM2.22574 6.34337H5.2226V7.11875C5.20909 7.17227 5.21892 7.2284 5.24962 7.27147C5.28033 7.31455 5.32823 7.34066 5.37981 7.34066C5.4314 7.34066 5.4793 7.31455 5.51001 7.27147C5.54194 7.2284 5.55176 7.17227 5.53703 7.11875V6.34337H8.49584V7.11875C8.48233 7.17227 8.49216 7.2284 8.52286 7.27147C8.55357 7.31455 8.60147 7.34066 8.65305 7.34066C8.70464 7.34066 8.75254 7.31455 8.78324 7.27147C8.81395 7.2284 8.825 7.17227 8.81027 7.11875V6.34337H11.8071V7.11875C11.7924 7.17227 11.8022 7.2284 11.8329 7.27147C11.8649 7.31455 11.9128 7.34066 11.9643 7.34066C12.0147 7.34066 12.0638 7.31455 12.0945 7.27147C12.1252 7.2284 12.1351 7.17227 12.1216 7.11875V6.34337H15.1491V7.11875C15.1356 7.17227 15.1454 7.2284 15.1762 7.27147C15.2069 7.31455 15.2548 7.34066 15.3063 7.34066C15.3579 7.34066 15.4058 7.31455 15.4365 7.27147C15.4672 7.2284 15.4771 7.17227 15.4636 7.11875V6.34337H18.4604V7.11875C18.4457 7.17227 18.4555 7.2284 18.4862 7.27147C18.5181 7.31455 18.566 7.34066 18.6176 7.34066C18.668 7.34066 18.7171 7.31455 18.7478 7.27147C18.7785 7.2284 18.7884 7.17227 18.7748 7.11875V6.34337H21.784V8.60554L21.0164 8.60685C20.9463 8.62773 20.8972 8.69561 20.8972 8.77393C20.8972 8.85095 20.9463 8.91883 21.0164 8.94102H21.784V11.2032H19.3312C19.4049 11.0818 19.4454 10.9395 19.4442 10.7946V9.19816C19.443 8.79482 19.1568 8.45804 18.781 8.41627V8.32228C18.781 8.27659 18.765 8.23221 18.7343 8.19958C18.7048 8.16695 18.6631 8.14867 18.6201 8.14867C18.5304 8.14867 18.4567 8.22569 18.4567 8.32228V8.42932H15.4635V8.32228C15.4439 8.24788 15.3788 8.19566 15.3063 8.19566C15.2339 8.19566 15.1688 8.24788 15.1491 8.32228V8.4254H13.6175C13.2097 8.4254 12.8793 8.77785 12.8793 9.21124V10.8181C12.8781 10.963 12.9174 11.1053 12.9923 11.2267H12.1498V10.437C12.1633 10.3848 12.1534 10.3286 12.1227 10.2856C12.092 10.2412 12.0441 10.2164 11.9925 10.2164C11.941 10.2164 11.8931 10.2412 11.8611 10.2856C11.8304 10.3286 11.8206 10.3848 11.8353 10.437V11.2124H10.983C11.0554 11.091 11.0947 10.95 11.096 10.8051V9.19817C11.0947 8.76479 10.7643 8.41494 10.3578 8.41234H8.8323V8.32227C8.81756 8.24264 8.75124 8.18521 8.67509 8.18521C8.59894 8.18521 8.53262 8.24264 8.51788 8.32227V8.42539H5.54312V8.32227C5.55786 8.27006 5.54803 8.21392 5.5161 8.16954C5.48539 8.12647 5.43749 8.10036 5.38591 8.10036C5.33432 8.10036 5.28642 8.12647 5.25572 8.16954C5.22501 8.21392 5.21518 8.27006 5.22869 8.32227V8.43192C4.84057 8.45933 4.53843 8.80134 4.53721 9.21515V10.822C4.53598 10.9669 4.57528 11.1079 4.65021 11.2293H2.2257V8.95018H2.97491C3.04492 8.9293 3.09282 8.86142 3.09282 8.7831C3.09282 8.70608 3.04492 8.63821 2.97491 8.61601H2.2257L2.22574 6.34337ZM15.3065 11.2122H13.5772C13.3659 11.2122 13.1939 11.0308 13.1939 10.805V9.19806C13.1952 8.95396 13.3819 8.75685 13.6115 8.75685H18.7049C18.9346 8.75685 19.1213 8.95396 19.1237 9.19806V10.805C19.1237 11.0308 18.9518 11.2122 18.7405 11.2122H15.3065ZM8.66551 11.2122H5.23512C5.02386 11.2122 4.85189 11.0308 4.85189 10.805V9.19806C4.85189 8.95396 5.03735 8.75685 5.26703 8.75685H10.3579C10.4672 8.75685 10.5728 8.80254 10.6515 8.88608C10.7288 8.96832 10.7718 9.08058 10.7718 9.19806V10.805C10.7718 11.0308 10.6011 11.2122 10.3886 11.2122L8.66551 11.2122ZM3.41239 17.6527H2.98741L2.82037 16.7677H3.58188L3.41239 17.6527ZM21.0017 17.6527H20.5731L20.406 16.7677H21.1675L21.0017 17.6527ZM21.7816 15.9819H21.7804C21.7804 16.226 21.595 16.4244 21.3653 16.4257H2.64465C2.41497 16.4244 2.22951 16.226 2.22951 15.9819V12.9743C2.22951 12.7289 2.41497 12.5305 2.64465 12.5292H21.3653C21.595 12.5305 21.7804 12.7289 21.7804 12.9743L21.7816 15.9819ZM22.6954 17.265H22.1047V12.3557C22.1047 12.2617 22.0322 12.1847 21.9438 12.1847H2.06604C1.9776 12.1847 1.90514 12.2617 1.90514 12.3557V17.265H1.31436V12.3557C1.31436 12.1442 1.39297 11.9406 1.53422 11.7905C1.67669 11.6417 1.8683 11.5568 2.06849 11.5568H21.9437C22.3576 11.5581 22.6941 11.9158 22.6954 12.3557L22.6954 17.265Z" fill="black"/>
<path d="M22.1047 11.2266V6.17361C22.1047 6.12792 22.0888 6.08354 22.058 6.05091C22.0286 6.01827 21.9868 6 21.9438 6H2.0661C2.02311 6 1.98135 6.01828 1.95188 6.05091C1.92117 6.08354 1.9052 6.12792 1.9052 6.17361V11.2266C1.38445 11.3167 1.00123 11.7944 1 12.3557V17.4348C1 17.4805 1.0172 17.5249 1.0479 17.5575C1.07861 17.5901 1.12037 17.6084 1.16335 17.6084H2.0784C2.12139 17.6084 2.16314 17.5901 2.19262 17.5575C2.22333 17.5249 2.2393 17.4805 2.2393 17.4348V16.6294C2.3179 16.6855 2.40633 16.7247 2.49968 16.7469L2.71094 17.8564C2.72445 17.936 2.79077 17.9948 2.86815 17.9935H3.59771C3.62105 17.9856 3.64439 17.9739 3.66281 17.9556C3.68123 17.9413 3.69474 17.9217 3.70457 17.8995C3.7058 17.8851 3.7058 17.8708 3.70457 17.8564L3.91214 16.7704H20.0768L20.2844 17.8603L20.2831 17.859C20.2991 17.94 20.3642 17.9987 20.4404 18H21.1613C21.1847 17.9935 21.208 17.983 21.2264 17.9661C21.2436 17.9491 21.2584 17.9282 21.2682 17.906C21.2694 17.8917 21.2694 17.8773 21.2682 17.8629L21.4794 16.7638H21.4782C21.5802 16.7429 21.676 16.7012 21.7619 16.6398V17.4452C21.7607 17.4909 21.7767 17.5353 21.8074 17.5679C21.8381 17.6006 21.8786 17.6188 21.9216 17.6188H22.8366C22.8809 17.6188 22.9214 17.6006 22.9521 17.5679C22.9828 17.5353 23 17.4909 23 17.4452V12.3558C23 11.7971 22.6218 11.3206 22.1047 11.2266ZM2.22574 6.34337H5.2226V7.11875C5.20909 7.17227 5.21892 7.2284 5.24962 7.27147C5.28033 7.31455 5.32823 7.34066 5.37981 7.34066C5.4314 7.34066 5.4793 7.31455 5.51001 7.27147C5.54194 7.2284 5.55176 7.17227 5.53703 7.11875V6.34337H8.49584V7.11875C8.48233 7.17227 8.49216 7.2284 8.52286 7.27147C8.55357 7.31455 8.60147 7.34066 8.65305 7.34066C8.70464 7.34066 8.75254 7.31455 8.78324 7.27147C8.81395 7.2284 8.825 7.17227 8.81027 7.11875V6.34337H11.8071V7.11875C11.7924 7.17227 11.8022 7.2284 11.8329 7.27147C11.8649 7.31455 11.9128 7.34066 11.9643 7.34066C12.0147 7.34066 12.0638 7.31455 12.0945 7.27147C12.1252 7.2284 12.1351 7.17227 12.1216 7.11875V6.34337H15.1491V7.11875C15.1356 7.17227 15.1454 7.2284 15.1762 7.27147C15.2069 7.31455 15.2548 7.34066 15.3063 7.34066C15.3579 7.34066 15.4058 7.31455 15.4365 7.27147C15.4672 7.2284 15.4771 7.17227 15.4636 7.11875V6.34337H18.4604V7.11875C18.4457 7.17227 18.4555 7.2284 18.4862 7.27147C18.5181 7.31455 18.566 7.34066 18.6176 7.34066C18.668 7.34066 18.7171 7.31455 18.7478 7.27147C18.7785 7.2284 18.7884 7.17227 18.7748 7.11875V6.34337H21.784V8.60554L21.0164 8.60685C20.9463 8.62773 20.8972 8.69561 20.8972 8.77393C20.8972 8.85095 20.9463 8.91883 21.0164 8.94102H21.784V11.2032H19.3312C19.4049 11.0818 19.4454 10.9395 19.4442 10.7946V9.19816C19.443 8.79482 19.1568 8.45804 18.781 8.41627V8.32228C18.781 8.27659 18.765 8.23221 18.7343 8.19958C18.7048 8.16695 18.6631 8.14867 18.6201 8.14867C18.5304 8.14867 18.4567 8.22569 18.4567 8.32228V8.42932H15.4635V8.32228C15.4439 8.24788 15.3788 8.19566 15.3063 8.19566C15.2339 8.19566 15.1688 8.24788 15.1491 8.32228V8.4254H13.6175C13.2097 8.4254 12.8793 8.77785 12.8793 9.21124V10.8181C12.8781 10.963 12.9174 11.1053 12.9923 11.2267H12.1498V10.437C12.1633 10.3848 12.1534 10.3286 12.1227 10.2856C12.092 10.2412 12.0441 10.2164 11.9925 10.2164C11.941 10.2164 11.8931 10.2412 11.8611 10.2856C11.8304 10.3286 11.8206 10.3848 11.8353 10.437V11.2124H10.983C11.0554 11.091 11.0947 10.95 11.096 10.8051V9.19817C11.0947 8.76479 10.7643 8.41494 10.3578 8.41234H8.8323V8.32227C8.81756 8.24264 8.75124 8.18521 8.67509 8.18521C8.59894 8.18521 8.53262 8.24264 8.51788 8.32227V8.42539H5.54312V8.32227C5.55786 8.27006 5.54803 8.21392 5.5161 8.16954C5.48539 8.12647 5.43749 8.10036 5.38591 8.10036C5.33432 8.10036 5.28642 8.12647 5.25572 8.16954C5.22501 8.21392 5.21518 8.27006 5.22869 8.32227V8.43192C4.84057 8.45933 4.53843 8.80134 4.53721 9.21515V10.822C4.53598 10.9669 4.57528 11.1079 4.65021 11.2293H2.2257V8.95018H2.97491C3.04492 8.9293 3.09282 8.86142 3.09282 8.7831C3.09282 8.70608 3.04492 8.63821 2.97491 8.61601H2.2257L2.22574 6.34337ZM15.3065 11.2122H13.5772C13.3659 11.2122 13.1939 11.0308 13.1939 10.805V9.19806C13.1952 8.95396 13.3819 8.75685 13.6115 8.75685H18.7049C18.9346 8.75685 19.1213 8.95396 19.1237 9.19806V10.805C19.1237 11.0308 18.9518 11.2122 18.7405 11.2122H15.3065ZM8.66551 11.2122H5.23512C5.02386 11.2122 4.85189 11.0308 4.85189 10.805V9.19806C4.85189 8.95396 5.03735 8.75685 5.26703 8.75685H10.3579C10.4672 8.75685 10.5728 8.80254 10.6515 8.88608C10.7288 8.96832 10.7718 9.08058 10.7718 9.19806V10.805C10.7718 11.0308 10.6011 11.2122 10.3886 11.2122L8.66551 11.2122ZM3.41239 17.6527H2.98741L2.82037 16.7677H3.58188L3.41239 17.6527ZM21.0017 17.6527H20.5731L20.406 16.7677H21.1675L21.0017 17.6527ZM21.7816 15.9819H21.7804C21.7804 16.226 21.595 16.4244 21.3653 16.4257H2.64465C2.41497 16.4244 2.22951 16.226 2.22951 15.9819V12.9743C2.22951 12.7289 2.41497 12.5305 2.64465 12.5292H21.3653C21.595 12.5305 21.7804 12.7289 21.7804 12.9743L21.7816 15.9819ZM22.6954 17.265H22.1047V12.3557C22.1047 12.2617 22.0322 12.1847 21.9438 12.1847H2.06604C1.9776 12.1847 1.90514 12.2617 1.90514 12.3557V17.265H1.31436V12.3557C1.31436 12.1442 1.39297 11.9406 1.53422 11.7905C1.67669 11.6417 1.8683 11.5568 2.06849 11.5568H21.9437C22.3576 11.5581 22.6941 11.9158 22.6954 12.3557L22.6954 17.265Z" stroke="black" stroke-width="0.4" mask="url(#path-1-outside-1_1356_6544)"/>
</svg>
