<svg width="56" height="56" viewBox="0 0 56 56" fill="none" xmlns="http://www.w3.org/2000/svg">
<path d="M49.5174 13.0311C49.5174 23.7909 55.0909 31.1798 55.0909 36.3644C55.0909 41.5491 52.1105 52.438 28.2591 52.438C4.4078 52.438 0.90625 37.7893 0.90625 32.0867C0.90625 5.38244 49.5174 -6.02445 49.5174 13.0311Z" fill="white"/>
<path d="M39.2786 17.112C37.9922 17.112 36.9453 16.0651 36.9453 14.7786C36.9453 13.4922 37.9922 12.4453 39.2786 12.4453C40.5651 12.4453 41.612 13.4922 41.612 14.7786C41.612 16.0651 40.5651 17.112 39.2786 17.112ZM39.2786 14.0009C38.8509 14.0009 38.5009 14.3493 38.5009 14.7786C38.5009 15.208 38.8509 15.5564 39.2786 15.5564C39.7064 15.5564 40.0564 15.208 40.0564 14.7786C40.0564 14.3493 39.7064 14.0009 39.2786 14.0009Z" fill="#A4AFC1"/>
<path d="M18.4827 28.6405C18.3551 28.7789 18.2773 28.964 18.2773 29.1662C18.2773 29.5956 18.6258 29.944 19.0551 29.944H21.3885V36.1662C21.3885 37.0249 22.0853 37.7218 22.944 37.7218H33.0551C33.9138 37.7218 34.6107 37.0249 34.6107 36.1662V29.944H36.944C37.3733 29.944 37.7218 29.5956 37.7218 29.1662C37.7218 28.964 37.644 28.7789 37.5165 28.6405L27.9996 18.2773L18.4827 28.6405Z" fill="#B4D7D8"/>
<path d="M24.8885 36.1662V29.944H22.5551C22.1258 29.944 21.7773 29.5956 21.7773 29.1662C21.7773 28.964 21.8551 28.7789 21.9827 28.6405L29.7496 20.1829L27.9996 18.2773L18.4827 28.6405C18.3551 28.7789 18.2773 28.964 18.2773 29.1662C18.2773 29.5956 18.6258 29.944 19.0551 29.944H21.3885V36.1662C21.3885 37.0249 22.0853 37.7218 22.944 37.7218H26.444C25.5853 37.7218 24.8885 37.0249 24.8885 36.1662Z" fill="#B4D7D8"/>
<path d="M30.2847 14.4358L27.9981 12.1507L25.7114 14.4374L24.0625 12.7869L27.1736 9.67582C27.6294 9.22004 28.3683 9.22004 28.8241 9.67582L31.9352 12.7869L30.2847 14.4358Z" fill="black"/>
<path d="M43.2114 31.9352L41.5625 30.2863L43.8492 27.9996L41.5625 25.7129L43.2129 24.0625L46.3241 27.1736C46.7798 27.6294 46.7798 28.3683 46.3241 28.8241L43.2114 31.9352Z" fill="black"/>
<path d="M12.7889 31.9352L9.67777 28.8241C9.22199 28.3683 9.22199 27.6294 9.67777 27.1736L12.7889 24.0625L14.4378 25.7129L12.1527 27.9996L14.4393 30.2863L12.7889 31.9352Z" fill="black"/>
<path d="M27.9981 46.6663C27.6994 46.6663 27.4007 46.5527 27.1736 46.3241L24.0625 43.2129L25.7129 41.5625L27.9996 43.8492L30.2863 41.5625L31.9367 43.2129L28.8256 46.3241C28.5954 46.5527 28.2967 46.6663 27.9981 46.6663Z" fill="black"/>
<path d="M33.0538 38.8884H22.9427C21.4416 38.8884 20.2205 37.6673 20.2205 36.1662V31.1106H19.0538C17.982 31.1106 17.1094 30.238 17.1094 29.1662C17.1094 28.6777 17.2914 28.2111 17.6212 27.8517L27.138 17.4886C27.5814 17.0064 28.4136 17.0064 28.8569 17.4886L38.3738 27.8517C38.7052 28.208 38.8872 28.6762 38.8872 29.1662C38.8872 30.238 38.0145 31.1106 36.9427 31.1106H35.776V36.1662C35.776 37.6673 34.5549 38.8884 33.0538 38.8884ZM19.9389 28.7773H21.3872C22.0312 28.7773 22.5538 29.3 22.5538 29.944V36.1662C22.5538 36.3808 22.728 36.5551 22.9427 36.5551H33.0538C33.2685 36.5551 33.4427 36.3808 33.4427 36.1662V29.944C33.4427 29.3 33.9654 28.7773 34.6094 28.7773H36.0576L27.9983 20.0024L19.9389 28.7773Z" fill="black"/>
<path d="M32.668 20.2227H35.0013V24.1115H32.668V20.2227Z" fill="black"/>
</svg>
