<svg width="40" height="40" viewBox="0 0 40 40" fill="none" xmlns="http://www.w3.org/2000/svg">
<circle cx="20" cy="20" r="20" fill="#285260" fill-opacity="0.1"/>
<path d="M29.6857 24.6001C29.6627 24.4651 29.6348 24.3472 29.6058 24.2422C29.4308 23.6172 28.8867 23.1411 28.2197 23.0311L23.8877 22.3101C23.2497 22.2031 22.6107 22.4501 22.2187 22.9521C22.1647 23.0211 22.1128 23.0911 22.0648 23.1621C21.9938 23.2661 21.8528 23.3631 21.6998 23.2961C19.4528 22.3191 17.6788 20.5451 16.7028 18.2981C16.6348 18.1431 16.7297 18.0071 16.8317 17.9381C16.9267 17.8741 17.0187 17.8051 17.1077 17.7331C17.5947 17.3391 17.8368 16.7091 17.7388 16.0881L17.0677 11.8331C16.9647 11.1811 16.5178 10.6481 15.8998 10.4441C15.7548 10.3961 15.5868 10.3521 15.3918 10.3171C14.1258 10.0911 12.8307 10.4491 11.8357 11.3031C10.7927 12.1991 10.2147 13.5011 10.2527 14.8731C10.4717 22.9951 17.0037 29.5282 25.1257 29.7472C25.1667 29.7482 25.2078 29.7491 25.2488 29.7491C26.5658 29.7491 27.8107 29.1791 28.6797 28.1731C29.5407 27.1761 29.9077 25.8731 29.6857 24.6001ZM27.5428 27.1931C26.9418 27.8881 26.0677 28.2591 25.1647 28.2491C17.8407 28.0511 11.9487 22.1581 11.7507 14.8331C11.7267 13.9141 12.1127 13.0421 12.8127 12.4411C13.3417 11.9871 13.9727 11.7491 14.6307 11.7491C14.7947 11.7491 14.9608 11.7641 15.1268 11.7931C15.2428 11.8141 15.3417 11.8391 15.4277 11.8681C15.5107 11.8951 15.5717 11.9721 15.5867 12.0671L16.2577 16.3221C16.2727 16.4151 16.2368 16.5091 16.1658 16.5661C16.1078 16.6131 16.0487 16.6571 15.9877 16.6981C15.2537 17.1971 14.9818 18.1011 15.3268 18.8961C16.4548 21.4921 18.5058 23.5431 21.1008 24.6711C21.8928 25.0151 22.7988 24.7442 23.3038 24.0072C23.3338 23.9642 23.3647 23.9212 23.3987 23.8772C23.4527 23.8082 23.5468 23.7752 23.6418 23.7892L27.9737 24.5101C28.0657 24.5261 28.1427 24.5821 28.1617 24.6471C28.1797 24.7091 28.1947 24.7781 28.2087 24.8571C28.3527 25.6851 28.1098 26.5361 27.5428 27.1931Z" fill="#285260"/>
</svg>
