<svg width="18" height="18" viewBox="0 0 20 20" fill="white" xmlns="http://www.w3.org/2000/svg">
<path d="M11.8853 9.99964L18.9427 2.94227C19.464 2.42227 19.464 1.57702 18.9427 1.05702C18.4213 0.535682 17.5787 0.535682 17.0573 1.05702L9.99999 8.11431L2.94266 1.05702C2.42132 0.535682 1.57865 0.535682 1.05732 1.05702C0.535987 1.57702 0.535987 2.42227 1.05732 2.94227L8.11465 9.99964L1.05732 17.057C0.535987 17.577 0.535987 18.4223 1.05732 18.9423C1.31732 19.2023 1.65866 19.333 1.99999 19.333C2.34132 19.333 2.68266 19.2023 2.94266 18.9423L9.99999 11.885L17.0573 18.9423C17.3173 19.2023 17.6587 19.333 18 19.333C18.3413 19.333 18.6827 19.2023 18.9427 18.9423C19.464 18.4223 19.464 17.577 18.9427 17.057L11.8853 9.99964Z" fill="##FFFFFF"/>
</svg>
