<svg width="56" height="40" viewBox="0 0 56 40" fill="none" xmlns="http://www.w3.org/2000/svg">
<mask id="path-1-inside-1_1020_3906" fill="white">
<path d="M46.6227 19.7167C46.9438 19.7167 47.2057 19.9772 47.1881 20.2978C47.0231 23.2963 45.5845 26.1831 43.0713 28.5335C40.3961 31.0354 36.663 32.7804 32.4867 33.481C28.3104 34.1817 23.94 33.7962 20.0953 32.3881C16.2506 30.98 13.1609 28.6332 11.3351 25.7343C9.50927 22.8354 9.05619 19.5572 10.0505 16.4397C11.0448 13.3222 13.4272 10.5513 16.8053 8.58325C20.1833 6.61525 24.3556 5.56756 28.635 5.61273C32.6808 5.65543 36.5942 6.67255 39.8002 8.50607C40.0774 8.6646 40.1127 9.04587 39.8764 9.26062C39.718 9.40454 39.4838 9.42568 39.2995 9.31701C36.254 7.52176 32.5013 6.52432 28.6186 6.48333C24.6034 6.44095 20.6886 7.42397 17.5191 9.27049C14.3495 11.117 12.1142 13.7169 11.1813 16.642C10.2484 19.5671 10.6735 22.6429 12.3866 25.3628C14.0997 28.0828 16.9987 30.2847 20.606 31.6059C24.2134 32.9271 28.314 33.2888 32.2325 32.6314C36.1511 31.974 39.6538 30.3367 42.1638 27.9893C44.5118 25.7933 45.8602 23.0983 46.0244 20.2977C46.0432 19.9772 46.3017 19.7167 46.6227 19.7167Z"/>
</mask>
<path d="M46.6227 19.7167C46.9438 19.7167 47.2057 19.9772 47.1881 20.2978C47.0231 23.2963 45.5845 26.1831 43.0713 28.5335C40.3961 31.0354 36.663 32.7804 32.4867 33.481C28.3104 34.1817 23.94 33.7962 20.0953 32.3881C16.2506 30.98 13.1609 28.6332 11.3351 25.7343C9.50927 22.8354 9.05619 19.5572 10.0505 16.4397C11.0448 13.3222 13.4272 10.5513 16.8053 8.58325C20.1833 6.61525 24.3556 5.56756 28.635 5.61273C32.6808 5.65543 36.5942 6.67255 39.8002 8.50607C40.0774 8.6646 40.1127 9.04587 39.8764 9.26062C39.718 9.40454 39.4838 9.42568 39.2995 9.31701C36.254 7.52176 32.5013 6.52432 28.6186 6.48333C24.6034 6.44095 20.6886 7.42397 17.5191 9.27049C14.3495 11.117 12.1142 13.7169 11.1813 16.642C10.2484 19.5671 10.6735 22.6429 12.3866 25.3628C14.0997 28.0828 16.9987 30.2847 20.606 31.6059C24.2134 32.9271 28.314 33.2888 32.2325 32.6314C36.1511 31.974 39.6538 30.3367 42.1638 27.9893C44.5118 25.7933 45.8602 23.0983 46.0244 20.2977C46.0432 19.9772 46.3017 19.7167 46.6227 19.7167Z" fill="#666666" fill-opacity="0.6" stroke="#666666" stroke-opacity="0.6" stroke-width="6" mask="url(#path-1-inside-1_1020_3906)"/>
<path d="M47.014 12.1885L28.7446 20.5636L9.91016 26.9551L27.6145 18.8004L47.014 12.1885Z" fill="#666666" fill-opacity="0.6"/>
<path d="M46.0411 29.7013L28.0618 20.5065L10.8817 9.44156L28.3282 18.3247L46.0411 29.7013Z" fill="#666666" fill-opacity="0.6"/>
<path d="M28.7473 20.5636L27.6172 18.8004L47.0167 12.1885L28.7473 20.5636Z" fill="#222222"/>
<path d="M53.4301 4.73145V12.0522H51.7214L49.7325 6.24425C49.8048 6.90015 49.9133 7.85227 49.9133 9.20639V12.0522H48.7109V4.73145H50.3834L52.4085 10.5499C52.3452 10.0527 52.2277 9.03712 52.2277 7.94748V4.73145H53.4301Z" fill="#222222"/>
<path d="M52.4447 26.7705L52.3 27.9025H50.0399V29.8067H52.0107V30.9281H50.0399V32.9487H52.4628V34.0912H48.7109V26.7705H52.4447Z" fill="#666666" fill-opacity="0.6"/>
<path d="M9.36803 4.73145L8.27413 12.0522H6.54739L5.6795 6.32888L4.7664 12.0522H3.08486L2 4.73145H3.32896L4.04316 10.8461L4.99242 4.73145H6.3937L7.30679 10.8461L8.1114 4.73145H9.36803Z" fill="#666666" fill-opacity="0.6"/>
<path d="M5.9578 26.3301C6.88897 26.3301 7.52181 26.658 8.06424 27.2505L7.4314 28.1074C6.98842 27.6842 6.55447 27.4938 6.0482 27.4938C5.50577 27.4938 5.13511 27.7688 5.13511 28.2872C5.13511 28.795 5.37016 29.0066 6.39174 29.3768C7.52181 29.8 8.24505 30.3501 8.24505 31.7042C8.24505 33.0478 7.341 33.9893 5.82219 33.9893C4.78253 33.9893 4.02312 33.5556 3.50781 32.9631L4.18585 32.0851C4.64692 32.54 5.14415 32.815 5.78603 32.815C6.4279 32.815 6.86185 32.4554 6.86185 31.81C6.86185 31.2282 6.61776 30.9743 5.6685 30.6358C4.31242 30.1385 3.76999 29.5038 3.76999 28.393C3.76999 27.1447 4.69212 26.3301 5.9578 26.3301Z" fill="#666666" fill-opacity="0.6"/>
</svg>
