<svg width="72" height="72" viewBox="0 0 72 72" fill="none" xmlns="http://www.w3.org/2000/svg">
<circle cx="36" cy="36" r="36" fill="#101010" fill-opacity="0.6"/>
<mask id="path-2-inside-1_240_670" fill="white">
<path d="M54.9079 36.1454C55.2289 36.1454 55.4909 36.4059 55.4732 36.7265C55.3082 39.725 53.8696 42.6118 51.3564 44.9622C48.6813 47.4641 44.9481 49.2091 40.7718 49.9097C36.5955 50.6104 32.2251 50.2249 28.3804 48.8168C24.5358 47.4087 21.4461 45.0619 19.6202 42.163C17.7944 39.2641 17.3414 35.9859 18.3357 32.8684C19.33 29.7509 21.7123 26.98 25.0904 25.012C28.4685 23.044 32.6408 21.9963 36.9202 22.0414C40.966 22.0841 44.8794 23.1013 48.0854 24.9348C48.3626 25.0933 48.3979 25.4746 48.1615 25.6893C48.0031 25.8332 47.769 25.8544 47.5846 25.7457C44.5392 23.9505 40.7865 22.953 36.9038 22.912C32.8886 22.8697 28.9738 23.8527 25.8042 25.6992C22.6347 27.5457 20.3994 30.1456 19.4664 33.0707C18.5335 35.9958 18.9586 39.0716 20.6717 41.7916C22.3849 44.5115 25.2838 46.7134 28.8912 48.0346C32.4986 49.3558 36.5992 49.7175 40.5177 49.0601C44.4362 48.4027 47.9389 46.7654 50.4489 44.418C52.797 42.222 54.1453 39.527 54.3096 36.7264C54.3284 36.4059 54.5868 36.1454 54.9079 36.1454Z"/>
</mask>
<path d="M54.9079 36.1454C55.2289 36.1454 55.4909 36.4059 55.4732 36.7265C55.3082 39.725 53.8696 42.6118 51.3564 44.9622C48.6813 47.4641 44.9481 49.2091 40.7718 49.9097C36.5955 50.6104 32.2251 50.2249 28.3804 48.8168C24.5358 47.4087 21.4461 45.0619 19.6202 42.163C17.7944 39.2641 17.3414 35.9859 18.3357 32.8684C19.33 29.7509 21.7123 26.98 25.0904 25.012C28.4685 23.044 32.6408 21.9963 36.9202 22.0414C40.966 22.0841 44.8794 23.1013 48.0854 24.9348C48.3626 25.0933 48.3979 25.4746 48.1615 25.6893C48.0031 25.8332 47.769 25.8544 47.5846 25.7457C44.5392 23.9505 40.7865 22.953 36.9038 22.912C32.8886 22.8697 28.9738 23.8527 25.8042 25.6992C22.6347 27.5457 20.3994 30.1456 19.4664 33.0707C18.5335 35.9958 18.9586 39.0716 20.6717 41.7916C22.3849 44.5115 25.2838 46.7134 28.8912 48.0346C32.4986 49.3558 36.5992 49.7175 40.5177 49.0601C44.4362 48.4027 47.9389 46.7654 50.4489 44.418C52.797 42.222 54.1453 39.527 54.3096 36.7264C54.3284 36.4059 54.5868 36.1454 54.9079 36.1454Z" stroke="white" stroke-opacity="0.6" stroke-width="6" mask="url(#path-2-inside-1_240_670)"/>
<path d="M55.2992 28.6171L37.0298 36.9922L18.1953 43.3837L35.8997 35.229L55.2992 28.6171Z" fill="white" fill-opacity="0.6"/>
<path d="M54.3282 46.13L36.3489 36.9352L19.1688 25.8703L36.6153 34.7534L54.3282 46.13Z" fill="white" fill-opacity="0.6"/>
<path d="M37.0305 36.9923L35.9004 35.2291L55.2999 28.6172L37.0305 36.9923Z" fill="white"/>
<path d="M61.7133 21.1602V28.4809H60.0046L58.0157 22.673C58.088 23.3289 58.1965 24.281 58.1965 25.6351V28.4809H56.9941V21.1602H58.6666L60.6917 26.9786C60.6284 26.4814 60.5109 25.4658 60.5109 24.3762V21.1602H61.7133Z" fill="white"/>
<path d="M60.7279 43.1992L60.5832 44.3312H58.3231V46.2354H60.2939V47.3568H58.3231V49.3774H60.746V50.5199H56.9941V43.1992H60.7279Z" fill="white" fill-opacity="0.6"/>
<path d="M17.6532 21.16L16.5593 28.4807H14.8325L13.9647 22.7574L13.0516 28.4807H11.37L10.2852 21.16H11.6141L12.3283 27.2747L13.2776 21.16H14.6789L15.5919 27.2747L16.3966 21.16H17.6532Z" fill="white" fill-opacity="0.6"/>
<path d="M14.243 42.7588C15.1741 42.7588 15.807 43.0867 16.3494 43.6792L15.7166 44.5361C15.2736 44.1129 14.8396 43.9225 14.3334 43.9225C13.7909 43.9225 13.4203 44.1975 13.4203 44.7159C13.4203 45.2237 13.6553 45.4353 14.6769 45.8056C15.807 46.2287 16.5302 46.7788 16.5302 48.1329C16.5302 49.4765 15.6262 50.418 14.1073 50.418C13.0677 50.418 12.3083 49.9843 11.793 49.3919L12.471 48.5138C12.9321 48.9687 13.4293 49.2437 14.0712 49.2437C14.7131 49.2437 15.147 48.8841 15.147 48.2387C15.147 47.6569 14.9029 47.403 13.9537 47.0645C12.5976 46.5672 12.0551 45.9325 12.0551 44.8217C12.0551 43.5734 12.9773 42.7588 14.243 42.7588Z" fill="white" fill-opacity="0.6"/>
</svg>
