<svg width="110" height="110" viewBox="0 0 110 110" fill="none" xmlns="http://www.w3.org/2000/svg">
<path d="M38.626 98.8993C38.973 97.4708 40.1043 96.55 42.9339 97.238C46.2804 98.0516 46.9133 99.776 46.368 102.021L45.2525 101.749C45.8011 99.4911 44.7159 98.6798 42.7026 98.1903C41.0701 97.7934 40.0356 97.9597 39.7548 99.1161C39.4045 100.558 41.0186 101.268 42.4299 102.101C44.1853 103.118 45.4304 103.983 45.0173 105.683C44.6604 107.153 43.4084 107.799 41.0414 107.224C38.2118 106.536 37.6656 104.573 38.0457 103.008L39.1612 103.28C38.7679 104.899 39.8035 105.914 41.2727 106.271C42.5923 106.592 43.6407 106.487 43.8952 105.439C44.1397 104.433 43.3822 103.874 41.9265 102.987C40.1913 101.945 38.1402 100.899 38.626 98.8993Z" fill="white"/>
<path d="M36.1681 100.292C34.918 102.876 32.4108 104.104 29.8026 102.84C27.5347 101.742 26.7065 99.6607 27.5029 97.3398L28.5361 97.8402C27.9206 99.6265 28.4907 101.116 30.2295 101.958C32.2959 102.959 34.0983 101.934 35.1349 99.7918C36.1777 97.6368 35.8633 95.5867 33.7969 94.5859C32.0581 93.7437 30.5306 94.2328 29.5118 95.8238L28.4786 95.3234C29.8104 93.2462 31.9558 92.6053 34.2238 93.7038C36.832 94.967 37.4243 97.6962 36.1681 100.292Z" fill="white"/>
<path d="M28.8237 90.414L29.7281 91.1211L23.6525 98.8995L21.0716 96.8818C19.2187 95.4331 18.3747 94.0802 19.7363 92.337C20.6498 91.1674 21.6614 91.1231 22.6117 91.635L22.8185 91.3702L21.8921 90.6459C21.4509 90.301 21.4123 89.9865 21.7312 89.5783L24.0149 86.6545L24.9193 87.3615L22.4805 90.4839L26.3849 93.5364L28.8237 90.414ZM23.3514 97.4201L25.7816 94.3087L24.1051 92.9981C22.7816 91.9633 21.8731 91.4663 20.7613 92.8896C19.641 94.3239 20.3514 95.0747 21.6749 96.1094L23.3514 97.4201Z" fill="white"/>
<path d="M19.2036 88.5112C16.9997 90.3496 14.2184 90.4455 12.354 88.2085C10.5076 85.9931 11.102 83.273 13.3059 81.4346C15.5205 79.5872 18.3018 79.4913 20.1483 81.7068C22.0126 83.9437 21.4182 86.6638 19.2036 88.5112ZM18.4686 87.6293C20.2855 86.1137 20.8925 84.1306 19.3957 82.3345C17.9078 80.5493 15.8577 80.8009 14.0408 82.3165C12.2347 83.8231 11.6187 85.7955 13.1066 87.5808C14.6034 89.3768 16.6625 89.1359 18.4686 87.6293Z" fill="white"/>
<path d="M14.1992 72.0519L16.8278 76.6147C17.1 77.0882 16.9634 77.5125 16.4957 77.7658L8.43268 82.1336L7.88626 81.124L15.8262 76.8229L13.3375 72.5187L14.1992 72.0519Z" fill="white"/>
<path d="M11.8353 64.5515L13.6138 69.5079C13.7978 70.0222 13.5882 70.4155 13.0829 70.5819L4.37324 73.4508L4.01437 72.3604L12.5911 69.5353L10.9045 64.8581L11.8353 64.5515Z" fill="white"/>
<path d="M1.17584 53.6365C1.20227 51.2427 1.91637 48.7022 6.15812 48.7479C10.4139 48.7938 11.0717 51.349 11.0453 53.7429L11.0106 56.8787L1.14122 56.7723L1.17584 53.6365ZM10.0434 55.7202L10.0653 53.7323C10.0846 51.9824 9.79923 49.9352 6.14545 49.8958C2.50566 49.8566 2.17511 51.8972 2.15579 53.6471L2.13384 55.635L10.0434 55.7202Z" fill="white"/>
<path d="M6.69171 46.9288C3.89307 46.2928 2.12791 44.1401 2.77268 41.3004C3.41125 38.488 5.93278 37.3094 8.73142 37.9455C11.5437 38.5846 13.3089 40.7373 12.6703 43.5497C12.0255 46.3894 9.504 47.5679 6.69171 46.9288ZM6.9459 45.8093C9.25307 46.3336 11.197 45.6125 11.7147 43.3325C12.2292 41.0662 10.7844 39.5893 8.47723 39.065C6.18371 38.5437 4.24289 39.2512 3.72831 41.5175C3.21063 43.7975 4.65238 45.2881 6.9459 45.8093Z" fill="white"/>
<path d="M14.7035 37.3022L4.95407 34.7021L5.44854 33.7285L14.8792 36.2451L15.025 35.958L7.42007 29.8464L8.49775 27.7244L17.9158 30.2659L18.0616 29.9788L10.4693 23.8423L10.9637 22.8687L18.8114 29.2135L17.7464 31.3106L8.32202 28.7815L8.16988 29.0811L15.7685 35.2051L14.7035 37.3022Z" fill="white"/>
<path d="M20.8726 27.2921L20.1186 28.1577L12.6791 21.6715L14.2055 19.9191L24.6299 22.4883L24.8414 22.2455L24.0993 21.8399L17.5251 16.1082L18.2792 15.2425L25.7186 21.7287L24.1922 23.4811L13.7678 20.9119L13.5563 21.1547L14.2984 21.5603L20.8726 27.2921Z" fill="white"/>
<path d="M37.384 11.7066C38.0942 12.9937 37.8836 14.4375 35.3345 15.8454C32.3198 17.5105 30.6879 16.6686 29.5719 14.6461L30.5768 14.091C31.6996 16.1258 33.0473 15.9891 34.8611 14.9874C36.3316 14.1751 36.9811 13.3526 36.4061 12.3107C35.6891 11.0114 34.0207 11.5811 32.4182 11.9224C30.4374 12.3607 28.9359 12.5663 28.0904 11.0341C27.3599 9.7103 27.8448 8.38687 29.9772 7.2091C32.5262 5.80119 34.2553 6.87732 35.0332 8.28694L34.0283 8.84198C33.2234 7.38333 31.7742 7.3361 30.4506 8.06713C29.2619 8.7237 28.5609 9.51073 29.0818 10.4546C29.5823 11.3616 30.518 11.2606 32.1898 10.929C34.1718 10.522 36.3897 9.90476 37.384 11.7066Z" fill="white"/>
<path d="M38.253 9.01616C37.4272 6.26752 38.4438 3.66659 41.2191 2.83206C43.6323 2.10639 45.6494 3.07873 46.6318 5.32705L45.5325 5.65764C44.7782 3.92548 43.3512 3.21427 41.501 3.77062C39.3023 4.43179 38.6676 6.40622 39.3523 8.68557C40.0412 10.9783 41.6588 12.2755 43.8575 11.6143C45.7077 11.0579 46.5022 9.66409 46.177 7.80292L47.2763 7.47233C47.6997 9.90339 46.5527 11.8272 44.1395 12.5528C41.3643 13.3874 39.0828 11.7782 38.253 9.01616Z" fill="white"/>
<path d="M50.3411 11.3205L49.1967 11.4117L48.4131 1.57286L51.6787 1.31252C54.0233 1.12561 55.5599 1.55085 55.7355 3.75586C55.8533 5.23518 55.138 5.95229 54.0918 6.21827L54.1185 6.55321L55.2908 6.45976C55.849 6.41525 56.0901 6.62075 56.1312 7.13711L56.4258 10.8354L55.2814 10.9266L54.9668 6.97714L50.0265 7.37098L50.3411 11.3205ZM49.6352 2.45854L49.9487 6.39408L52.07 6.22497C53.7446 6.09146 54.7501 5.84277 54.6067 4.04248C54.4622 2.22822 53.4312 2.15592 51.7565 2.28943L49.6352 2.45854Z" fill="white"/>
<path d="M58.7135 6.21256C59.0937 3.36786 61.0779 1.41574 63.9641 1.80191C66.8227 2.18436 68.2244 4.58949 67.8441 7.43419C67.462 10.2928 65.4779 12.2449 62.6193 11.8624C59.733 11.4763 58.3314 9.07113 58.7135 6.21256ZM59.8513 6.3648C59.5378 8.70994 60.4318 10.581 62.7492 10.8911C65.0526 11.1993 66.3928 9.62709 66.7062 7.28195C67.0179 4.95068 66.1378 3.08146 63.8343 2.77327C61.5169 2.46322 60.163 4.03353 59.8513 6.3648Z" fill="white"/>
<path d="M73.5299 14.9483L68.5075 13.3658C67.9867 13.2011 67.8004 12.7963 67.9735 12.2933L70.9585 3.62272L72.0439 3.99672L69.1045 12.5349L73.8489 14.0217L73.5299 14.9483Z" fill="white"/>
<path d="M80.3422 18.8736L75.68 16.4256C75.1967 16.1713 75.085 15.7398 75.3445 15.2754L79.8187 7.27101L80.8206 7.83152L76.4147 15.7137L80.8204 18.0181L80.3422 18.8736Z" fill="white"/>
<path d="M95.5704 19.7018C97.1699 21.483 98.3621 23.8374 95.2072 26.6731C92.0419 29.5181 89.8293 28.0809 88.2298 26.2997L86.1345 23.9664L93.4751 17.3685L95.5704 19.7018ZM87.6304 24.1654L88.9586 25.6446C90.1279 26.9466 91.7226 28.2615 94.4402 25.8189C97.1474 23.3857 96.0108 21.659 94.8415 20.3569L93.5133 18.8778L87.6304 24.1654Z" fill="white"/>
<path d="M96.042 28.3747C98.5331 26.9495 101.289 27.3408 102.734 29.8689C104.165 32.3728 103.105 34.9471 100.613 36.3723C98.1102 37.8045 95.3548 37.4132 93.9236 34.9093C92.4785 32.3812 93.5387 29.8068 96.042 28.3747ZM96.6117 29.3713C94.558 30.5463 93.614 32.3929 94.7742 34.4227C95.9275 36.4403 97.9901 36.5506 100.044 35.3757C102.085 34.2077 103.036 32.3732 101.883 30.3556C100.723 28.3258 98.6532 28.2034 96.6117 29.3713Z" fill="white"/>
<path d="M96.6479 40.8869L105.587 36.2047L105.881 37.2563L97.2332 41.7844L97.3199 42.0945L107.054 41.4495L107.695 43.7416L99.0389 48.2428L99.1256 48.5529L108.867 47.9348L109.161 48.9865L99.0907 49.6239L98.4574 47.3588L107.109 42.8441L107.019 42.5206L97.2812 43.1521L96.6479 40.8869Z" fill="white"/>
<path d="M98.8702 52.4341L98.8404 51.2865L108.707 51.0296L108.767 53.3529L99.3504 58.5137L99.3588 58.8355L100.18 58.6321L108.899 58.4051L108.929 59.5528L99.062 59.8096L99.0016 57.4864L108.419 52.3256L108.41 52.0037L107.589 52.2071L98.8702 52.4341Z" fill="white"/>
<path d="M97.2462 75.0836C95.8525 74.6161 95.0311 73.4103 95.9565 70.6492C97.0509 67.3838 98.8224 66.9 101.012 67.6347L100.648 68.7232C98.4443 67.9841 97.544 68.9963 96.8856 70.9609C96.3517 72.5538 96.4297 73.5989 97.5579 73.9773C98.9648 74.4493 99.8085 72.9012 100.758 71.5659C101.921 69.9033 102.888 68.7363 104.547 69.2928C105.98 69.7737 106.518 71.0764 105.744 73.3861C104.819 76.1472 102.817 76.5242 101.291 76.0122L101.656 74.9237C103.235 75.4535 104.334 74.5081 104.815 73.0745C105.246 71.7869 105.231 70.7331 104.208 70.3902C103.226 70.0607 102.605 70.768 101.598 72.1431C100.414 73.7835 99.1973 75.7382 97.2462 75.0836Z" fill="white"/>
<path d="M98.4252 77.6556C100.892 79.1217 101.903 81.7253 100.423 84.2172C99.137 86.3841 96.9938 87.0322 94.7496 86.0405L95.3356 85.0534C97.0627 85.8192 98.5947 85.3778 99.581 83.7166C100.753 81.7423 99.8852 79.8586 97.8392 78.6427C95.7811 77.4197 93.7125 77.5584 92.5403 79.5327C91.554 81.1939 91.9116 82.7581 93.41 83.9091L92.8239 84.8962C90.8678 83.3918 90.4114 81.1989 91.6979 79.032C93.1773 76.5401 95.946 76.1823 98.4252 77.6556Z" fill="white"/>
<path d="M87.9637 84.137L88.7447 83.2957L95.9754 90.0138L93.7466 92.4148C92.1465 94.1386 90.7274 94.8649 89.1069 93.3592C88.0197 92.3491 88.0615 91.3369 88.652 90.4332L88.4059 90.2045L87.6058 91.0664C87.2248 91.4768 86.9083 91.4885 86.5289 91.136L83.8109 88.6107L84.5919 87.7693L87.4945 90.4661L90.8662 86.8338L87.9637 84.137ZM94.4764 90.1881L91.5842 87.5009L90.1364 89.0605C88.9935 90.2918 88.4212 91.1552 89.7443 92.3844C91.0776 93.6232 91.8857 92.979 93.0287 91.7478L94.4764 90.1881Z" fill="white"/>
<path d="M85.2515 93.5664C86.8949 95.9193 86.7536 98.6999 84.367 100.368C82.0033 102.021 79.3449 101.197 77.7015 98.8445C76.0501 96.4801 76.1914 93.6995 78.5551 92.0471C80.9417 90.3786 83.6001 91.202 85.2515 93.5664ZM84.3106 94.2242C82.9558 92.2844 81.0324 91.5109 79.1162 92.8505C77.2115 94.1821 77.2876 96.247 78.6424 98.1867C79.9891 100.115 81.9011 100.896 83.8058 99.5649C85.722 98.2254 85.6574 96.1524 84.3106 94.2242Z" fill="white"/>
<path d="M68.4329 97.1586L73.202 94.9257C73.6968 94.6946 74.1078 94.8666 74.3203 95.3543L77.9837 103.761L76.9315 104.22L73.324 95.9416L68.8244 98.057L68.4329 97.1586Z" fill="white"/>
<path d="M60.7611 98.8786L65.8505 97.5267C66.3785 97.387 66.7525 97.6291 66.8753 98.1468L68.9912 107.069L67.8743 107.334L65.7906 98.5481L60.9873 99.8322L60.7611 98.8786Z" fill="white"/>
</svg>
