<svg width="40" height="41" viewBox="0 0 40 41" fill="none" xmlns="http://www.w3.org/2000/svg">
<g filter="url(#filter0_i_705_1963)">
<rect y="0.5" width="40" height="40" rx="8" fill="#F4EDE6" fill-opacity="0.2"/>
<g clip-path="url(#clip0_705_1963)">
<path d="M20 8.5C13.3726 8.5 8 13.8726 8 20.5C8 26.1275 11.8746 30.8498 17.1013 32.1467V24.1672H14.6269V20.5H17.1013V18.9198C17.1013 14.8355 18.9498 12.9424 22.9597 12.9424C23.72 12.9424 25.0318 13.0917 25.5685 13.2405V16.5645C25.2853 16.5347 24.7933 16.5198 24.1822 16.5198C22.2147 16.5198 21.4544 17.2653 21.4544 19.203V20.5H25.3741L24.7006 24.1672H21.4544V32.4122C27.3963 31.6946 32.0005 26.6354 32.0005 20.5C32 13.8726 26.6274 8.5 20 8.5Z" fill="white"/>
</g>
</g>
<defs>
<filter id="filter0_i_705_1963" x="-8.6" y="-8.1" width="57.2" height="57.2" filterUnits="userSpaceOnUse" color-interpolation-filters="sRGB">
<feFlood flood-opacity="0" result="BackgroundImageFix"/>
<feBlend mode="normal" in="SourceGraphic" in2="BackgroundImageFix" result="shape"/>
<feColorMatrix in="SourceAlpha" type="matrix" values="0 0 0 0 0 0 0 0 0 0 0 0 0 0 0 0 0 0 127 0" result="hardAlpha"/>
<feOffset dy="4"/>
<feGaussianBlur stdDeviation="12.45"/>
<feComposite in2="hardAlpha" operator="arithmetic" k2="-1" k3="1"/>
<feColorMatrix type="matrix" values="0 0 0 0 1 0 0 0 0 1 0 0 0 0 1 0 0 0 0.5 0"/>
<feBlend mode="normal" in2="shape" result="effect1_innerShadow_705_1963"/>
</filter>
<clipPath id="clip0_705_1963">
<rect width="24" height="24" fill="white" transform="translate(8 8.5)"/>
</clipPath>
</defs>
</svg>
