<svg width="24" height="24" viewBox="0 0 24 24" fill="none" xmlns="http://www.w3.org/2000/svg">
<path d="M8.64765 20.4237V21.8205C8.64765 22.1947 8.49224 22.5342 8.24384 22.7794L8.24009 22.7831L8.24 22.783L8.22225 22.7988C7.97512 23.0322 7.64053 23.1766 7.27431 23.1766C6.89836 23.1766 6.5543 23.0238 6.30506 22.7788C6.05536 22.5343 5.9 22.1937 5.9 21.8195V6.88643C5.9 6.66473 6.08222 6.48801 6.30228 6.48801C6.52369 6.48801 6.70456 6.66607 6.70456 6.88643V21.8195C6.70456 21.9722 6.76833 22.113 6.87129 22.2146C6.97427 22.3163 7.11747 22.3798 7.27334 22.3798C7.42343 22.3798 7.56093 22.322 7.66393 22.2277L7.67374 22.2173L7.67628 22.2146L7.67633 22.2146C7.77929 22.113 7.84306 21.9722 7.84306 21.8195V2.33471C7.84306 2.18203 7.77929 2.04125 7.67633 1.9396C7.57335 1.83793 7.43015 1.77446 7.27428 1.77446C7.12419 1.77446 6.98669 1.83227 6.88369 1.92652L6.87388 1.93695L6.87134 1.93965L6.87129 1.9396C6.76833 2.04125 6.70456 2.18203 6.70456 2.33471L6.70456 4.95148C6.70456 4.95162 6.70456 4.95175 6.70456 4.95189C6.70456 4.95196 6.70456 4.95203 6.70456 4.9521V4.95244L8.64765 20.4237ZM8.64765 20.4237H16.3523V21.8205C16.3523 22.1946 16.5077 22.5352 16.7574 22.7797C17.0066 23.0247 17.3507 23.1776 17.7267 23.1776C18.0929 23.1776 18.4275 23.0331 18.6746 22.7997L18.6923 22.784L18.6924 22.7841L18.6962 22.7804C18.9446 22.5351 19.1 22.1956 19.1 21.8214V2.33561C19.1 1.96149 18.9447 1.62095 18.6951 1.37646C18.4458 1.13143 18.1017 0.978504 17.7257 0.978504C17.3595 0.978504 17.0249 1.12297 16.7777 1.35636L16.76 1.37212L16.7599 1.37202L16.7562 1.37571C16.5078 1.62096 16.3523 1.96043 16.3523 2.33468V3.73143H8.64765V2.33468C8.64765 1.96055 8.49234 1.62001 8.2427 1.37552C7.99345 1.13049 7.64935 0.977576 7.27335 0.977576C6.90712 0.977576 6.57252 1.12204 6.32539 1.35543L8.64765 20.4237ZM18.1277 22.2141L18.1277 22.2141L18.1251 22.2168L18.1153 22.2272C18.0123 22.3215 17.8748 22.3793 17.7247 22.3793C17.5688 22.3793 17.4256 22.3158 17.3227 22.2141C17.2197 22.1125 17.1559 21.9717 17.1559 21.819V18.9478C17.1559 18.7274 16.9751 18.5494 16.7537 18.5494C16.5336 18.5494 16.3514 18.7261 16.3514 18.9478V19.6255H8.64668V16.4467H16.3514V17.0116C16.3514 17.232 16.5322 17.4101 16.7537 17.4101C16.9737 17.4101 17.1559 17.2333 17.1559 17.0116V2.33325C17.1559 2.18057 17.2197 2.03979 17.3227 1.93814L17.3227 1.93819L17.3252 1.93549L17.3351 1.92506C17.4381 1.83082 17.5756 1.77301 17.7256 1.77301C17.8815 1.77301 18.0247 1.83648 18.1277 1.93814C18.2307 2.03979 18.2944 2.18057 18.2944 2.33325V21.819C18.2944 21.9717 18.2307 22.1125 18.1277 22.2141ZM16.3514 7.70429H8.64668V4.52739H16.3514V7.70429ZM16.3514 11.678H8.64668V8.50113H16.3514V11.678ZM16.3514 15.6518H8.64668V12.4749H16.3514V15.6518ZM16.7537 18.4415C16.9737 18.4415 17.1559 18.2648 17.1559 18.0431V17.9172C17.1559 17.6968 16.9751 17.5188 16.7537 17.5188C16.5336 17.5188 16.3514 17.6955 16.3514 17.9172V18.0431C16.3514 18.2635 16.5322 18.4415 16.7537 18.4415ZM6.30233 6.3799C6.52239 6.3799 6.7046 6.20318 6.7046 5.98148V5.85559C6.7046 5.63522 6.52374 5.45717 6.30233 5.45717C6.08227 5.45717 5.90005 5.63388 5.90005 5.85559V5.98148C5.90005 6.20184 6.08091 6.3799 6.30233 6.3799Z" fill="black" stroke="black" stroke-width="0.2"/>
</svg>
