<svg width="56" height="56" viewBox="0 0 56 56" fill="none" xmlns="http://www.w3.org/2000/svg">
<path d="M13.0309 6.482C23.7906 6.482 31.1795 0.908447 36.3642 0.908447C41.5489 0.908447 52.4377 3.88889 52.4377 27.7402C52.4377 51.5916 37.7891 55.0916 32.0864 55.0916C5.38219 55.0931 -6.0247 6.482 13.0309 6.482Z" fill="white"/>
<path d="M11.8013 12.1111L11.0236 10.7639L13.7179 9.20838L14.4956 10.5555L11.8013 12.1111Z" fill="#A4AFC1"/>
<path d="M4.06244 16.5808L3.28466 15.2337L5.97896 13.6781L6.75674 15.0253L4.06244 16.5808Z" fill="#A4AFC1"/>
<path d="M7.0293 10.8284L5.47374 8.13407L6.82089 7.35629L8.37645 10.0506L7.0293 10.8284Z" fill="#A4AFC1"/>
<path d="M26.6231 37.6832C27.7993 39.4681 28.6109 43 28.6109 43H30.7619C30.491 41.6574 29.2176 39.2299 27.5755 36.5C23.8087 30.2381 18.1014 22.3851 18.1014 22.3851C23.0932 24.739 28.4079 35.0456 28.4079 35.0456C34.617 16.7847 11 15 11 15C12.1762 16.4615 14.2464 23.2381 14.2464 23.2381C17.1678 36.5072 26.6231 37.6832 26.6231 37.6832Z" fill="black"/>
<path d="M32.2838 39.3138C34.4286 39.4405 36.4557 37.7409 38.0098 35.8573C39.5619 33.974 40.529 31.6786 40.9051 29.2548C41.5357 25.037 44.1796 19.0001 44.1796 19.0001C22.9884 27.4823 31.2386 38.2238 31.2386 38.2238C32.3826 33.2428 38.6685 26.889 38.6685 26.889C36.0796 29.6044 32.2838 39.3138 32.2838 39.3138Z" fill="#B4D7D8"/>
<path d="M31.6148 40.0372C33.7246 40.443 35.9564 39.0227 37.7431 37.3583C39.528 35.6938 40.7866 33.5444 41.4762 31.1905C42.6523 27.0912 46.0621 21.4514 46.0621 21.4514C23.9445 27.0928 30.7209 38.8199 30.7209 38.8199C32.5058 34.0311 39.5677 28.5529 39.5677 28.5529C36.6463 30.9068 31.6148 40.0372 31.6148 40.0372Z" fill="black"/>
</svg>
