<svg width="16" height="16" viewBox="0 0 16 16" fill="none" xmlns="http://www.w3.org/2000/svg">
<g clip-path="url(#clip0_109_14)">
<path d="M8.00016 0.833374V15.1667M8.00016 0.833374C5.80916 0.833374 4.03283 4.04204 4.03283 8.00004C4.03283 11.958 5.80916 15.1667 8.00016 15.1667M8.00016 0.833374C10.1912 0.833374 11.9675 4.04204 11.9675 8.00004C11.9675 11.958 10.1912 15.1667 8.00016 15.1667M15.1668 8.00004H0.833496M14.2068 4.41671H1.7935M14.2068 11.5834H1.7935" stroke="#373737" stroke-width="0.8" stroke-linecap="round" stroke-linejoin="round"/>
<path d="M0.833496 8.00004C0.833496 11.958 4.04216 15.1667 8.00016 15.1667C11.9582 15.1667 15.1668 11.958 15.1668 8.00004C15.1668 4.04204 11.9582 0.833374 8.00016 0.833374C4.04216 0.833374 0.833496 4.04204 0.833496 8.00004Z" stroke="#373737" stroke-width="0.8" stroke-linecap="round" stroke-linejoin="round"/>
</g>
<defs>
<clipPath id="clip0_109_14">
<rect width="16" height="16" fill="white"/>
</clipPath>
</defs>
</svg>
