<svg width="56" height="56" viewBox="0 0 56 56" fill="none" xmlns="http://www.w3.org/2000/svg">
<path d="M13.0309 6.482C23.7906 6.482 31.1795 0.908447 36.3642 0.908447C41.5489 0.908447 52.4377 3.88889 52.4377 27.7402C52.4377 51.5916 37.7891 55.0916 32.0864 55.0916C5.38219 55.0931 -6.0247 6.482 13.0309 6.482Z" fill="white"/>
<path d="M42.3359 10.9492L43.4359 9.84927L45.6358 12.0492L44.5358 13.1491L42.3359 10.9492Z" fill="#A4AFC1"/>
<path d="M36.0156 4.63086L37.1156 3.53092L39.3155 5.7308L38.2155 6.83075L36.0156 4.63086Z" fill="#A4AFC1"/>
<path d="M42.3398 6.00781L44.5397 3.80792L45.6397 4.90787L43.4398 7.10776L42.3398 6.00781Z" fill="#A4AFC1"/>
<path d="M26.0547 41.6113H29.9436V45.5002H26.0547V41.6113Z" fill="#B4D7D8"/>
<path d="M42.1538 24.7333L37.7205 20.2689V12.0556H33.8316V16.3644L27.9983 10.5L13.8365 24.7287C13.6965 24.8687 13.6094 25.0631 13.6094 25.2778C13.6094 25.7071 13.9578 26.0556 14.3872 26.0556H18.276V34.6111C18.276 35.4698 18.9729 36.1667 19.8316 36.1667H36.1649C37.0236 36.1667 37.7205 35.4698 37.7205 34.6111V26.0556H41.6094C42.0387 26.0556 42.3872 25.7071 42.3872 25.2778C42.3872 25.0631 42.3 24.8702 42.16 24.7287L42.1538 24.7333Z" fill="#B4D7D8"/>
<path d="M17.1094 25.2778C17.1094 25.0631 17.1965 24.8702 17.3365 24.7287L29.7483 12.2578L27.9983 10.5L13.8365 24.7287C13.6965 24.8687 13.6094 25.0631 13.6094 25.2778C13.6094 25.7071 13.9578 26.0556 14.3872 26.0556H17.8872C17.4578 26.0556 17.1094 25.7071 17.1094 25.2778Z" fill="#285260"/>
<path d="M37.332 16.3636V12.0547H33.832V12.8449L37.332 16.3636Z" fill="#B4D7D8"/>
<path d="M21.7773 34.6102V26.0547H18.2773V34.6102C18.2773 35.4689 18.9742 36.1658 19.8329 36.1658H23.3329C22.4742 36.1658 21.7773 35.4689 21.7773 34.6102Z" fill="#285260"/>
<path d="M26.832 36.9453H29.1654V41.2231H26.832V36.9453Z" fill="black"/>
<path d="M29.9462 46.6675H26.0573C25.4133 46.6675 24.8906 46.1449 24.8906 45.5009V41.612C24.8906 40.968 25.4133 40.4453 26.0573 40.4453H29.9462C30.5902 40.4453 31.1128 40.968 31.1128 41.612V45.5009C31.1128 46.1449 30.5902 46.6675 29.9462 46.6675ZM27.224 44.3342H28.7795V42.7786H27.224V44.3342Z" fill="black"/>
<path d="M15.168 42.3887H25.668V44.722H15.168V42.3887Z" fill="black"/>
<path d="M30.332 42.3887H40.832V44.722H30.332V42.3887Z" fill="black"/>
<path d="M36.1675 37.334H19.8342C18.3331 37.334 17.112 36.1129 17.112 34.6118V27.2229H14.3898C13.318 27.2229 12.4453 26.3502 12.4453 25.2784C12.4453 24.7604 12.646 24.2735 13.01 23.908L27.1733 9.67776C27.3926 9.45843 27.6913 9.33398 28.0009 9.33398C28.3104 9.33398 28.6091 9.45843 28.8284 9.67776L32.6675 13.5387V12.0562C32.6675 11.4122 33.1902 10.8895 33.8342 10.8895H37.7231C38.3671 10.8895 38.8898 11.4122 38.8898 12.0562V19.7889L42.984 23.9127L41.3335 25.5506L41.3351 25.5522L42.9902 23.9064C43.3558 24.2735 43.5564 24.7604 43.5564 25.2784C43.5564 26.3502 42.6838 27.2229 41.612 27.2229H38.8898V34.6118C38.8898 36.1129 37.6686 37.334 36.1675 37.334ZM15.3262 24.8895H18.2786C18.9226 24.8895 19.4453 25.4122 19.4453 26.0562V34.6118C19.4453 34.8264 19.6195 35.0007 19.8342 35.0007H36.1675C36.3822 35.0007 36.5564 34.8264 36.5564 34.6118V26.0562C36.5564 25.4122 37.0791 24.8895 37.7231 24.8895H40.6678L36.8955 21.0909C36.6778 20.8715 36.5564 20.576 36.5564 20.2695V13.2229H35.0009V16.3651C35.0009 16.838 34.7146 17.2642 34.2791 17.4431C33.8435 17.622 33.3411 17.5224 33.0066 17.1864L28.0009 12.1542L15.3262 24.8895Z" fill="black"/>
</svg>
