<svg width="40" height="41" viewBox="0 0 40 41" fill="none" xmlns="http://www.w3.org/2000/svg">
<g filter="url(#filter0_i_705_1969)">
<rect y="0.5" width="40" height="40" rx="8" fill="#F4EDE6" fill-opacity="0.2"/>
<g clip-path="url(#clip0_705_1969)">
<path d="M20 10.6609C23.2063 10.6609 23.5859 10.675 24.8469 10.7312C26.0188 10.7828 26.6516 10.9797 27.0734 11.1438C27.6313 11.3594 28.0344 11.6219 28.4516 12.0391C28.8734 12.4609 29.1313 12.8594 29.3469 13.4172C29.5109 13.8391 29.7078 14.4766 29.7594 15.6437C29.8156 16.9094 29.8297 17.2891 29.8297 20.4906C29.8297 23.6969 29.8156 24.0766 29.7594 25.3375C29.7078 26.5094 29.5109 27.1422 29.3469 27.5641C29.1313 28.1219 28.8687 28.525 28.4516 28.9422C28.0297 29.3641 27.6313 29.6219 27.0734 29.8375C26.6516 30.0016 26.0141 30.1984 24.8469 30.25C23.5813 30.3062 23.2016 30.3203 20 30.3203C16.7938 30.3203 16.4141 30.3062 15.1531 30.25C13.9813 30.1984 13.3484 30.0016 12.9266 29.8375C12.3688 29.6219 11.9656 29.3594 11.5484 28.9422C11.1266 28.5203 10.8688 28.1219 10.6531 27.5641C10.4891 27.1422 10.2922 26.5047 10.2406 25.3375C10.1844 24.0719 10.1703 23.6922 10.1703 20.4906C10.1703 17.2844 10.1844 16.9047 10.2406 15.6437C10.2922 14.4719 10.4891 13.8391 10.6531 13.4172C10.8688 12.8594 11.1313 12.4562 11.5484 12.0391C11.9703 11.6172 12.3688 11.3594 12.9266 11.1438C13.3484 10.9797 13.9859 10.7828 15.1531 10.7312C16.4141 10.675 16.7938 10.6609 20 10.6609ZM20 8.5C16.7422 8.5 16.3344 8.51406 15.0547 8.57031C13.7797 8.62656 12.9031 8.83281 12.1438 9.12812C11.3516 9.4375 10.6813 9.84531 10.0156 10.5156C9.34531 11.1813 8.9375 11.8516 8.62813 12.6391C8.33281 13.4031 8.12656 14.275 8.07031 15.55C8.01406 16.8344 8 17.2422 8 20.5C8 23.7578 8.01406 24.1656 8.07031 25.4453C8.12656 26.7203 8.33281 27.5969 8.62813 28.3563C8.9375 29.1484 9.34531 29.8188 10.0156 30.4844C10.6813 31.15 11.3516 31.5625 12.1391 31.8672C12.9031 32.1625 13.775 32.3687 15.05 32.425C16.3297 32.4812 16.7375 32.4953 19.9953 32.4953C23.2531 32.4953 23.6609 32.4812 24.9406 32.425C26.2156 32.3687 27.0922 32.1625 27.8516 31.8672C28.6391 31.5625 29.3094 31.15 29.975 30.4844C30.6406 29.8188 31.0531 29.1484 31.3578 28.3609C31.6531 27.5969 31.8594 26.725 31.9156 25.45C31.9719 24.1703 31.9859 23.7625 31.9859 20.5047C31.9859 17.2469 31.9719 16.8391 31.9156 15.5594C31.8594 14.2844 31.6531 13.4078 31.3578 12.6484C31.0625 11.8516 30.6547 11.1813 29.9844 10.5156C29.3188 9.85 28.6484 9.4375 27.8609 9.13281C27.0969 8.8375 26.225 8.63125 24.95 8.575C23.6656 8.51406 23.2578 8.5 20 8.5Z" fill="white"/>
<path d="M20 14.3359C16.5969 14.3359 13.8359 17.0969 13.8359 20.5C13.8359 23.9031 16.5969 26.6641 20 26.6641C23.4031 26.6641 26.1641 23.9031 26.1641 20.5C26.1641 17.0969 23.4031 14.3359 20 14.3359ZM20 24.4984C17.7922 24.4984 16.0016 22.7078 16.0016 20.5C16.0016 18.2922 17.7922 16.5016 20 16.5016C22.2078 16.5016 23.9984 18.2922 23.9984 20.5C23.9984 22.7078 22.2078 24.4984 20 24.4984Z" fill="white"/>
<path d="M27.8469 14.0924C27.8469 14.8893 27.2 15.5314 26.4078 15.5314C25.6109 15.5314 24.9688 14.8846 24.9688 14.0924C24.9688 13.2955 25.6156 12.6533 26.4078 12.6533C27.2 12.6533 27.8469 13.3002 27.8469 14.0924Z" fill="white"/>
</g>
</g>
<defs>
<filter id="filter0_i_705_1969" x="-8.6" y="-8.1" width="57.2" height="57.2" filterUnits="userSpaceOnUse" color-interpolation-filters="sRGB">
<feFlood flood-opacity="0" result="BackgroundImageFix"/>
<feBlend mode="normal" in="SourceGraphic" in2="BackgroundImageFix" result="shape"/>
<feColorMatrix in="SourceAlpha" type="matrix" values="0 0 0 0 0 0 0 0 0 0 0 0 0 0 0 0 0 0 127 0" result="hardAlpha"/>
<feOffset dy="4"/>
<feGaussianBlur stdDeviation="12.45"/>
<feComposite in2="hardAlpha" operator="arithmetic" k2="-1" k3="1"/>
<feColorMatrix type="matrix" values="0 0 0 0 1 0 0 0 0 1 0 0 0 0 1 0 0 0 0.5 0"/>
<feBlend mode="normal" in2="shape" result="effect1_innerShadow_705_1969"/>
</filter>
<clipPath id="clip0_705_1969">
<rect width="24" height="24" fill="white" transform="translate(8 8.5)"/>
</clipPath>
</defs>
</svg>
