<svg width="152" height="40" viewBox="0 0 152 40" fill="none" xmlns="http://www.w3.org/2000/svg">
<path d="M2.46597 1H2.24313V39H2.46597V1Z" fill="white"/>
<path d="M5.29254 1H5.0697V39H5.29254V1Z" fill="white"/>
<path d="M8.11911 1H7.89627V39H8.11911V1Z" fill="white"/>
<path d="M10.9457 1H10.7228V39H10.9457V1Z" fill="white"/>
<path d="M13.7722 1H13.5494V39H13.7722V1Z" fill="white"/>
<path d="M16.5988 1H16.3759V39H16.5988V1Z" fill="white"/>
<path d="M19.4254 1H19.2025V39H19.4254V1Z" fill="white"/>
<path d="M22.2636 1H22.0407V39H22.2636V1Z" fill="white"/>
<path d="M25.0902 1H24.8673V39H25.0902V1Z" fill="white"/>
<path d="M2.30188 1H1.73892V25.359H2.30188V1Z" fill="white"/>
<path d="M5.12839 1H4.56543V26.6268H5.12839V1Z" fill="white"/>
<path d="M7.95497 1H7.392V27.6129H7.95497V1Z" fill="white"/>
<path d="M10.7815 1H10.2186V27.9768H10.7815V1Z" fill="white"/>
<path d="M13.6081 1H13.0451V27.9181H13.6081V1Z" fill="white"/>
<path d="M16.4346 1H15.8717V27.3664H16.4346V1Z" fill="white"/>
<path d="M19.2611 1H18.6981V26.2042H19.2611V1Z" fill="white"/>
<path d="M22.0876 1H21.5247V25.089H22.0876V1Z" fill="white"/>
<path d="M24.9142 1H24.3512V24.7603H24.9142V1Z" fill="white"/>
<path d="M2.13766 1H1V17.5054H2.13766V1Z" fill="white"/>
<path d="M4.95249 1H3.82657V16.4958H4.95249V1Z" fill="white"/>
<path d="M7.77907 1H6.65314V15.2515H7.77907V1Z" fill="white"/>
<path d="M10.6056 1H9.47968V14.7115H10.6056V1Z" fill="white"/>
<path d="M13.4322 1H12.3062V14.7702H13.4322V1Z" fill="white"/>
<path d="M16.2587 1H15.1328V15.4863H16.2587V1Z" fill="white"/>
<path d="M19.0852 1H17.9592V16.7776H19.0852V1Z" fill="white"/>
<path d="M21.9117 1H20.7858V17.6463H21.9117V1Z" fill="white"/>
<path d="M24.7501 1H23.6242V17.928H24.7501V1Z" fill="white"/>
<path d="M27.6821 1H27.4592V39H27.6821V1Z" fill="white"/>
<path d="M30.5086 1H30.2858V39H30.5086V1Z" fill="white"/>
<path d="M33.3352 1H33.1124V39H33.3352V1Z" fill="white"/>
<path d="M36.1618 1H35.939V39H36.1618V1Z" fill="white"/>
<path d="M39 1H38.7772V39H39V1Z" fill="white"/>
<path d="M27.5179 1H26.955V25.359H27.5179V1Z" fill="white"/>
<path d="M30.3445 1H29.7815V26.6268H30.3445V1Z" fill="white"/>
<path d="M33.1711 1H32.6081V27.6129H33.1711V1Z" fill="white"/>
<path d="M35.9976 1H35.4346V27.9768H35.9976V1Z" fill="white"/>
<path d="M38.8242 1H38.2612V27.9181H38.8242V1Z" fill="white"/>
<path d="M27.342 1H26.2161V17.5054H27.342V1Z" fill="white"/>
<path d="M30.1686 1H29.0426V16.4958H30.1686V1Z" fill="white"/>
<path d="M32.9951 1H31.8692V15.2515H32.9951V1Z" fill="white"/>
<path d="M35.8217 1H34.6958V14.7115H35.8217V1Z" fill="white"/>
<path d="M38.6481 1H37.5222V14.7702H38.6481V1Z" fill="white"/>
<path d="M83.4782 24.9314V26.5435H74.4037V13.2852H76.0678V24.9901C76.4612 24.9482 76.8711 24.9314 77.2974 24.9314H83.4782Z" fill="white"/>
<path d="M90.225 19.6233C91.0775 21.1095 91.9628 22.4194 92.8809 23.5529C93.799 24.6865 94.8073 25.6773 95.9058 26.5338H93.4629C92.7006 25.8116 91.971 24.9972 91.2742 24.0735C90.5775 23.1499 89.8807 22.1003 89.1757 20.9332L87.2739 23.1835V26.5338H85.6099V13.2754H87.2739V20.6981L93.4629 13.2754H95.5123L90.225 19.6149V19.6233Z" fill="white"/>
<path d="M52.6151 19.6233C53.4676 21.1095 54.353 22.4194 55.2711 23.5529C56.1892 24.6865 57.1974 25.6773 58.2959 26.5338H55.8531C55.0907 25.8116 54.3612 24.9972 53.6644 24.0735C52.9676 23.1499 52.2708 22.1003 51.5659 20.9332L49.6641 23.1835V26.5338H48V13.2754H49.6641V20.6981L55.8531 13.2754H57.9024L52.6151 19.6149V19.6233Z" fill="white"/>
<path d="M107.783 13.2838H109.447V26.5422H107.783V20.6729C106.923 20.7149 106.045 20.7988 105.16 20.9248C104.275 21.0591 103.455 21.3026 102.709 21.6553C101.963 22.0079 101.332 22.5034 100.807 23.1499C100.283 23.7964 99.9383 24.6445 99.7826 25.7025V26.5338H98.1185V13.2754H99.7826V21.9072C100.25 21.3866 100.742 20.9584 101.25 20.6225C101.758 20.2782 102.332 20.0095 102.963 19.7996C103.594 19.5897 104.299 19.4386 105.078 19.3378C105.857 19.237 106.767 19.1615 107.783 19.1111V13.2754V13.2838Z" fill="white"/>
<path d="M115.826 13.3018V14.7964H114.571V25.0403H115.826V26.5517H111.67V25.0403H112.907V14.7964H111.67V13.3018H115.826Z" fill="white"/>
<path d="M123.039 26.8206C121.99 26.8206 120.982 26.6274 120.014 26.2496C119.047 25.8717 118.186 25.3427 117.432 24.6626L118.596 23.4535C119.187 23.9993 119.867 24.4107 120.637 24.7046C121.408 24.9985 122.203 25.1412 123.031 25.1412H123.047C123.515 25.1412 123.982 25.0992 124.441 25.0153C124.9 24.9313 125.318 24.8054 125.687 24.6374C126.056 24.4695 126.359 24.2512 126.597 23.9825C126.835 23.7138 126.949 23.4115 126.949 23.0504C126.949 22.6894 126.917 22.6726 126.851 22.4795C126.786 22.2864 126.613 22.1016 126.335 21.9001C126.056 21.707 125.646 21.5055 125.097 21.3123C124.548 21.1192 123.793 20.9177 122.834 20.7162L122.425 20.6406C121.818 20.5398 121.219 20.4139 120.613 20.2711C120.006 20.1284 119.457 19.9185 118.965 19.6582C118.473 19.3895 118.072 19.0368 117.76 18.6002C117.449 18.1552 117.301 17.5842 117.301 16.8789C117.301 16.1736 117.432 15.7537 117.703 15.2751C117.965 14.8049 118.35 14.3935 118.842 14.0576C119.334 13.7133 119.933 13.453 120.629 13.2683C121.326 13.0836 122.105 12.9912 122.966 12.9912C124.974 12.9912 126.802 13.5874 128.441 14.7881L127.425 16.1148C126.761 15.6194 126.072 15.2583 125.351 15.0232C124.638 14.7881 123.875 14.6705 123.056 14.6705C122.236 14.6705 122.162 14.7125 121.695 14.7881C121.236 14.8637 120.81 14.9896 120.441 15.166C120.064 15.3423 119.76 15.569 119.523 15.8461C119.285 16.1232 119.17 16.4674 119.17 16.8705C119.17 17.2735 119.219 17.4079 119.326 17.6178C119.432 17.8277 119.621 18.0124 119.9 18.1636C120.178 18.3231 120.556 18.4659 121.039 18.5918C121.523 18.7178 122.138 18.8521 122.884 18.9864L123.269 19.0788C123.785 19.1796 124.359 19.3055 124.99 19.4651C125.621 19.6246 126.212 19.8429 126.761 20.1368C127.318 20.4307 127.786 20.8001 128.179 21.262C128.564 21.7238 128.769 22.3031 128.777 22.9917V23.0504C128.761 23.6046 128.614 24.1168 128.335 24.5786C128.048 25.0405 127.663 25.4351 127.163 25.7626C126.663 26.0901 126.064 26.3503 125.367 26.5267C124.671 26.7114 123.9 26.8038 123.047 26.8038H123.031L123.039 26.8206Z" fill="white"/>
<path d="M142.712 23.8389C142.868 23.8389 143.023 23.8389 143.179 23.8221C142.884 24.6365 142.458 25.7197 142.171 26.5426H140.474L141.507 23.7969C141.908 23.8389 142.318 23.8473 142.72 23.8389H142.712Z" fill="white"/>
<path d="M149.55 19.8517L149.435 19.541L147.058 13H145.377L142.426 21.128C141.254 21.044 140.09 20.7753 139.032 20.2295C138.573 20.0028 138.032 19.6838 137.565 19.4235C137.229 19.2387 136.819 19.0288 136.467 18.8777C135.942 18.6342 135.368 18.4662 134.811 18.3319C134.171 18.2059 133.45 18.1136 132.802 18.122H132.392V15.0152H138.639V13.3107H130.737V26.5439H138.639V24.9317H136.762C136.737 24.9317 136.704 24.9317 136.68 24.9317H133.63C133.204 24.9317 132.794 24.9569 132.401 24.9905V21.6234V19.8853C132.606 19.9021 132.86 19.9189 133.007 19.9273C133.163 19.9441 133.63 20.0112 133.786 20.028L134.294 20.1372C135.762 20.4479 136.876 21.2455 138.286 21.9089C139.606 22.5218 141.09 22.7821 142.533 22.757C143.549 22.7402 144.582 22.6226 145.557 22.2951C146.541 21.9929 147.41 21.4219 148.246 20.8173L148.345 21.0776L148.386 21.1784C148.476 21.4219 148.558 21.6738 148.648 21.9173C148.738 22.1776 148.828 22.4295 148.918 22.6898L150.304 26.5355H152.001L149.574 19.8517H149.55ZM147.205 20.2631C146.221 20.7837 145.18 21.0524 144.115 21.1364C144.82 19.2052 145.525 17.2739 146.23 15.3427L147.894 19.9105C147.664 20.028 147.435 20.154 147.205 20.2631Z" fill="white"/>
<path d="M65.4527 26.9043C64.51 26.9043 63.6165 26.7196 62.7803 26.3501C61.9442 25.9807 61.2146 25.4769 60.5916 24.8471C59.9686 24.209 59.4768 23.4701 59.1079 22.6136C58.739 21.7655 58.5587 20.8503 58.5587 19.8847C58.5587 18.9191 58.739 18.0122 59.1079 17.1558C59.4768 16.3077 59.9686 15.5604 60.5916 14.9306C61.2146 14.3009 61.9442 13.8055 62.7803 13.436C63.6165 13.0666 64.51 12.8818 65.4527 12.8818C66.3954 12.8818 67.2889 13.0666 68.125 13.436C68.9611 13.8055 69.6907 14.3009 70.3137 14.9306C70.9367 15.5604 71.4285 16.2993 71.7974 17.1558C72.1663 18.0038 72.3467 18.9191 72.3467 19.8847C72.3467 20.8503 72.1663 21.7571 71.7974 22.6136C71.4285 23.4617 70.9367 24.209 70.3137 24.8471C69.6907 25.4853 68.9611 25.9891 68.125 26.3501C67.2889 26.7196 66.3954 26.9043 65.4527 26.9043ZM65.4527 14.5024C64.7559 14.5024 64.1001 14.6451 63.4771 14.9222C62.8541 15.1993 62.3131 15.5856 61.854 16.0642C61.395 16.5512 61.0343 17.1138 60.7638 17.7687C60.4933 18.4237 60.3621 19.129 60.3621 19.8763C60.3621 20.6236 60.4933 21.3121 60.7638 21.9755C61.0343 22.6388 61.395 23.2098 61.854 23.6884C62.3131 24.1754 62.8541 24.5532 63.4771 24.8387C64.1001 25.1242 64.7559 25.267 65.4527 25.267C66.1494 25.267 66.8052 25.1242 67.4282 24.8387C68.0512 24.5532 68.5923 24.167 69.0595 23.6884C69.5268 23.2014 69.8874 22.6304 70.158 21.9755C70.4285 21.3121 70.5596 20.6152 70.5596 19.8763C70.5596 19.1374 70.4285 18.4237 70.158 17.7687C69.8874 17.1138 69.5268 16.5428 69.0595 16.0642C68.5923 15.5772 68.0512 15.1993 67.4282 14.9222C66.8052 14.6451 66.1494 14.5024 65.4527 14.5024Z" fill="white"/>
<path d="M149.582 19.8349C149.574 19.8349 149.565 19.8517 149.549 19.8517L149.434 19.541L149.582 19.8349Z" fill="white"/>
</svg>
