<svg width="296" height="48" viewBox="0 0 296 48" fill="none" xmlns="http://www.w3.org/2000/svg">
<path d="M100.86 38.2543V42.8374H75.0625V5.14578H79.7932V38.4213C80.9118 38.302 82.077 38.2543 83.2888 38.2543H100.86Z" fill="white"/>
<path d="M120.038 23.1681C122.462 27.3932 124.978 31.117 127.589 34.3395C130.199 37.562 133.065 40.3787 136.188 42.8135H129.243C127.076 40.7607 125.002 38.4452 123.021 35.8195C121.04 33.1937 119.059 30.2099 117.055 26.8919L111.649 33.2892V42.8135H106.918V5.12192H111.649V26.2235L129.243 5.12192H135.069L120.038 23.1442V23.1681Z" fill="white"/>
<path d="M13.1201 23.1681C15.5437 27.3932 18.0605 31.117 20.6706 34.3395C23.2806 37.562 26.147 40.3787 29.2697 42.8135H22.3251C20.1579 40.7607 18.0838 38.4452 16.103 35.8195C14.1222 33.1937 12.1413 30.2099 10.1372 26.8919L4.73069 33.2892V42.8135H0V5.12192H4.73069V26.2235L22.3251 5.12192H28.1511L13.1201 23.1442V23.1681Z" fill="white"/>
<path d="M169.956 5.14578H174.686V42.8374H169.956V26.1519C167.509 26.2712 165.015 26.5099 162.499 26.868C159.982 27.2499 157.651 27.9422 155.531 28.9447C153.41 29.9473 151.616 31.3557 150.124 33.1937C148.633 35.0317 147.654 37.4426 147.211 40.4503V42.8135H142.48V5.12192H147.211V29.6609C148.539 28.1809 149.938 26.9635 151.383 26.0087C152.827 25.03 154.459 24.2661 156.253 23.6694C158.047 23.0726 160.052 22.6429 162.265 22.3565C164.479 22.07 167.066 21.8552 169.956 21.712V5.12192V5.14578Z" fill="white"/>
<path d="M192.817 5.19351V9.44247H189.252V38.5646H192.817V42.8613H181.002V38.5646H184.521V9.44247H181.002V5.19351H192.817Z" fill="white"/>
<path d="M213.324 43.6251C210.342 43.6251 207.475 43.0761 204.725 42.0019C201.975 40.9277 199.529 39.4239 197.385 37.4904L200.694 34.053C202.372 35.6046 204.306 36.7743 206.496 37.6098C208.687 38.4452 210.947 38.851 213.301 38.851H213.348C214.676 38.851 216.004 38.7317 217.309 38.493C218.614 38.2542 219.803 37.8962 220.852 37.4188C221.9 36.9414 222.763 36.3207 223.438 35.5569C224.114 34.793 224.44 33.9337 224.44 32.9072C224.44 31.8808 224.347 31.8331 224.161 31.2841C223.974 30.735 223.485 30.2099 222.693 29.637C221.9 29.088 220.735 28.5151 219.174 27.966C217.612 27.417 215.468 26.8441 212.742 26.2712L211.577 26.0564C209.852 25.7699 208.151 25.4119 206.427 25.0061C204.702 24.6003 203.141 24.0035 201.742 23.2635C200.344 22.4997 199.202 21.4971 198.317 20.2558C197.431 18.9907 197.012 17.3675 197.012 15.3624C197.012 13.3572 197.385 12.1637 198.154 10.8031C198.899 9.46635 199.995 8.29669 201.393 7.34187C202.791 6.36317 204.492 5.62318 206.473 5.09803C208.454 4.57288 210.668 4.3103 213.115 4.3103C218.824 4.3103 224.021 6.00512 228.682 9.41861L225.792 13.1902C223.904 11.7818 221.947 10.7554 219.896 10.087C217.869 9.41861 215.701 9.08442 213.371 9.08442C211.041 9.08442 210.831 9.20377 209.503 9.41861C208.198 9.63344 206.986 9.9915 205.937 10.4928C204.865 10.9941 204.003 11.6386 203.327 12.4263C202.651 13.214 202.325 14.1927 202.325 15.3385C202.325 16.4843 202.465 16.8662 202.768 17.463C203.071 18.0598 203.607 18.5849 204.399 19.0146C205.191 19.4681 206.263 19.8739 207.638 20.232C209.013 20.59 210.761 20.972 212.882 21.3539L213.977 21.6165C215.445 21.9029 217.076 22.261 218.871 22.7145C220.665 23.1681 222.343 23.7887 223.904 24.6242C225.489 25.4596 226.817 26.5099 227.936 27.8228C229.031 29.1357 229.614 30.7828 229.637 32.7402V32.9072C229.591 34.4827 229.171 35.9388 228.379 37.2517C227.563 38.5646 226.468 39.6865 225.046 40.6174C223.625 41.5484 221.924 42.2884 219.943 42.7897C217.962 43.3148 215.771 43.5774 213.348 43.5774H213.301L213.324 43.6251Z" fill="white"/>
<path d="M269.253 35.1511C269.695 35.1511 270.138 35.1511 270.581 35.1034C269.742 37.4188 268.53 40.4981 267.715 42.8374H262.891L265.827 35.0317C266.969 35.1511 268.134 35.175 269.276 35.1511H269.253Z" fill="white"/>
<path d="M288.69 23.8126L288.363 22.9294L281.605 4.3342H276.828L268.438 27.4409C265.106 27.2022 261.797 26.4383 258.791 24.8867C257.486 24.2422 255.947 23.3352 254.619 22.5952C253.664 22.07 252.499 21.4733 251.496 21.0436C250.005 20.3513 248.374 19.8739 246.789 19.492C244.971 19.1339 242.921 18.8714 241.08 18.8952H239.914V10.0631H257.672V5.2174H235.207V42.8374H257.672V38.2543H252.335C252.265 38.2543 252.172 38.2543 252.102 38.2543H243.433C242.221 38.2543 241.056 38.3259 239.938 38.4213V28.8493V23.9081C240.52 23.9558 241.243 24.0035 241.662 24.0274C242.105 24.0752 243.433 24.2661 243.876 24.3138L245.321 24.6242C249.492 25.5074 252.662 27.7751 256.67 29.6609C260.422 31.4034 264.64 32.1434 268.741 32.0718C271.631 32.024 274.567 31.6899 277.34 30.7589C280.137 29.8996 282.607 28.2764 284.984 26.5577L285.264 27.2977L285.38 27.5841C285.637 28.2764 285.87 28.9925 286.126 29.6847C286.382 30.4247 286.639 31.1408 286.895 31.8808L290.833 42.8135H295.657L288.759 23.8126H288.69ZM282.025 24.9822C279.228 26.4622 276.269 27.2261 273.239 27.4648C275.243 21.9745 277.247 16.4843 279.251 10.9941L283.982 23.9797C283.33 24.3139 282.677 24.6719 282.025 24.9822Z" fill="white"/>
<path d="M49.6142 43.8638C46.9343 43.8638 44.3941 43.3387 42.0171 42.2884C39.6401 41.2381 37.5661 39.8059 35.795 38.0156C34.0239 36.2014 32.6257 34.1008 31.577 31.666C30.5283 29.2551 30.0156 26.6532 30.0156 23.9081C30.0156 21.1629 30.5283 18.5849 31.577 16.1501C32.6257 13.7392 34.0239 11.6147 35.795 9.82442C37.5661 8.03413 39.6401 6.62576 42.0171 5.57545C44.3941 4.52515 46.9343 4 49.6142 4C52.2942 4 54.8343 4.52515 57.2113 5.57545C59.5883 6.62576 61.6623 8.03413 63.4334 9.82442C65.2045 11.6147 66.6028 13.7153 67.6514 16.1501C68.7001 18.5611 69.2128 21.1629 69.2128 23.9081C69.2128 26.6532 68.7001 29.2312 67.6514 31.666C66.6028 34.0769 65.2045 36.2014 63.4334 38.0156C61.6623 39.8297 59.5883 41.262 57.2113 42.2884C54.8343 43.3387 52.2942 43.8638 49.6142 43.8638ZM49.6142 8.60702C47.6334 8.60702 45.7691 9.01282 43.998 9.80054C42.2269 10.5883 40.6888 11.6863 39.3838 13.047C38.0788 14.4314 37.0534 16.0308 36.2844 17.8927C35.5153 19.7546 35.1425 21.7597 35.1425 23.8842C35.1425 26.0087 35.5153 27.9661 36.2844 29.8518C37.0534 31.7376 38.0788 33.3608 39.3838 34.7214C40.6888 36.1059 42.2269 37.1801 43.998 37.9917C45.7691 38.8033 47.6334 39.2091 49.6142 39.2091C51.5951 39.2091 53.4594 38.8033 55.2305 37.9917C57.0016 37.1801 58.5396 36.082 59.8679 34.7214C61.1963 33.3369 62.2216 31.7137 62.9907 29.8518C63.7597 27.9661 64.1326 25.9848 64.1326 23.8842C64.1326 21.7836 63.7597 19.7546 62.9907 17.8927C62.2216 16.0308 61.1963 14.4076 59.8679 13.047C58.5396 11.6625 57.0016 10.5883 55.2305 9.80054C53.4594 9.01282 51.5951 8.60702 49.6142 8.60702Z" fill="white"/>
<path d="M288.783 23.7648C288.759 23.7648 288.736 23.8126 288.69 23.8126L288.363 22.9294L288.783 23.7648Z" fill="white"/>
</svg>
