<svg width="24" height="24" viewBox="0 0 24 24" fill="none" xmlns="http://www.w3.org/2000/svg">
<mask id="path-1-outside-1_1356_6540" maskUnits="userSpaceOnUse" x="0" y="4" width="24" height="16" fill="black">
<rect fill="white" y="4" width="24" height="16"/>
<path d="M3.2666 18.165C3.26948 18.1532 3.26373 18.1462 3.25225 18.1462C2.97479 18.1472 2.71837 18.1472 2.48206 18.1472C2.44666 18.1472 2.40264 18.1541 2.35098 18.167C2.31845 18.1749 2.27539 18.1699 2.22277 18.1512C1.93 18.0446 1.66403 17.8304 1.47935 17.5669C1.29277 17.3044 1.15691 17.0063 1.08133 16.6856C1.0708 16.6382 1.06506 16.5997 1.06506 16.5721C1.05549 15.9562 1.04688 15.1844 1.03827 14.2538C1.02679 13.1879 1.02105 12.646 1.02105 12.6283C1.01914 12.272 1.01148 11.6354 1 10.7205C1 10.6337 1.00765 10.532 1.04688 10.4511C1.12342 10.2942 1.21815 10.1471 1.32912 10.0089C1.59703 9.67732 1.93477 9.47598 2.34425 9.40296C2.35095 9.40198 2.35478 9.39803 2.35478 9.39013C2.36817 8.13474 2.37965 7.28104 2.38635 6.82896C2.38922 6.70066 2.43993 6.60789 2.49638 6.47168C2.64755 6.09762 2.88676 5.73443 3.2063 5.49067C3.43784 5.31598 3.69043 5.18175 3.96407 5.087C4.05497 5.05542 4.16308 5.03864 4.26067 5.01101C4.28746 5.00311 4.32381 4.99916 4.36974 5.00015C6.41244 5.00508 8.1988 5.01495 9.78034 5.01594C11.957 5.0189 15.3134 5.0268 19.8493 5.03864C19.9058 5.03864 19.9555 5.04752 19.9976 5.06331C20.0397 5.07812 20.0866 5.10772 20.1392 5.12352C20.476 5.22517 20.8185 5.35051 21.1037 5.56961C21.3142 5.73442 21.4864 5.9397 21.6175 6.18743C21.6452 6.23973 21.6682 6.295 21.6873 6.35422C21.7026 6.4006 21.7218 6.44107 21.7361 6.47265C21.7591 6.52397 21.7667 6.57825 21.7696 6.63352C21.7782 6.86743 21.7782 7.11119 21.7868 7.35202C21.7973 7.62244 21.804 7.81984 21.804 7.94122C21.806 8.22152 21.8203 8.44357 21.827 8.77814C21.8347 9.09692 21.8404 9.32393 21.8471 9.4611C21.8481 9.47393 21.8547 9.4838 21.8672 9.48774C22.4508 9.67329 22.8842 10.1549 22.9751 10.7846C22.9847 10.8556 22.979 10.9336 22.9866 10.9918C22.9914 11.0362 22.9952 11.0797 22.9952 11.1241C22.9962 12.9233 22.999 14.7204 23 16.5196C23 16.6034 22.9847 16.709 22.979 16.7732C22.9369 17.1838 22.6852 17.5627 22.3857 17.8332C22.2145 17.9851 21.9915 18.1154 21.7677 18.1628C21.716 18.1737 21.6825 18.1707 21.6222 18.1608C21.5715 18.151 21.5103 18.146 21.4414 18.147C21.1706 18.147 20.9869 18.147 20.8903 18.146C20.8817 18.146 20.8779 18.15 20.8779 18.1589C20.8874 18.2793 20.8913 18.4016 20.8894 18.526C20.8865 18.6632 20.8817 18.7846 20.8032 18.8813C20.7076 18.9977 20.5918 18.9958 20.4473 18.9879C20.3086 18.979 20.1833 18.9681 20.0378 18.9642C19.7843 18.9563 19.5594 18.9474 19.3662 18.9346C19.2475 18.9277 19.1308 18.8566 19.0868 18.7372C19.0686 18.6868 19.0571 18.6355 19.0533 18.5842C19.0466 18.5062 19.037 18.3829 19.0217 18.2131V18.1628C19.0217 18.1529 19.016 18.147 19.0064 18.147H5.11204C5.0996 18.147 5.09291 18.1529 5.09578 18.1657C5.11587 18.296 5.12639 18.4292 5.12544 18.5674C5.12352 18.6444 5.11969 18.6977 5.11395 18.7263C5.08429 18.8457 5.02306 18.9237 4.92834 18.9622C4.88911 18.978 4.82405 18.9869 4.73507 18.9898C4.6547 18.9918 4.5131 18.9947 4.31121 18.9987C4.05766 19.0026 3.81272 18.9977 3.57737 18.9829C3.48934 18.978 3.37644 18.9444 3.32285 18.8714C3.25875 18.7845 3.25493 18.6789 3.25397 18.5634C3.25205 18.442 3.25397 18.3266 3.25875 18.217C3.25971 18.2012 3.26258 18.1845 3.26641 18.1647L3.2666 18.165ZM19.6667 10.6563C19.8886 9.8796 20.5852 9.40883 21.3563 9.40292C21.3659 9.40292 21.3726 9.39798 21.3716 9.38614C21.364 9.21343 21.3582 9.04268 21.3563 8.86996C21.3506 8.56796 21.3381 8.26498 21.3314 7.96197C21.3219 7.52376 21.3027 7.06878 21.3027 6.77764C21.3027 6.69671 21.297 6.64342 21.2874 6.62171C21.2578 6.5546 21.2243 6.44998 21.186 6.38583C21.0387 6.13811 20.855 5.94861 20.6368 5.81834C20.4694 5.71866 20.2752 5.63279 20.0532 5.56174C20.0522 5.56174 20.0398 5.55681 20.0149 5.54891C19.9795 5.53608 19.9489 5.52917 19.9221 5.52917C17.2038 5.51832 13.9357 5.51042 10.1162 5.5045C7.89264 5.50055 6.03067 5.49463 4.53339 5.48871C4.5133 5.48871 4.49416 5.49068 4.47311 5.49463C4.42145 5.50845 4.37648 5.51634 4.31524 5.51733C4.23775 5.51733 4.16216 5.53213 4.08849 5.55681C3.9555 5.60418 3.8292 5.6634 3.71151 5.73347C3.53546 5.8371 3.37282 5.94862 3.24077 6.09765C3.0896 6.27036 2.96522 6.46875 2.86859 6.69376C2.84946 6.73719 2.85998 6.80529 2.85998 6.83983C2.84659 7.78039 2.83893 8.38833 2.83702 8.66469C2.83415 8.95681 2.83128 9.19764 2.82745 9.38615C2.8265 9.39305 2.83032 9.39503 2.83702 9.397C3.19293 9.42562 3.51823 9.54504 3.81103 9.75625C4.077 9.94772 4.27792 10.2231 4.41572 10.5241C4.43868 10.5734 4.45208 10.6169 4.4559 10.6544C4.46164 10.7284 4.4272 10.7906 4.4272 10.8695C4.4272 11.1715 4.4272 11.4538 4.42624 11.7153C4.42624 11.7242 4.43103 11.7301 4.44059 11.7301L19.6427 11.6926C19.6513 11.6926 19.6551 11.6887 19.6551 11.6798C19.6542 11.5525 19.6542 11.3127 19.6542 10.9603C19.6542 10.9544 19.6513 10.9139 19.6465 10.8379C19.6427 10.7758 19.6494 10.7155 19.6667 10.6563ZM20.0723 15.1026C20.0254 15.1667 19.9671 15.2101 19.8982 15.2299C19.8638 15.2407 19.7949 15.2457 19.6925 15.2457H4.37748C4.31147 15.2457 4.23397 15.2407 4.1823 15.2082C4.14786 15.1864 4.10863 15.1618 4.06175 15.1332C3.97181 15.0799 3.95459 14.9673 3.95459 14.8588V10.8183C3.95459 10.7808 3.95937 10.7571 3.96607 10.7137C3.96798 10.6999 3.96224 10.6782 3.94885 10.6496C3.8149 10.3781 3.61779 10.1758 3.35851 10.0426C3.13749 9.92811 2.90403 9.87975 2.66101 9.87284C2.38546 9.86495 2.09651 9.93897 1.87455 10.1087C1.71381 10.2311 1.57987 10.3841 1.47271 10.5637C1.45262 10.6012 1.46888 10.6723 1.4708 10.7048C1.48228 11.3888 1.48993 12.0747 1.49376 12.7586C1.49376 12.8731 1.49471 12.9708 1.49567 13.0498C1.50715 13.7061 1.51481 14.3634 1.51768 15.0197C1.51768 15.0987 1.51863 15.1944 1.5215 15.3109C1.5282 15.7234 1.53299 16.1369 1.53681 16.5514C1.53681 16.5702 1.53394 16.6107 1.53012 16.6294C1.51863 16.6689 1.53586 16.7242 1.54829 16.7567C1.60092 16.8959 1.67746 17.041 1.77696 17.1939C1.90708 17.3894 2.07549 17.5423 2.28309 17.6519C2.29171 17.6558 2.30319 17.6578 2.32041 17.6578C2.71843 17.6608 9.12689 17.6608 21.5487 17.6578C21.6396 17.6578 21.7009 17.6499 21.7774 17.6756C21.8042 17.6845 21.8176 17.6815 21.8405 17.6697C21.9668 17.6006 22.0759 17.5137 22.1678 17.4111C22.318 17.2384 22.4414 17.036 22.493 16.8189C22.5026 16.7735 22.5084 16.74 22.5093 16.7163C22.5141 16.6018 22.5275 16.5169 22.5275 16.4123C22.5237 13.5441 22.5218 11.7738 22.5246 11.0987V11.0326C22.5284 10.9773 22.516 10.9309 22.5064 10.8618C22.4567 10.4562 22.1831 10.1256 21.8157 9.98344C21.5258 9.87191 21.2339 9.86303 20.9364 9.95778C20.5805 10.0703 20.2868 10.3338 20.1509 10.694C20.1203 10.775 20.1289 10.8401 20.1289 10.925V14.8778C20.1289 14.9646 20.1212 15.0387 20.0724 15.1028L20.0723 15.1026ZM12.3177 14.7423C12.3177 14.7512 12.3225 14.7561 12.3321 14.7561H19.6438C19.6534 14.7561 19.6582 14.7512 19.6582 14.7423L19.6515 12.1961C19.6515 12.1862 19.6477 12.1812 19.6381 12.1812L12.3322 12.2C12.3226 12.2 12.3178 12.2039 12.3178 12.2138L12.3177 14.7423ZM4.42715 14.7403C4.42715 14.7512 4.43289 14.7561 4.44246 14.7561H11.8277C11.8392 14.7561 11.844 14.7512 11.844 14.7403V12.2167C11.844 12.2049 11.8392 12.2 11.8277 12.2L4.44246 12.2177C4.43289 12.2177 4.42715 12.2237 4.42715 12.2335V14.7403ZM3.69044 18.5095C3.69044 18.5213 3.69618 18.5282 3.70957 18.5282L4.63572 18.5045C4.64912 18.5026 4.65486 18.4966 4.65294 18.4818L4.62233 18.165C4.62137 18.1532 4.61658 18.1463 4.6051 18.1463H3.7C3.68756 18.1463 3.68086 18.1532 3.68086 18.166L3.69044 18.5095ZM20.4168 18.4818L20.4081 18.1631C20.4081 18.1532 20.4034 18.1463 20.3919 18.1463H19.459C19.4514 18.1463 19.4475 18.1502 19.4485 18.1591L19.4772 18.4591C19.4782 18.471 19.4849 18.4769 19.4973 18.4769C19.8599 18.4749 20.1029 18.467 20.4014 18.4966C20.412 18.4976 20.4168 18.4937 20.4168 18.4818Z"/>
</mask>
<path d="M3.2666 18.165C3.26948 18.1532 3.26373 18.1462 3.25225 18.1462C2.97479 18.1472 2.71837 18.1472 2.48206 18.1472C2.44666 18.1472 2.40264 18.1541 2.35098 18.167C2.31845 18.1749 2.27539 18.1699 2.22277 18.1512C1.93 18.0446 1.66403 17.8304 1.47935 17.5669C1.29277 17.3044 1.15691 17.0063 1.08133 16.6856C1.0708 16.6382 1.06506 16.5997 1.06506 16.5721C1.05549 15.9562 1.04688 15.1844 1.03827 14.2538C1.02679 13.1879 1.02105 12.646 1.02105 12.6283C1.01914 12.272 1.01148 11.6354 1 10.7205C1 10.6337 1.00765 10.532 1.04688 10.4511C1.12342 10.2942 1.21815 10.1471 1.32912 10.0089C1.59703 9.67732 1.93477 9.47598 2.34425 9.40296C2.35095 9.40198 2.35478 9.39803 2.35478 9.39013C2.36817 8.13474 2.37965 7.28104 2.38635 6.82896C2.38922 6.70066 2.43993 6.60789 2.49638 6.47168C2.64755 6.09762 2.88676 5.73443 3.2063 5.49067C3.43784 5.31598 3.69043 5.18175 3.96407 5.087C4.05497 5.05542 4.16308 5.03864 4.26067 5.01101C4.28746 5.00311 4.32381 4.99916 4.36974 5.00015C6.41244 5.00508 8.1988 5.01495 9.78034 5.01594C11.957 5.0189 15.3134 5.0268 19.8493 5.03864C19.9058 5.03864 19.9555 5.04752 19.9976 5.06331C20.0397 5.07812 20.0866 5.10772 20.1392 5.12352C20.476 5.22517 20.8185 5.35051 21.1037 5.56961C21.3142 5.73442 21.4864 5.9397 21.6175 6.18743C21.6452 6.23973 21.6682 6.295 21.6873 6.35422C21.7026 6.4006 21.7218 6.44107 21.7361 6.47265C21.7591 6.52397 21.7667 6.57825 21.7696 6.63352C21.7782 6.86743 21.7782 7.11119 21.7868 7.35202C21.7973 7.62244 21.804 7.81984 21.804 7.94122C21.806 8.22152 21.8203 8.44357 21.827 8.77814C21.8347 9.09692 21.8404 9.32393 21.8471 9.4611C21.8481 9.47393 21.8547 9.4838 21.8672 9.48774C22.4508 9.67329 22.8842 10.1549 22.9751 10.7846C22.9847 10.8556 22.979 10.9336 22.9866 10.9918C22.9914 11.0362 22.9952 11.0797 22.9952 11.1241C22.9962 12.9233 22.999 14.7204 23 16.5196C23 16.6034 22.9847 16.709 22.979 16.7732C22.9369 17.1838 22.6852 17.5627 22.3857 17.8332C22.2145 17.9851 21.9915 18.1154 21.7677 18.1628C21.716 18.1737 21.6825 18.1707 21.6222 18.1608C21.5715 18.151 21.5103 18.146 21.4414 18.147C21.1706 18.147 20.9869 18.147 20.8903 18.146C20.8817 18.146 20.8779 18.15 20.8779 18.1589C20.8874 18.2793 20.8913 18.4016 20.8894 18.526C20.8865 18.6632 20.8817 18.7846 20.8032 18.8813C20.7076 18.9977 20.5918 18.9958 20.4473 18.9879C20.3086 18.979 20.1833 18.9681 20.0378 18.9642C19.7843 18.9563 19.5594 18.9474 19.3662 18.9346C19.2475 18.9277 19.1308 18.8566 19.0868 18.7372C19.0686 18.6868 19.0571 18.6355 19.0533 18.5842C19.0466 18.5062 19.037 18.3829 19.0217 18.2131V18.1628C19.0217 18.1529 19.016 18.147 19.0064 18.147H5.11204C5.0996 18.147 5.09291 18.1529 5.09578 18.1657C5.11587 18.296 5.12639 18.4292 5.12544 18.5674C5.12352 18.6444 5.11969 18.6977 5.11395 18.7263C5.08429 18.8457 5.02306 18.9237 4.92834 18.9622C4.88911 18.978 4.82405 18.9869 4.73507 18.9898C4.6547 18.9918 4.5131 18.9947 4.31121 18.9987C4.05766 19.0026 3.81272 18.9977 3.57737 18.9829C3.48934 18.978 3.37644 18.9444 3.32285 18.8714C3.25875 18.7845 3.25493 18.6789 3.25397 18.5634C3.25205 18.442 3.25397 18.3266 3.25875 18.217C3.25971 18.2012 3.26258 18.1845 3.26641 18.1647L3.2666 18.165ZM19.6667 10.6563C19.8886 9.8796 20.5852 9.40883 21.3563 9.40292C21.3659 9.40292 21.3726 9.39798 21.3716 9.38614C21.364 9.21343 21.3582 9.04268 21.3563 8.86996C21.3506 8.56796 21.3381 8.26498 21.3314 7.96197C21.3219 7.52376 21.3027 7.06878 21.3027 6.77764C21.3027 6.69671 21.297 6.64342 21.2874 6.62171C21.2578 6.5546 21.2243 6.44998 21.186 6.38583C21.0387 6.13811 20.855 5.94861 20.6368 5.81834C20.4694 5.71866 20.2752 5.63279 20.0532 5.56174C20.0522 5.56174 20.0398 5.55681 20.0149 5.54891C19.9795 5.53608 19.9489 5.52917 19.9221 5.52917C17.2038 5.51832 13.9357 5.51042 10.1162 5.5045C7.89264 5.50055 6.03067 5.49463 4.53339 5.48871C4.5133 5.48871 4.49416 5.49068 4.47311 5.49463C4.42145 5.50845 4.37648 5.51634 4.31524 5.51733C4.23775 5.51733 4.16216 5.53213 4.08849 5.55681C3.9555 5.60418 3.8292 5.6634 3.71151 5.73347C3.53546 5.8371 3.37282 5.94862 3.24077 6.09765C3.0896 6.27036 2.96522 6.46875 2.86859 6.69376C2.84946 6.73719 2.85998 6.80529 2.85998 6.83983C2.84659 7.78039 2.83893 8.38833 2.83702 8.66469C2.83415 8.95681 2.83128 9.19764 2.82745 9.38615C2.8265 9.39305 2.83032 9.39503 2.83702 9.397C3.19293 9.42562 3.51823 9.54504 3.81103 9.75625C4.077 9.94772 4.27792 10.2231 4.41572 10.5241C4.43868 10.5734 4.45208 10.6169 4.4559 10.6544C4.46164 10.7284 4.4272 10.7906 4.4272 10.8695C4.4272 11.1715 4.4272 11.4538 4.42624 11.7153C4.42624 11.7242 4.43103 11.7301 4.44059 11.7301L19.6427 11.6926C19.6513 11.6926 19.6551 11.6887 19.6551 11.6798C19.6542 11.5525 19.6542 11.3127 19.6542 10.9603C19.6542 10.9544 19.6513 10.9139 19.6465 10.8379C19.6427 10.7758 19.6494 10.7155 19.6667 10.6563ZM20.0723 15.1026C20.0254 15.1667 19.9671 15.2101 19.8982 15.2299C19.8638 15.2407 19.7949 15.2457 19.6925 15.2457H4.37748C4.31147 15.2457 4.23397 15.2407 4.1823 15.2082C4.14786 15.1864 4.10863 15.1618 4.06175 15.1332C3.97181 15.0799 3.95459 14.9673 3.95459 14.8588V10.8183C3.95459 10.7808 3.95937 10.7571 3.96607 10.7137C3.96798 10.6999 3.96224 10.6782 3.94885 10.6496C3.8149 10.3781 3.61779 10.1758 3.35851 10.0426C3.13749 9.92811 2.90403 9.87975 2.66101 9.87284C2.38546 9.86495 2.09651 9.93897 1.87455 10.1087C1.71381 10.2311 1.57987 10.3841 1.47271 10.5637C1.45262 10.6012 1.46888 10.6723 1.4708 10.7048C1.48228 11.3888 1.48993 12.0747 1.49376 12.7586C1.49376 12.8731 1.49471 12.9708 1.49567 13.0498C1.50715 13.7061 1.51481 14.3634 1.51768 15.0197C1.51768 15.0987 1.51863 15.1944 1.5215 15.3109C1.5282 15.7234 1.53299 16.1369 1.53681 16.5514C1.53681 16.5702 1.53394 16.6107 1.53012 16.6294C1.51863 16.6689 1.53586 16.7242 1.54829 16.7567C1.60092 16.8959 1.67746 17.041 1.77696 17.1939C1.90708 17.3894 2.07549 17.5423 2.28309 17.6519C2.29171 17.6558 2.30319 17.6578 2.32041 17.6578C2.71843 17.6608 9.12689 17.6608 21.5487 17.6578C21.6396 17.6578 21.7009 17.6499 21.7774 17.6756C21.8042 17.6845 21.8176 17.6815 21.8405 17.6697C21.9668 17.6006 22.0759 17.5137 22.1678 17.4111C22.318 17.2384 22.4414 17.036 22.493 16.8189C22.5026 16.7735 22.5084 16.74 22.5093 16.7163C22.5141 16.6018 22.5275 16.5169 22.5275 16.4123C22.5237 13.5441 22.5218 11.7738 22.5246 11.0987V11.0326C22.5284 10.9773 22.516 10.9309 22.5064 10.8618C22.4567 10.4562 22.1831 10.1256 21.8157 9.98344C21.5258 9.87191 21.2339 9.86303 20.9364 9.95778C20.5805 10.0703 20.2868 10.3338 20.1509 10.694C20.1203 10.775 20.1289 10.8401 20.1289 10.925V14.8778C20.1289 14.9646 20.1212 15.0387 20.0724 15.1028L20.0723 15.1026ZM12.3177 14.7423C12.3177 14.7512 12.3225 14.7561 12.3321 14.7561H19.6438C19.6534 14.7561 19.6582 14.7512 19.6582 14.7423L19.6515 12.1961C19.6515 12.1862 19.6477 12.1812 19.6381 12.1812L12.3322 12.2C12.3226 12.2 12.3178 12.2039 12.3178 12.2138L12.3177 14.7423ZM4.42715 14.7403C4.42715 14.7512 4.43289 14.7561 4.44246 14.7561H11.8277C11.8392 14.7561 11.844 14.7512 11.844 14.7403V12.2167C11.844 12.2049 11.8392 12.2 11.8277 12.2L4.44246 12.2177C4.43289 12.2177 4.42715 12.2237 4.42715 12.2335V14.7403ZM3.69044 18.5095C3.69044 18.5213 3.69618 18.5282 3.70957 18.5282L4.63572 18.5045C4.64912 18.5026 4.65486 18.4966 4.65294 18.4818L4.62233 18.165C4.62137 18.1532 4.61658 18.1463 4.6051 18.1463H3.7C3.68756 18.1463 3.68086 18.1532 3.68086 18.166L3.69044 18.5095ZM20.4168 18.4818L20.4081 18.1631C20.4081 18.1532 20.4034 18.1463 20.3919 18.1463H19.459C19.4514 18.1463 19.4475 18.1502 19.4485 18.1591L19.4772 18.4591C19.4782 18.471 19.4849 18.4769 19.4973 18.4769C19.8599 18.4749 20.1029 18.467 20.4014 18.4966C20.412 18.4976 20.4168 18.4937 20.4168 18.4818Z" fill="black"/>
<path d="M3.2666 18.165C3.26948 18.1532 3.26373 18.1462 3.25225 18.1462C2.97479 18.1472 2.71837 18.1472 2.48206 18.1472C2.44666 18.1472 2.40264 18.1541 2.35098 18.167C2.31845 18.1749 2.27539 18.1699 2.22277 18.1512C1.93 18.0446 1.66403 17.8304 1.47935 17.5669C1.29277 17.3044 1.15691 17.0063 1.08133 16.6856C1.0708 16.6382 1.06506 16.5997 1.06506 16.5721C1.05549 15.9562 1.04688 15.1844 1.03827 14.2538C1.02679 13.1879 1.02105 12.646 1.02105 12.6283C1.01914 12.272 1.01148 11.6354 1 10.7205C1 10.6337 1.00765 10.532 1.04688 10.4511C1.12342 10.2942 1.21815 10.1471 1.32912 10.0089C1.59703 9.67732 1.93477 9.47598 2.34425 9.40296C2.35095 9.40198 2.35478 9.39803 2.35478 9.39013C2.36817 8.13474 2.37965 7.28104 2.38635 6.82896C2.38922 6.70066 2.43993 6.60789 2.49638 6.47168C2.64755 6.09762 2.88676 5.73443 3.2063 5.49067C3.43784 5.31598 3.69043 5.18175 3.96407 5.087C4.05497 5.05542 4.16308 5.03864 4.26067 5.01101C4.28746 5.00311 4.32381 4.99916 4.36974 5.00015C6.41244 5.00508 8.1988 5.01495 9.78034 5.01594C11.957 5.0189 15.3134 5.0268 19.8493 5.03864C19.9058 5.03864 19.9555 5.04752 19.9976 5.06331C20.0397 5.07812 20.0866 5.10772 20.1392 5.12352C20.476 5.22517 20.8185 5.35051 21.1037 5.56961C21.3142 5.73442 21.4864 5.9397 21.6175 6.18743C21.6452 6.23973 21.6682 6.295 21.6873 6.35422C21.7026 6.4006 21.7218 6.44107 21.7361 6.47265C21.7591 6.52397 21.7667 6.57825 21.7696 6.63352C21.7782 6.86743 21.7782 7.11119 21.7868 7.35202C21.7973 7.62244 21.804 7.81984 21.804 7.94122C21.806 8.22152 21.8203 8.44357 21.827 8.77814C21.8347 9.09692 21.8404 9.32393 21.8471 9.4611C21.8481 9.47393 21.8547 9.4838 21.8672 9.48774C22.4508 9.67329 22.8842 10.1549 22.9751 10.7846C22.9847 10.8556 22.979 10.9336 22.9866 10.9918C22.9914 11.0362 22.9952 11.0797 22.9952 11.1241C22.9962 12.9233 22.999 14.7204 23 16.5196C23 16.6034 22.9847 16.709 22.979 16.7732C22.9369 17.1838 22.6852 17.5627 22.3857 17.8332C22.2145 17.9851 21.9915 18.1154 21.7677 18.1628C21.716 18.1737 21.6825 18.1707 21.6222 18.1608C21.5715 18.151 21.5103 18.146 21.4414 18.147C21.1706 18.147 20.9869 18.147 20.8903 18.146C20.8817 18.146 20.8779 18.15 20.8779 18.1589C20.8874 18.2793 20.8913 18.4016 20.8894 18.526C20.8865 18.6632 20.8817 18.7846 20.8032 18.8813C20.7076 18.9977 20.5918 18.9958 20.4473 18.9879C20.3086 18.979 20.1833 18.9681 20.0378 18.9642C19.7843 18.9563 19.5594 18.9474 19.3662 18.9346C19.2475 18.9277 19.1308 18.8566 19.0868 18.7372C19.0686 18.6868 19.0571 18.6355 19.0533 18.5842C19.0466 18.5062 19.037 18.3829 19.0217 18.2131V18.1628C19.0217 18.1529 19.016 18.147 19.0064 18.147H5.11204C5.0996 18.147 5.09291 18.1529 5.09578 18.1657C5.11587 18.296 5.12639 18.4292 5.12544 18.5674C5.12352 18.6444 5.11969 18.6977 5.11395 18.7263C5.08429 18.8457 5.02306 18.9237 4.92834 18.9622C4.88911 18.978 4.82405 18.9869 4.73507 18.9898C4.6547 18.9918 4.5131 18.9947 4.31121 18.9987C4.05766 19.0026 3.81272 18.9977 3.57737 18.9829C3.48934 18.978 3.37644 18.9444 3.32285 18.8714C3.25875 18.7845 3.25493 18.6789 3.25397 18.5634C3.25205 18.442 3.25397 18.3266 3.25875 18.217C3.25971 18.2012 3.26258 18.1845 3.26641 18.1647L3.2666 18.165ZM19.6667 10.6563C19.8886 9.8796 20.5852 9.40883 21.3563 9.40292C21.3659 9.40292 21.3726 9.39798 21.3716 9.38614C21.364 9.21343 21.3582 9.04268 21.3563 8.86996C21.3506 8.56796 21.3381 8.26498 21.3314 7.96197C21.3219 7.52376 21.3027 7.06878 21.3027 6.77764C21.3027 6.69671 21.297 6.64342 21.2874 6.62171C21.2578 6.5546 21.2243 6.44998 21.186 6.38583C21.0387 6.13811 20.855 5.94861 20.6368 5.81834C20.4694 5.71866 20.2752 5.63279 20.0532 5.56174C20.0522 5.56174 20.0398 5.55681 20.0149 5.54891C19.9795 5.53608 19.9489 5.52917 19.9221 5.52917C17.2038 5.51832 13.9357 5.51042 10.1162 5.5045C7.89264 5.50055 6.03067 5.49463 4.53339 5.48871C4.5133 5.48871 4.49416 5.49068 4.47311 5.49463C4.42145 5.50845 4.37648 5.51634 4.31524 5.51733C4.23775 5.51733 4.16216 5.53213 4.08849 5.55681C3.9555 5.60418 3.8292 5.6634 3.71151 5.73347C3.53546 5.8371 3.37282 5.94862 3.24077 6.09765C3.0896 6.27036 2.96522 6.46875 2.86859 6.69376C2.84946 6.73719 2.85998 6.80529 2.85998 6.83983C2.84659 7.78039 2.83893 8.38833 2.83702 8.66469C2.83415 8.95681 2.83128 9.19764 2.82745 9.38615C2.8265 9.39305 2.83032 9.39503 2.83702 9.397C3.19293 9.42562 3.51823 9.54504 3.81103 9.75625C4.077 9.94772 4.27792 10.2231 4.41572 10.5241C4.43868 10.5734 4.45208 10.6169 4.4559 10.6544C4.46164 10.7284 4.4272 10.7906 4.4272 10.8695C4.4272 11.1715 4.4272 11.4538 4.42624 11.7153C4.42624 11.7242 4.43103 11.7301 4.44059 11.7301L19.6427 11.6926C19.6513 11.6926 19.6551 11.6887 19.6551 11.6798C19.6542 11.5525 19.6542 11.3127 19.6542 10.9603C19.6542 10.9544 19.6513 10.9139 19.6465 10.8379C19.6427 10.7758 19.6494 10.7155 19.6667 10.6563ZM20.0723 15.1026C20.0254 15.1667 19.9671 15.2101 19.8982 15.2299C19.8638 15.2407 19.7949 15.2457 19.6925 15.2457H4.37748C4.31147 15.2457 4.23397 15.2407 4.1823 15.2082C4.14786 15.1864 4.10863 15.1618 4.06175 15.1332C3.97181 15.0799 3.95459 14.9673 3.95459 14.8588V10.8183C3.95459 10.7808 3.95937 10.7571 3.96607 10.7137C3.96798 10.6999 3.96224 10.6782 3.94885 10.6496C3.8149 10.3781 3.61779 10.1758 3.35851 10.0426C3.13749 9.92811 2.90403 9.87975 2.66101 9.87284C2.38546 9.86495 2.09651 9.93897 1.87455 10.1087C1.71381 10.2311 1.57987 10.3841 1.47271 10.5637C1.45262 10.6012 1.46888 10.6723 1.4708 10.7048C1.48228 11.3888 1.48993 12.0747 1.49376 12.7586C1.49376 12.8731 1.49471 12.9708 1.49567 13.0498C1.50715 13.7061 1.51481 14.3634 1.51768 15.0197C1.51768 15.0987 1.51863 15.1944 1.5215 15.3109C1.5282 15.7234 1.53299 16.1369 1.53681 16.5514C1.53681 16.5702 1.53394 16.6107 1.53012 16.6294C1.51863 16.6689 1.53586 16.7242 1.54829 16.7567C1.60092 16.8959 1.67746 17.041 1.77696 17.1939C1.90708 17.3894 2.07549 17.5423 2.28309 17.6519C2.29171 17.6558 2.30319 17.6578 2.32041 17.6578C2.71843 17.6608 9.12689 17.6608 21.5487 17.6578C21.6396 17.6578 21.7009 17.6499 21.7774 17.6756C21.8042 17.6845 21.8176 17.6815 21.8405 17.6697C21.9668 17.6006 22.0759 17.5137 22.1678 17.4111C22.318 17.2384 22.4414 17.036 22.493 16.8189C22.5026 16.7735 22.5084 16.74 22.5093 16.7163C22.5141 16.6018 22.5275 16.5169 22.5275 16.4123C22.5237 13.5441 22.5218 11.7738 22.5246 11.0987V11.0326C22.5284 10.9773 22.516 10.9309 22.5064 10.8618C22.4567 10.4562 22.1831 10.1256 21.8157 9.98344C21.5258 9.87191 21.2339 9.86303 20.9364 9.95778C20.5805 10.0703 20.2868 10.3338 20.1509 10.694C20.1203 10.775 20.1289 10.8401 20.1289 10.925V14.8778C20.1289 14.9646 20.1212 15.0387 20.0724 15.1028L20.0723 15.1026ZM12.3177 14.7423C12.3177 14.7512 12.3225 14.7561 12.3321 14.7561H19.6438C19.6534 14.7561 19.6582 14.7512 19.6582 14.7423L19.6515 12.1961C19.6515 12.1862 19.6477 12.1812 19.6381 12.1812L12.3322 12.2C12.3226 12.2 12.3178 12.2039 12.3178 12.2138L12.3177 14.7423ZM4.42715 14.7403C4.42715 14.7512 4.43289 14.7561 4.44246 14.7561H11.8277C11.8392 14.7561 11.844 14.7512 11.844 14.7403V12.2167C11.844 12.2049 11.8392 12.2 11.8277 12.2L4.44246 12.2177C4.43289 12.2177 4.42715 12.2237 4.42715 12.2335V14.7403ZM3.69044 18.5095C3.69044 18.5213 3.69618 18.5282 3.70957 18.5282L4.63572 18.5045C4.64912 18.5026 4.65486 18.4966 4.65294 18.4818L4.62233 18.165C4.62137 18.1532 4.61658 18.1463 4.6051 18.1463H3.7C3.68756 18.1463 3.68086 18.1532 3.68086 18.166L3.69044 18.5095ZM20.4168 18.4818L20.4081 18.1631C20.4081 18.1532 20.4034 18.1463 20.3919 18.1463H19.459C19.4514 18.1463 19.4475 18.1502 19.4485 18.1591L19.4772 18.4591C19.4782 18.471 19.4849 18.4769 19.4973 18.4769C19.8599 18.4749 20.1029 18.467 20.4014 18.4966C20.412 18.4976 20.4168 18.4937 20.4168 18.4818Z" stroke="black" stroke-width="0.4" mask="url(#path-1-outside-1_1356_6540)"/>
</svg>
