<svg width="40" height="40" viewBox="0 0 40 40" fill="none" xmlns="http://www.w3.org/2000/svg">
<circle cx="20" cy="20" r="20" fill="#285260" fill-opacity="0.1"/>
<path d="M20 14.25C17.932 14.25 16.25 15.932 16.25 18C16.25 20.068 17.932 21.75 20 21.75C22.068 21.75 23.75 20.068 23.75 18C23.75 15.932 22.068 14.25 20 14.25ZM20 20.25C18.759 20.25 17.75 19.241 17.75 18C17.75 16.759 18.759 15.75 20 15.75C21.241 15.75 22.25 16.759 22.25 18C22.25 19.241 21.241 20.25 20 20.25ZM19.996 10.25C15.58 10.25 12.25 13.582 12.25 18C12.25 24.208 16.986 28.076 19.021 29.45C19.317 29.65 19.656 29.75 19.996 29.75C20.334 29.75 20.673 29.65 20.969 29.451C23.008 28.074 27.75 24.201 27.75 17.999C27.75 13.581 24.417 10.25 19.996 10.25ZM20.13 28.208C20.047 28.264 19.944 28.264 19.861 28.208C18.427 27.24 13.75 23.643 13.75 18C13.75 14.437 16.435 11.75 19.996 11.75C23.561 11.75 26.25 14.437 26.25 18C26.25 23.483 21.97 26.966 20.13 28.208Z" fill="#285260"/>
</svg>
