<svg width="40" height="40" viewBox="0 0 40 40" fill="none" xmlns="http://www.w3.org/2000/svg">
<circle cx="20" cy="20" r="20" fill="#285260" fill-opacity="0.1"/>
<path d="M25 12.25H15C12.381 12.25 10.25 14.381 10.25 17V23C10.25 25.619 12.381 27.75 15 27.75H25C27.619 27.75 29.75 25.619 29.75 23V17C29.75 14.381 27.619 12.25 25 12.25ZM15 13.75H25C26.354 13.75 27.515 14.5839 28.003 15.7629L21.803 19.897C20.708 20.626 19.292 20.626 18.198 19.897L11.998 15.7629C12.485 14.5829 13.646 13.75 15 13.75ZM25 26.25H15C13.208 26.25 11.75 24.792 11.75 23V17.401L17.365 21.145C18.165 21.678 19.082 21.9449 20 21.9449C20.917 21.9449 21.834 21.678 22.635 21.145L28.25 17.401V23C28.25 24.792 26.792 26.25 25 26.25Z" fill="#285260"/>
</svg>
