<svg width="18" height="18" viewBox="0 0 18 18" fill="none" xmlns="http://www.w3.org/2000/svg">
<path d="M17.7063 16.2933C18.097 16.684 18.097 17.3174 17.7063 17.708C17.5117 17.9027 17.2557 18.0013 16.9997 18.0013C16.7437 18.0013 16.4877 17.904 16.293 17.708L8.99967 10.4147L1.70633 17.708C1.51166 17.9027 1.25567 18.0013 0.999665 18.0013C0.743665 18.0013 0.487667 17.904 0.293 17.708C-0.0976667 17.3174 -0.0976667 16.684 0.293 16.2933L7.58634 9.00003L0.293 1.70674C-0.0976667 1.31607 -0.0976667 0.68269 0.293 0.292023C0.683667 -0.0986432 1.31701 -0.0986432 1.70767 0.292023L9.00101 7.5854L16.2943 0.292023C16.685 -0.0986432 17.3183 -0.0986432 17.709 0.292023C18.0997 0.68269 18.0997 1.31607 17.709 1.70674L10.4157 9.00003L17.7063 16.2933Z" fill="#1C1C1E"/>
</svg>
