<svg width="20" height="24" viewBox="0 0 20 24" fill="none" xmlns="http://www.w3.org/2000/svg">
<path d="M13.1628 0.642857C12.6977 0.214286 12.0465 0 11.3953 0H4.4186C2 0 0 1.84286 0 4.07143V19.9286C0 22.1571 2 24 4.4186 24H15.5814C18 24 20 22.1571 20 19.9286V7.58571C20 6.94286 19.7209 6.3 19.2093 5.87143L13.1628 0.642857ZM18.6047 19.9286C18.6047 21.4714 17.2558 22.7143 15.5814 22.7143H4.4186C2.74419 22.7143 1.39535 21.4714 1.39535 19.9286V4.07143C1.39535 2.52857 2.74419 1.28571 4.4186 1.28571H11.3953H11.4419V5.14286C11.4419 6.42857 12.6047 7.5 14 7.5H18.6047C18.6047 7.54286 18.6047 7.58571 18.6047 7.58571V19.9286Z" fill="black"/>
<path d="M16.1861 14.6572C16 14.3143 15.5349 14.1429 14.7442 14.1429C14.2791 14.1429 13.721 14.1857 13.0698 14.3143C12.1396 13.4143 11.2093 12.0857 10.5117 10.8C11.1628 8.18573 10.7442 7.67144 10.6047 7.50001C10.4652 7.32858 10.2326 7.20001 9.95353 7.20001C9.86051 7.20001 9.72097 7.20001 9.62795 7.24287C9.34888 7.32858 9.11632 7.54287 8.97679 7.80001C8.60469 8.52858 9.06981 9.85716 9.58144 10.8429C9.16283 12.4286 8.41865 14.3143 7.67446 15.8572C5.76748 16.6714 4.74423 17.4429 4.65121 18.2143C4.60469 18.4714 4.69772 18.9 5.20935 19.2429C5.34888 19.3286 5.53493 19.4143 5.67446 19.4143C6.09307 19.4143 6.55818 19.1143 7.06981 18.4286C7.4419 17.9572 7.86051 17.2714 8.27911 16.4572C9.62795 15.9 11.3024 15.4286 12.7442 15.1286C13.5349 15.8143 14.2326 16.2 14.8838 16.2C15.3489 16.2 15.721 16.0286 16 15.6429C16.2791 15.2572 16.3721 14.9143 16.1861 14.6572ZM5.72097 18.6C5.48841 18.4286 5.48841 18.3 5.48841 18.3C5.53493 18.0429 5.95353 17.5714 7.0233 17.0143C6.2326 18.3857 5.814 18.6 5.72097 18.6ZM9.72097 8.10001C9.76749 8.0143 9.814 8.0143 9.86051 7.97144H9.90702C10 8.05715 10.0931 8.48573 9.90702 9.47144C9.72097 8.9143 9.58144 8.35716 9.72097 8.10001ZM8.79074 15.4286C9.30237 14.3143 9.76748 13.0714 10.1396 11.9143C10.6977 12.8572 11.3954 13.7572 12.0466 14.4857C11.0233 14.7 9.86051 15.0429 8.79074 15.4286ZM15.3024 15.1714C15.1628 15.3857 14.9768 15.3857 14.8838 15.3857C14.6047 15.3857 14.2326 15.2143 13.8605 14.9572C14.1861 14.9143 14.5117 14.9143 14.7442 14.9143C15.2093 14.9143 15.3954 14.9572 15.4419 15C15.3954 15.0429 15.3954 15.0857 15.3024 15.1714Z" fill="black"/>
</svg>
