<?xml version="1.0" encoding="UTF-8"?>
<svg id="Layer_1" data-name="Layer 1" xmlns="http://www.w3.org/2000/svg" viewBox="0 0 179.09 163.41">
  <defs>
    <style>
      .cls-1 {
        fill: none;
        stroke: #a4afc1;
        stroke-miterlimit: 10;
        stroke-width: 3px;
      }

      .cls-2 {
        fill: #285260;
      }

      .cls-3 {
        fill: #fff;
      }

      .cls-4 {
        fill: #b4d7d8;
      }

      .cls-5 {
        fill: #f3f3f1;
      }
    </style>
  </defs>
  <path class="cls-3" d="M10.35,78.69s-18.82-26.71-5.69-43.78C17.79,17.83,69.45-15.88,132.05,8.64c62.6,24.52,44.65,80.99,44.65,80.99,0,0-8.08,67.33-105.07,73.55-57.79,3.7-51.66-37.65-51.66-37.65,1.58-16.91-.43-32.86-9.63-46.84Z"/>
  <path class="cls-5" d="M34.55,85.1v21.5s35.88,18.73,63.1,16.44c27.22-2.29,48.29-11.21,50.1-16.81,1.81-5.6,0-23.31,0-23.31l-20.16,9.53-40.76,3.83"/>
  <path class="cls-2" d="M42.42,86.33c-2.19,16.41,10.54,24.81,24.88,28.3,14.85,3.73,30.59,3.91,45.9,3.51-15.52,1.81-31.16,3.05-46.77.6-12.18-1.85-25.6-7.49-30.28-19.98-1.59-4.18-2.19-8.63-2.12-12.91l8.39.49h0Z"/>
  <path d="M63.96,76.2c-1.86,0-3.36-1.51-3.36-3.36v-28.6c0-.93-.19-1.87-.55-2.73-1.14-2.75-3.88-4.63-6.54-4.49-2.52.14-5.07,2.03-6.48,4.82-.84,1.65-2.87,2.31-4.52,1.47-1.65-.84-2.31-2.87-1.47-4.52,2.52-4.95,7.15-8.2,12.09-8.48,5.49-.33,10.9,3.23,13.13,8.63.7,1.69,1.06,3.48,1.06,5.31v28.6c0,1.86-1.51,3.36-3.36,3.36Z"/>
  <path d="M93.84,71.39c-1.86,0-3.36-1.51-3.36-3.36v-28.6c0-.93-.19-1.87-.54-2.73-1.14-2.75-3.89-4.69-6.54-4.49-2.52.14-5.07,2.03-6.48,4.82-.84,1.65-2.87,2.31-4.52,1.47-1.65-.84-2.31-2.86-1.47-4.52,2.52-4.95,7.15-8.2,12.09-8.48,5.5-.34,10.9,3.23,13.13,8.63.7,1.69,1.06,3.48,1.06,5.31v28.6c0,1.86-1.51,3.36-3.36,3.36Z"/>
  <rect x="63.77" y="44.64" width="30.25" height="6.72" transform="translate(-6.5 12.83) rotate(-8.93)"/>
  <rect x="63.77" y="57.67" width="30.25" height="6.72" transform="translate(-8.52 12.99) rotate(-8.93)"/>
  <ellipse class="cls-4" cx="91.96" cy="79.81" rx="53.79" ry="15.2"/>
  <rect x="146.19" y="73.99" width="6.72" height="26.65"/>
  <path d="M92.05,100.16c-34.7,0-60.87-11.25-60.87-26.18,0-7.19,6.15-13.78,17.31-18.57,1.7-.73,3.68.06,4.42,1.76.73,1.71-.06,3.68-1.76,4.42-8.41,3.61-13.24,8.13-13.24,12.39,0,9.2,22.24,19.45,54.14,19.45s54.14-10.25,54.14-19.45c0-8.51-19.71-18.32-49.05-19.36-1.86-.07-3.31-1.63-3.24-3.48s1.64-3.29,3.48-3.24c27.6.98,55.54,10.26,55.54,26.08,0,14.92-26.17,26.18-60.87,26.18Z"/>
  <path d="M92.05,126.41c-34.7,0-60.87-11.08-60.87-25.77h6.72c0,9.01,22.24,19.05,54.14,19.05s54.14-10.04,54.14-19.05h6.72c0,14.69-26.17,25.77-60.87,25.77Z"/>
  <rect x="31.18" y="73.99" width="6.72" height="26.65"/>
  <g>
    <line class="cls-1" x1="97.31" y1="7.03" x2="94.22" y2="16.89"/>
    <line class="cls-1" x1="108.97" y1="29.35" x2="98.97" y2="26.25"/>
  </g>
</svg>