<svg width="20" height="20" viewBox="0 0 20 20" fill="none" xmlns="http://www.w3.org/2000/svg">
<path d="M4.35 4.35H4C2.82978 4.35 1.91091 4.65945 1.28518 5.28518C0.659454 5.91091 0.35 6.82978 0.35 8V13.5C0.35 14.6858 1.31416 15.65 2.5 15.65H4.35V18C4.35 18.9098 5.09016 19.65 6 19.65H14C14.9098 19.65 15.65 18.9098 15.65 18V15.65H17.5C18.6858 15.65 19.65 14.6858 19.65 13.5V8C19.65 6.82978 19.3405 5.91091 18.7148 5.28518C18.0891 4.65945 17.1702 4.35 16 4.35H15.65V3C15.65 2.82701 15.5811 2.66224 15.4606 2.5405L15.4601 2.53993L13.4601 0.53993C13.3376 0.417461 13.1723 0.35 13 0.35H6C5.09016 0.35 4.35 1.09016 4.35 2V4.35ZM5.65 2C5.65 1.80704 5.80765 1.65 6 1.65H12.7308L14.35 3.26916V4.35H5.65V2ZM14.35 18C14.35 18.193 14.1924 18.35 14 18.35H6C5.80765 18.35 5.65 18.193 5.65 18V13.65H14.35V18ZM18.35 13.5C18.35 13.9683 17.9691 14.35 17.5 14.35H15.65V13C15.65 12.6412 15.3588 12.35 15 12.35H5C4.64116 12.35 4.35 12.6412 4.35 13V14.35H2.5C2.03094 14.35 1.65 13.9683 1.65 13.5V8C1.65 7.15431 1.83894 6.57645 2.20769 6.20769C2.57645 5.83894 3.15431 5.65 4 5.65H16C16.8457 5.65 17.4236 5.83894 17.7923 6.20769C18.1611 6.57645 18.35 7.15431 18.35 8V13.5ZM15 9.90195C15.4968 9.90195 15.9 9.4988 15.9 9.00195C15.9 8.50398 15.4967 8.10195 15 8.10195C14.5032 8.10195 14.1 8.50511 14.1 9.00195C14.1 9.4988 14.5032 9.90195 15 9.90195Z" fill="#285260" stroke="#285260" stroke-width="0.3"/>
</svg>
