<svg width="56" height="56" viewBox="0 0 56 56" fill="none" xmlns="http://www.w3.org/2000/svg">
<path d="M13.0309 49.5181C23.7906 49.5181 31.1795 55.0917 36.3642 55.0917C41.5489 55.0917 52.4377 52.1112 52.4377 28.2599C52.4377 4.40854 37.7891 0.906982 32.0864 0.906982C5.38219 0.906982 -6.0247 49.5181 13.0309 49.5181Z" fill="white"/>
<path d="M35.5833 5.98779L36.6833 4.88785L38.8831 7.08774L37.7832 8.18768L35.5833 5.98779Z" fill="#A4AFC1"/>
<path d="M41.9009 12.3018L43.0009 11.2018L45.2008 13.4017L44.1008 14.5016L41.9009 12.3018Z" fill="#A4AFC1"/>
<path d="M41.6243 7.0791L43.8242 4.87921L44.9242 5.97916L42.7243 8.17905L41.6243 7.0791Z" fill="#A4AFC1"/>
<path d="M40.5844 24.7178L36.1667 20.5022V12.0556H31.5V16.0533L25.6667 10.5L10.7489 24.7178C10.5933 24.8578 10.5 25.06 10.5 25.2778C10.5 25.7133 10.8422 26.0556 11.2778 26.0556H15.1667V36.9444C15.1667 38.2324 16.212 39.2778 17.5 39.2778H34.6111C35.4698 39.2778 36.1667 38.5809 36.1667 37.7222V26.0556H40.0556C40.4911 26.0556 40.8333 25.7133 40.8333 25.2778C40.8333 25.06 40.74 24.8578 40.5844 24.7178Z" fill="#F3F3F1"/>
<path d="M37.3334 45.5001C37.3334 45.5001 45.5 41.8897 45.5 34.6672C45.5 31.7786 45.5 28.5554 45.5 28.5554L37.3334 26.0557L29.1667 28.5554V34.6672C29.1667 41.8897 37.3334 45.5001 37.3334 45.5001Z" fill="#B4D7D8"/>
<path d="M35 16.0534V12.0557H31.5V12.7214L35 16.0534Z" fill="#D5DBE1"/>
<path d="M18.6667 36.9446V26.0557H15.1667V36.9446C15.1667 38.2326 16.212 39.2779 17.5 39.2779H21C19.712 39.2779 18.6667 38.2326 18.6667 36.9446Z" fill="#285260"/>
<path d="M14 25.2778C14 25.06 14.0933 24.8578 14.2489 24.7178L27.4182 12.1676L25.6667 10.5L10.7489 24.7178C10.5933 24.8578 10.5 25.06 10.5 25.2778C10.5 25.7133 10.8422 26.0556 11.2778 26.0556H14.7778C14.3422 26.0556 14 25.7133 14 25.2778Z" fill="#285260"/>
<path d="M32.6667 34.6672C32.6667 30.3334 32.6667 28.5554 32.6667 28.5554L39.0834 26.5908L37.3334 26.0557L29.1667 28.5554V34.6672C29.1667 41.8897 37.3334 45.5001 37.3334 45.5001C37.3334 45.5001 38.066 45.1719 39.0834 44.531C36.6847 43.0206 32.6667 39.7368 32.6667 34.6672Z" fill="#285260"/>
<path d="M37.3333 46.6666C37.1716 46.6666 37.0113 46.634 36.8604 46.5671C36.4996 46.4069 28 42.5569 28 34.6671V28.5553C28 28.042 28.3344 27.5893 28.8244 27.44L36.9911 24.9402C37.2136 24.8702 37.4531 24.8702 37.674 24.9402L45.8407 27.44C46.3307 27.5893 46.6651 28.042 46.6651 28.5553V34.6671C46.6651 42.5569 38.1656 46.4069 37.8047 46.5655C37.6553 46.634 37.4951 46.6666 37.3333 46.6666ZM30.3333 29.4186V34.6671C30.3333 40.1022 35.6876 43.3331 37.3318 44.198C38.9744 43.33 44.3333 40.082 44.3333 34.6671V29.4186L37.3333 27.2751L30.3333 29.4186Z" fill="black"/>
<path d="M36.5556 38.889C36.246 38.889 35.9489 38.7661 35.7311 38.5468L33.0089 35.8246L34.6594 34.1741L36.526 36.0392L40.7571 31.4814L42.4682 33.0697L37.4127 38.5141C37.1965 38.7443 36.8962 38.8797 36.5789 38.8859C36.5696 38.889 36.5634 38.889 36.5556 38.889Z" fill="black"/>
<path d="M23.7222 40.4444H17.5C15.5711 40.4444 14 38.8733 14 36.9444V27.2222H11.2778C10.206 27.2222 9.33331 26.3495 9.33331 25.2778C9.33331 24.7349 9.56354 24.2138 9.96642 23.8513L24.8609 9.65531C25.3104 9.22753 26.0182 9.22753 26.4709 9.65531L30.3333 13.3311V12.0555C30.3333 11.4115 30.856 10.8889 31.5 10.8889H36.1666C36.8106 10.8889 37.3333 11.4115 37.3333 12.0555V20.5022H35V13.2222H32.6666V16.0533C32.6666 16.52 32.3882 16.9415 31.9604 17.1251C31.5311 17.3118 31.0333 17.22 30.6958 16.898L25.6666 12.1115L12.2609 24.8889H15.1666C15.8106 24.8889 16.3333 25.4115 16.3333 26.0555V36.9444C16.3333 37.5869 16.8575 38.1111 17.5 38.1111H23.7222V40.4444ZM11.5655 25.5515L11.5546 25.5624C11.5578 25.5593 11.5609 25.5562 11.5655 25.5515Z" fill="black"/>
</svg>
