<svg width="56" height="56" viewBox="0 0 56 56" fill="none" xmlns="http://www.w3.org/2000/svg">
<path d="M42.9694 49.5174C32.2096 49.5174 24.8207 55.0909 19.6361 55.0909C14.4514 55.0909 3.5625 52.1105 3.5625 28.2591C3.5625 4.4078 18.2112 0.90625 23.9138 0.90625C50.6181 0.90625 62.0249 49.5174 42.9694 49.5174Z" fill="white"/>
<path d="M41.8477 7.17969L42.9476 6.07974L45.1475 8.27963L44.0475 9.37958L41.8477 7.17969Z" fill="#A4AFC1"/>
<path d="M48.1719 13.5059L49.2718 12.4059L51.4717 14.6058L50.3718 15.7057L48.1719 13.5059Z" fill="#A4AFC1"/>
<path d="M47.8984 8.28125L50.0983 6.08136L51.1983 7.18131L48.9984 9.38119L47.8984 8.28125Z" fill="#A4AFC1"/>
<path d="M21.5283 20L17 15H37L32.8491 20H21.5283Z" fill="#B4D7D8"/>
<path d="M24.6132 26.9797C24.7373 27.099 24.8361 27.242 24.9035 27.4003C24.971 27.5586 25.0058 27.7288 25.006 27.9009V38.5882C25.006 38.7013 24.961 38.8098 24.8809 38.8898C24.8009 38.9698 24.6923 39.0147 24.5791 39.0147H19.4566C19.3434 39.0147 19.2348 39.0596 19.1548 39.1396C19.0747 39.2196 19.0298 39.3281 19.0298 39.4412V41.5735C19.0298 41.6866 19.0747 41.7951 19.1548 41.8751C19.2348 41.9551 19.3434 42 19.4566 42H33.9702C34.0835 42 34.192 41.9551 34.2721 41.8751C34.3521 41.7951 34.3971 41.6866 34.3971 41.5735V39.4412C34.3971 39.3281 34.3521 39.2196 34.2721 39.1396C34.192 39.0596 34.0835 39.0147 33.9702 39.0147H28.4209C28.3077 39.0147 28.1991 38.9698 28.1191 38.8898C28.039 38.8098 27.994 38.7013 27.994 38.5882V27.8796C27.9941 27.7127 28.0282 27.5476 28.0943 27.3944C28.1603 27.2411 28.257 27.1029 28.3782 26.9882L40.6081 15.2006C40.7919 15.0236 40.9185 14.7959 40.9718 14.5465C41.0251 14.2971 41.0026 14.0376 40.9071 13.8011C40.8117 13.5646 40.6477 13.362 40.4363 13.2192C40.2248 13.0765 39.9754 13.0002 39.7202 13H13.2798C13.0246 13.0002 12.7752 13.0765 12.5637 13.2192C12.3523 13.362 12.1883 13.5646 12.0929 13.8011C11.9975 14.0376 11.9749 14.2971 12.0282 14.5465C12.0815 14.7959 12.2081 15.0236 12.3919 15.2006L24.6132 26.9797ZM18.2358 15.5588H35.0844C35.1688 15.5592 35.2512 15.5845 35.3212 15.6317C35.3912 15.6788 35.4457 15.7457 35.4776 15.8237C35.5096 15.9018 35.5177 15.9876 35.5009 16.0702C35.4841 16.1529 35.4431 16.2287 35.3832 16.2881L32.4677 19.1497C32.308 19.3057 32.0934 19.393 31.87 19.3928H21.4501C21.2267 19.393 21.0122 19.3057 20.8525 19.1497L17.937 16.2881C17.877 16.2287 17.8361 16.1529 17.8192 16.0702C17.8024 15.9876 17.8105 15.9018 17.8425 15.8237C17.8745 15.7457 17.9289 15.6788 17.9989 15.6317C18.0689 15.5845 18.1513 15.5592 18.2358 15.5588Z" fill="black"/>
</svg>
