<svg width="56" height="56" viewBox="0 0 56 56" fill="none" xmlns="http://www.w3.org/2000/svg">
<path d="M42.9694 49.5174C32.2096 49.5174 24.8207 55.0909 19.6361 55.0909C14.4514 55.0909 3.5625 52.1105 3.5625 28.2591C3.5625 4.4078 18.2112 0.90625 23.9138 0.90625C50.6181 0.90625 62.0249 49.5174 42.9694 49.5174Z" fill="white"/>
<path d="M41.8477 7.17969L42.9476 6.07974L45.1475 8.27963L44.0475 9.37958L41.8477 7.17969Z" fill="#A4AFC1"/>
<path d="M48.1719 13.5059L49.2718 12.4059L51.4717 14.6058L50.3718 15.7057L48.1719 13.5059Z" fill="#A4AFC1"/>
<path d="M47.8984 8.28125L50.0983 6.08136L51.1983 7.18131L48.9984 9.38119L47.8984 8.28125Z" fill="#A4AFC1"/>
<path d="M45.5 28C45.5 29.7422 45.2511 31.3911 44.7689 32.9778C41.1911 31.3133 39.0911 24.1267 33.7089 24.1889C28.6844 24.2667 26.5533 27.3467 22.6489 29.9133C20.3467 27.7822 18.3711 25.7756 16.2089 25.8378C13.5178 25.9156 12.1489 27.72 10.5467 29.1822C10.5156 28.7933 10.5 28.3889 10.5 28C10.5 18.34 18.34 10.5 28 10.5C37.66 10.5 45.5 18.34 45.5 28Z" fill="#F3F3F1"/>
<path d="M43.0888 36.8361C40.071 42.0316 34.4399 45.5005 27.9999 45.5005C20.2066 45.5005 13.611 40.3983 11.3555 33.3672C21.9332 34.005 22.2599 40.9427 29.5244 40.9427C34.4244 40.9427 38.7644 37.9872 43.0888 36.8361Z" fill="#F3F3F1"/>
<path d="M44.6442 33.3674C44.2709 34.5963 43.742 35.7474 43.0887 36.8207V36.8363C38.7642 37.9874 34.4242 40.943 29.5242 40.943C22.2598 40.943 21.9331 34.0052 11.3553 33.3674C11.3398 33.3518 11.3242 33.3207 11.3242 33.3052C16.7376 33.0874 20.0664 31.6252 22.6487 29.9141C25.2153 32.3096 28.1709 34.8452 32.1842 34.8452C38.9198 34.8452 40.7398 33.6474 44.6442 33.3674Z" fill="#B4D7D8"/>
<path d="M44.7684 32.9787C44.7373 33.1187 44.7062 33.2432 44.644 33.3676C40.7395 33.6476 38.9195 34.8454 32.184 34.8454C28.1707 34.8454 25.2151 32.3099 22.6484 29.9143C26.5529 27.3476 28.684 24.2676 33.7084 24.1899C39.0907 24.1276 41.1907 31.3143 44.7684 32.9787Z" fill="#B4D7D8"/>
<path d="M22.6491 29.9129C20.0669 31.624 16.738 33.0862 11.3247 33.304C10.8891 31.9973 10.6402 30.6129 10.5469 29.1818C12.1491 27.7196 13.518 25.9151 16.2091 25.8373C18.3713 25.7751 20.3469 27.7818 22.6491 29.9129Z" fill="#B4D7D8"/>
<path d="M22.6491 29.9129C20.0669 31.624 16.738 33.0862 11.3247 33.304C10.8891 31.9973 10.6402 30.6129 10.5469 29.1818C12.1491 27.7196 13.518 25.9151 16.2091 25.8373C18.3713 25.7751 20.3469 27.7818 22.6491 29.9129Z" fill="#B4D7D8"/>
<path d="M29.75 10.5887C29.1744 10.5311 28.5911 10.5 28 10.5C18.34 10.5 10.5 18.34 10.5 28C10.5 28.3889 10.5156 28.7933 10.5467 29.1822C11.6604 28.1649 12.6716 26.9951 14.084 26.3433C14.8649 18.0367 21.4558 11.4131 29.75 10.5887Z" fill="#D5DBE1"/>
<path d="M37.2093 24.1899C36.5046 24.2007 35.8653 24.2832 35.2617 24.403C39.5317 25.5619 41.5586 31.4854 44.7693 32.9787C45.0291 32.1232 45.2157 31.249 45.3371 30.3514C43.1484 27.6696 40.9862 24.1463 37.2093 24.1899Z" fill="#D5DBE1"/>
<path d="M19.7091 25.8374C19.0293 25.8576 18.4335 25.9882 17.8984 26.1951C19.4415 26.8547 20.9567 28.3465 22.6491 29.9129C23.3553 29.4494 23.9931 28.9687 24.6107 28.4927C22.9322 26.9729 21.3751 25.7891 19.7091 25.8374Z" fill="#D5DBE1"/>
<path d="M15.0608 33.9303C13.9766 33.6534 12.7617 33.4527 11.3555 33.3672C13.611 40.3983 20.2066 45.5005 27.9999 45.5005C28.5552 45.5005 29.0966 45.4414 29.6395 45.3901C22.879 44.673 17.2821 40.1059 15.0608 33.9303Z" fill="#D5DBE1"/>
<path d="M33.0256 40.9426C36.1849 40.9426 39.1109 39.7153 41.9514 38.533C42.3605 37.9886 42.7463 37.427 43.09 36.8359C39.3271 37.8377 35.5518 40.2022 31.4062 40.7995C31.9103 40.8835 32.4391 40.9426 33.0256 40.9426Z" fill="#D5DBE1"/>
<path d="M35.6835 34.845C40.0111 34.845 42.3086 34.3503 44.4335 33.9225C44.4988 33.7343 44.5844 33.5585 44.6435 33.3672C41.2991 33.6067 39.4744 34.5183 34.7891 34.775C35.0846 34.8045 35.3755 34.845 35.6835 34.845Z" fill="#B4D7D8"/>
<path d="M14.8553 33.3674C14.8398 33.3518 14.8242 33.3207 14.8242 33.3052C18.8671 33.1418 21.7464 32.2847 24.0207 31.1492C23.5509 30.7416 23.0904 30.3278 22.6487 29.9141C20.0664 31.6252 16.7376 33.0874 11.3242 33.3052C11.3242 33.3207 11.3398 33.3518 11.3553 33.3674C21.9331 34.0052 22.2598 40.943 29.5242 40.943C30.1604 40.943 30.7858 40.8901 31.4049 40.7998C25.654 39.8494 24.5791 33.9538 14.8553 33.3674Z" fill="#B4D7D8"/>
<path d="M26.1484 29.9142C29.5053 27.7084 31.5618 25.134 35.2609 24.4029C34.7724 24.2707 34.2607 24.1835 33.7084 24.1898C28.684 24.2675 26.5529 27.3475 22.6484 29.9142C25.2151 32.3098 28.1707 34.8453 32.184 34.8453C33.15 34.8453 34.0055 34.8189 34.7895 34.7753C31.2304 34.43 28.5175 32.1262 26.1484 29.9142Z" fill="#B4D7D8"/>
<path d="M26.1491 29.9129C23.5669 31.624 20.238 33.0862 14.8247 33.304C14.3891 31.9973 14.1402 30.6129 14.0469 29.1818C15.6491 27.7196 17.018 25.9151 19.7091 25.8373C21.8713 25.7751 23.8469 27.7818 26.1491 29.9129Z" fill="#B4D7D8"/>
<path d="M27.9987 46.6673C19.9518 46.6673 12.888 41.5884 10.3307 34.0004L10.1845 33.8542L10.1658 33.5322C9.73959 32.182 9.47514 30.7462 9.38025 29.2607C9.34914 28.8515 9.33203 28.4253 9.33203 28.0007C9.33203 17.7075 17.7056 9.33398 27.9987 9.33398C38.2918 9.33398 46.6654 17.7075 46.6654 28.0007C46.6654 29.8455 46.4025 31.636 45.8829 33.3207C45.858 33.4435 45.8067 33.6318 45.7134 33.8464C45.3618 34.9944 44.8034 36.2467 44.0987 37.4367C40.7776 43.1284 34.6067 46.6673 27.9987 46.6673ZM12.3607 32.7327L12.3763 32.7467L12.4618 33.0173C14.6303 39.7855 20.8758 44.334 27.9987 44.334C33.7807 44.334 39.1785 41.2384 42.0874 36.2544C42.7034 35.2122 43.1887 34.128 43.534 33.0251C43.6087 32.84 43.618 32.7855 43.6305 32.7249C44.1065 31.1724 44.3336 29.6138 44.3336 28.0022C44.3336 18.9955 37.0069 11.6689 28.0003 11.6689C18.9936 11.6689 11.6654 18.994 11.6654 28.0007C11.6654 28.3647 11.6794 28.7333 11.7074 29.0973C11.7883 30.3729 12.0091 31.5909 12.3607 32.7327Z" fill="black"/>
<path d="M11.3699 34.4766L11.2734 32.1464C16.8548 31.9115 19.9363 30.3124 22.0005 28.9451C22.9992 28.2886 23.8859 27.5902 24.7445 26.9151C27.2443 24.9473 29.6057 23.0915 33.6906 23.0293H33.7948C37.5841 23.0293 39.8583 25.9429 41.8697 28.5157C43.0223 29.9904 44.1097 31.3842 45.2608 31.9177L44.2792 34.0349C42.6194 33.2649 41.3626 31.6564 40.031 29.9515C38.1721 27.5731 36.447 25.2973 33.7248 25.3626C30.4286 25.4124 28.5572 26.8855 26.1865 28.7491C25.2905 29.4537 24.3619 30.1833 23.2854 30.8926C19.8492 33.1684 16.1734 34.2744 11.3699 34.4766Z" fill="black"/>
<path d="M32.1843 36.0138C27.8536 36.0138 24.7036 33.4238 21.8476 30.7716L21.342 30.3003C19.4209 28.5098 17.7814 26.9014 16.2398 27.0056C14.4276 27.0554 13.3558 28.0992 12.1114 29.3063C11.8531 29.5567 11.5965 29.8072 11.332 30.0483L9.75781 28.3263C10.0036 28.1007 10.2431 27.8674 10.4858 27.634C11.878 26.2838 13.4554 24.7516 16.1729 24.6754C16.218 24.6738 16.2631 24.6738 16.3067 24.6738C18.7271 24.6738 20.7711 26.5809 22.9349 28.5954L23.4358 29.0636C26.0569 31.4981 28.6967 33.6836 32.1843 33.6836C36.238 33.6836 38.3909 33.2496 40.4707 32.8296C41.7711 32.5667 43 32.3194 44.5649 32.2105L44.7283 34.5376C43.3127 34.6356 42.1569 34.8705 40.9327 35.1178C38.8436 35.5363 36.4729 36.0138 32.1843 36.0138Z" fill="black"/>
<path d="M29.5217 42.1015C25.7541 42.1015 23.5748 40.3764 21.4639 38.7073C19.0699 36.8142 16.595 34.8557 11.2812 34.5353L11.4213 32.2051C17.4677 32.5706 20.4855 34.96 22.9121 36.8764C24.953 38.4911 26.5661 39.7666 29.5217 39.7666C32.4119 39.7666 35.2041 38.6093 37.9046 37.4893C39.499 36.8282 41.1495 36.1453 42.7984 35.7097L43.0924 36.8313L44.2606 36.8235V37.7382L43.3895 37.9669C41.8946 38.3604 40.3888 38.9826 38.7959 39.6437C35.8855 40.8555 32.877 42.1015 29.5217 42.1015Z" fill="black"/>
</svg>
