<svg width="56" height="56" viewBox="0 0 56 56" fill="none" xmlns="http://www.w3.org/2000/svg">
<path d="M49.518 42.9691C49.518 32.2094 55.0916 24.8205 55.0916 19.6358C55.0916 14.4511 52.1111 3.56226 28.2598 3.56226C4.40845 3.56226 0.906891 18.2109 0.906891 23.9136C0.906891 50.6178 49.518 62.0247 49.518 42.9691Z" fill="white"/>
<path d="M42.9487 4.11572L44.0487 3.01578L46.2486 5.21567L45.1486 6.31561L42.9487 4.11572Z" fill="#A4AFC1"/>
<path d="M49.2741 10.4407L50.3741 9.34073L52.5739 11.5406L51.474 12.6406L49.2741 10.4407Z" fill="#A4AFC1"/>
<path d="M48.9986 5.2168L51.1985 3.01691L52.2985 4.11685L50.0986 6.31674L48.9986 5.2168Z" fill="#A4AFC1"/>
<path d="M43.68 12.7867L40.6778 19.6156L41.6889 23.38L41.8911 24.1267C42.1089 24.9667 41.6267 25.8067 40.7867 26.04L19.7555 31.6711C18.0911 32.1222 16.3955 31.1267 15.9444 29.4778L13.9378 21.9644C13.4867 20.3 14.4667 18.5889 16.1311 18.1533L44.6755 10.5L43.68 12.7867Z" fill="#F3F3F1"/>
<path d="M43.1978 22.9755L41.6889 23.38L40.6778 19.6155L43.68 12.7866L45.3911 19.1644C45.8422 20.8288 44.8467 22.54 43.1978 22.9755Z" fill="#B4D7D8"/>
<path d="M31.066 30.3567L30.6631 28.854L23.1498 30.8669L23.5527 32.3696C23.7751 33.2002 24.6276 33.6918 25.4582 33.4693L29.9662 32.2622C30.7953 32.0398 31.2884 31.1873 31.066 30.3567Z" fill="#B4D7D8"/>
<path d="M12.8333 45.4999H10.5V33.8333H12.8333C13.692 33.8333 14.3889 34.5301 14.3889 35.3888V43.9444C14.3889 44.803 13.692 45.4999 12.8333 45.4999Z" fill="#B4D7D8"/>
<path d="M19.4444 29.4778L17.4378 21.9644C16.9867 20.3 17.9667 18.5889 19.6311 18.1533L44.2135 11.5624L44.6755 10.5L16.1311 18.1533C14.4667 18.5889 13.4867 20.3 13.9378 21.9644L15.9444 29.4778C16.3955 31.1267 18.0911 32.1222 19.7555 31.6711L20.9004 31.3647C20.2098 30.9664 19.67 30.3038 19.4444 29.4778Z" fill="#D5DBE1"/>
<path d="M27.0527 32.3696L26.6498 30.8669L30.8964 29.7282L30.6616 28.854L23.1482 30.8669L23.5511 32.3696C23.7736 33.2002 24.626 33.6918 25.4567 33.4693L27.3669 32.9576C27.2269 32.7896 27.1133 32.5951 27.0527 32.3696Z" fill="#B4D7D8"/>
<path d="M14 34.3886C13.7153 34.0557 13.3062 33.8333 12.8333 33.8333H10.5V45.4999H12.8333C13.3062 45.4999 13.7153 45.2775 14 44.9446V34.3886Z" fill="#B4D7D8"/>
<path d="M18.9545 32.9466C17.0645 32.9466 15.3316 31.6835 14.8198 29.7748L12.8069 22.263C12.5113 21.1586 12.6622 20.0059 13.2347 19.0166C13.8056 18.0257 14.728 17.3179 15.8325 17.0239L44.38 9.37369C44.8156 9.26324 45.2745 9.40013 45.5669 9.73924C45.8593 10.0799 45.9309 10.5575 45.7505 10.9681L41.9191 19.7166L43.0205 23.8295C43.4078 25.2808 42.5445 26.7772 41.0947 27.1646L20.0605 32.8019C19.6887 32.8984 19.3185 32.9466 18.9545 32.9466ZM42.6378 12.2546L16.4345 19.2779C15.932 19.4117 15.5136 19.7337 15.2538 20.1832C14.994 20.6328 14.924 21.157 15.0593 21.6579L17.0722 29.1697C17.3491 30.2072 18.4116 30.8248 19.4538 30.5464L40.488 24.909C40.6965 24.8546 40.8193 24.6399 40.7633 24.4315L39.5578 19.9266C39.4894 19.6699 39.5111 19.3992 39.6169 19.1566L42.6378 12.2546Z" fill="black"/>
<path d="M15.0407 26.0913L14.4355 23.8373L25.7055 20.818C26.0042 20.7386 26.3215 20.7791 26.5907 20.9346L28.0762 21.7933L40.3807 18.4971L40.9858 20.7511L28.2131 24.1717C27.9113 24.248 27.5955 24.2091 27.328 24.0551L25.8424 23.1964L15.0407 26.0913Z" fill="black"/>
<path d="M41.9922 24.5062L41.3871 22.2522L42.8913 21.8493C43.9273 21.5724 44.5433 20.5053 44.2664 19.4677L42.5538 13.0822L44.8078 12.4771L46.5204 18.8626C47.1302 21.1431 45.7722 23.4935 43.4949 24.1017L41.9922 24.5062Z" fill="black"/>
<path d="M25.0569 34.6906C23.8544 34.6906 22.7516 33.8863 22.4264 32.6714L22.0236 31.1688L24.2776 30.5637L24.6804 32.0679C24.7349 32.2748 24.9573 32.3992 25.158 32.3432L29.6629 31.1361C29.8698 31.0817 29.9942 30.867 29.9382 30.6586L29.5353 29.1559L31.7893 28.5508L32.1922 30.0534C32.5811 31.5032 31.7178 32.9997 30.2696 33.3901L25.7616 34.5972C25.5251 34.6594 25.2902 34.6906 25.0569 34.6906Z" fill="black"/>
<path d="M12.8333 46.6667H10.5C9.85601 46.6667 9.33334 46.1441 9.33334 45.5001V33.8334C9.33334 33.1894 9.85601 32.6667 10.5 32.6667H12.8333C14.3345 32.6667 15.5556 33.8879 15.5556 35.389V43.9445C15.5556 45.4456 14.3345 46.6667 12.8333 46.6667ZM11.6667 44.3334H12.8333C13.048 44.3334 13.2222 44.1592 13.2222 43.9445V35.389C13.2222 35.1743 13.048 35.0001 12.8333 35.0001H11.6667V44.3334Z" fill="black"/>
<path d="M14.7778 38.5H28.0155V40.8333H14.7778V38.5Z" fill="black"/>
<path d="M29.5556 41.9999C30.8442 41.9999 31.8889 40.9553 31.8889 39.6666C31.8889 38.3779 30.8442 37.3333 29.5556 37.3333C28.2669 37.3333 27.2222 38.3779 27.2222 39.6666C27.2222 40.9553 28.2669 41.9999 29.5556 41.9999Z" fill="black"/>
<path d="M26.5686 33.1743L28.8165 32.5541L30.28 37.858L28.0322 38.4782L26.5686 33.1743Z" fill="black"/>
</svg>
