<?xml version="1.0" encoding="UTF-8"?>
<svg id="Layer_1" data-name="Layer 1" xmlns="http://www.w3.org/2000/svg" viewBox="0 0 167.41 187.15">
  <defs>
    <style>
      .cls-1 {
        fill: none;
        stroke: #a4afc1;
        stroke-miterlimit: 10;
        stroke-width: 3px;
      }

      .cls-2 {
        fill: #285260;
      }

      .cls-3 {
        fill: #fff;
      }

      .cls-4 {
        fill: #b4d7d8;
      }

      .cls-5 {
        fill: #f3f3f1;
      }
    </style>
  </defs>
  <path class="cls-3" d="M94.19,175.16c-8.51,3.71-16.83,7.98-25.85,10.25-15.67,3.94-33.21,1.44-45.35-9.84C-5.44,149.14.51,74.39.53,74.24,4.4,25.63,44.16-13.79,94.1,4.61c42.93,15.82,71.2,66.02,73.22,110.18.48,10.45-.9,21.02-4.83,30.75-3.73,9.25-7.98,19.93-19.03,21.6-9.87,1.49-20.03.13-29.98,1.77-6.76,1.12-13.07,3.53-19.29,6.24Z"/>
  <path class="cls-5" d="M88.16,73.68c-1.73,0-3.47.5-4.96,1.51-16.18,10.91-7.31,42.46,4.74,55.71,13.08,14.39,46.26,12.95,46.26,12.95v-73.39s-42.64-38.02-46.05-41.06c-3.41,3.04-46.05,41.06-46.05,41.06v73.39s33.18,1.44,46.26-12.95c12.05-13.25,20.93-44.8,4.75-55.71-1.49-1.01-3.23-1.51-4.96-1.51Z"/>
  <polygon class="cls-2" points="47.21 142.97 37 142.97 37 77.75 76.84 40.46 83.82 47.92 47.21 82.17 47.21 142.97"/>
  <path class="cls-4" d="M80.33,127.44s-25.73-48.61,0-48.11c22.68.44,0,48.11,0,48.11Z"/>
  <path d="M120.25,148.61c-7.27,0-27.7-.87-39.93-10.14-14.72,11.16-41.33,10.15-42.55,10.1l-4.51-.19v-74.12l47.06-41.97,47.06,41.97v74.12l-4.51.19c-.21,0-1.14.05-2.62.05ZM42.69,78.47v60.69c8.6-.22,22.77-1.84,31.1-7.59-6.66-9.27-12.14-24.12-10.56-37.2.94-7.76,4.36-13.84,9.91-17.57,4.26-2.87,10.14-2.87,14.4,0,5.54,3.74,8.97,9.81,9.9,17.58,1.57,13.07-3.9,27.92-10.57,37.19,8.33,5.75,22.49,7.37,31.1,7.59v-60.69l-37.63-33.56-37.63,33.56ZM80.33,84.04c-.69,0-1.36.2-1.93.58-3.25,2.19-5.21,5.85-5.81,10.88-1.15,9.51,2.76,21.18,7.74,28.93,4.98-7.74,8.89-19.42,7.74-28.92-.61-5.03-2.56-8.69-5.81-10.88-.57-.38-1.23-.58-1.93-.58Z"/>
  <g>
    <line class="cls-1" x1="147.08" y1="60.07" x2="139.25" y2="65.74"/>
    <line class="cls-1" x1="124.82" y1="55.5" x2="130.21" y2="63.64"/>
    <line class="cls-1" x1="143.35" y1="83.32" x2="137.58" y2="75.4"/>
  </g>
</svg>