<?xml version="1.0" encoding="utf-8"?>
<!-- Generator: Adobe Illustrator 27.1.1, SVG Export Plug-In . SVG Version: 6.00 Build 0)  -->
<svg version="1.1" id="Layer_1" xmlns="http://www.w3.org/2000/svg" xmlns:xlink="http://www.w3.org/1999/xlink" x="0px" y="0px"
	 viewBox="0 0 120 120" style="enable-background:new 0 0 120 120;" xml:space="preserve">
<g id="XMLID_2040_">
	<g id="XMLID_2041_">
		<g id="XMLID_2042_">
			<path id="XMLID_2043_" d="M98.02,105.29h-4.19c-14.84,0-25.95-2.66-33.8-8.12c-7.85,5.46-18.98,8.12-33.87,8.12h-4.19V44.17
				l38.05-31.58l38,31.59V105.29z M30.35,48.11v48.73c9.92-0.4,17.75-2.26,23.34-5.55c-6.03-7.54-6.83-16.38-7.33-22
				c-0.04-0.51-0.09-0.99-0.13-1.45c-0.8-8.12,0.51-14.12,3.89-17.85c1.69-1.86,4.78-4.08,9.91-4.08c5.09,0,8.15,2.19,9.83,4.02
				c3.4,3.73,4.69,9.58,3.92,17.88c-0.04,0.45-0.09,0.92-0.13,1.41c-0.48,5.63-1.23,14.51-7.27,22.06
				c5.59,3.29,13.39,5.15,23.27,5.55V48.1L60.02,23.47L30.35,48.11z M60.02,54.28c-2.24,0-3.19,0.76-3.7,1.33
				c-1.67,1.85-2.31,5.9-1.76,11.41c0.05,0.49,0.09,0.99,0.14,1.52c0.45,5.08,1.06,11.74,5.34,17.26c4.28-5.53,4.84-12.2,5.26-17.29
				c0.04-0.51,0.09-1,0.13-1.47c0.7-7.53-0.81-10.42-1.77-11.47C63.16,55.02,62.23,54.28,60.02,54.28z"/>
		</g>
	</g>
</g>
</svg>
