<svg width="40" height="40" viewBox="0 0 40 40" fill="none" xmlns="http://www.w3.org/2000/svg">
<circle cx="20" cy="20" r="20" fill="#285260" fill-opacity="0.1"/>
<path d="M22 10.25H18C15.381 10.25 13.25 12.381 13.25 15V25C13.25 27.619 15.381 29.75 18 29.75H22C24.619 29.75 26.75 27.619 26.75 25V15C26.75 12.381 24.619 10.25 22 10.25ZM25.25 25C25.25 26.792 23.792 28.25 22 28.25H18C16.208 28.25 14.75 26.792 14.75 25V15C14.75 13.208 16.208 11.75 18 11.75H22C23.792 11.75 25.25 13.208 25.25 15V25ZM21.75 26C21.75 26.414 21.414 26.75 21 26.75H19C18.586 26.75 18.25 26.414 18.25 26C18.25 25.586 18.586 25.25 19 25.25H21C21.414 25.25 21.75 25.586 21.75 26Z" fill="#285260"/>
</svg>
