<svg width="56" height="56" viewBox="0 0 56 56" fill="none" xmlns="http://www.w3.org/2000/svg">
<path d="M42.9691 6.482C32.2093 6.482 24.8204 0.908447 19.6358 0.908447C14.4511 0.908447 3.56223 3.88889 3.56223 27.7402C3.56223 51.5916 18.2109 55.0916 23.9136 55.0916C50.6178 55.0931 62.0247 6.482 42.9691 6.482Z" fill="white"/>
<path d="M35 0.906982H36.5556V4.01809H35V0.906982Z" fill="#A4AFC1"/>
<path d="M38.5 5.57349H41.6111V7.12904H38.5V5.57349Z" fill="#A4AFC1"/>
<path d="M10.5 29.1667V42.389H14.7778L17.8889 30.8996C17.8889 30.8996 15.6209 29.1667 10.5 29.1667Z" fill="#F3F3F1"/>
<path d="M41.6111 37.3332C39.592 37.3332 37.2478 38.3101 35 38.9992V38.3288C35 36.851 33.9578 35.5754 32.5111 35.2799L17.9044 32.2932L15.5867 40.8177C18.7756 42.311 25.9778 45.4999 29.5556 45.4999C34.2222 45.4999 45.5 39.2777 45.5 39.2777C45.5 39.2777 44.7222 37.3332 41.6111 37.3332Z" fill="#F3F3F1"/>
<path d="M26.2609 20.8631C26.1333 21.0016 26.0555 21.1867 26.0555 21.3889C26.0555 21.8182 26.404 22.1667 26.8333 22.1667H29.1667V28.3889C29.1667 29.2476 29.8635 29.9444 30.7222 29.9444H40.8333C41.692 29.9444 42.3889 29.2476 42.3889 28.3889V22.1667H44.7222C45.1515 22.1667 45.5 21.8182 45.5 21.3889C45.5 21.1867 45.4222 21.0016 45.2947 20.8631L35.7778 10.5L26.2609 20.8631Z" fill="#B4D7D8"/>
<path d="M10.5 29.1667V42.389H14V29.4779C13.0262 29.2959 11.8736 29.1667 10.5 29.1667Z" fill="#D5DBE1"/>
<path d="M19.0867 40.8179L21.2193 32.9717L17.9044 32.2935L15.5867 40.8179C18.7756 42.3112 25.9778 45.5001 29.5556 45.5001C30.044 45.5001 30.618 45.4192 31.2309 45.2963C27.412 44.5792 21.7996 42.0888 19.0867 40.8179Z" fill="#D5DBE1"/>
<path d="M38.5 38.3291V38.9995C40.0836 38.5142 41.7122 37.8919 43.2429 37.5637C42.784 37.4299 42.2582 37.3335 41.6111 37.3335C40.6233 37.3335 39.5562 37.5684 38.4611 37.8888C38.4829 38.0335 38.5 38.1797 38.5 38.3291Z" fill="#D5DBE1"/>
<path d="M32.6667 28.3889V22.1667H30.3333C29.904 22.1667 29.5555 21.8182 29.5555 21.3889C29.5555 21.1867 29.6333 21.0016 29.7609 20.8631L37.5278 12.4056L35.7778 10.5L26.2609 20.8631C26.1333 21.0016 26.0555 21.1867 26.0555 21.3889C26.0555 21.8182 26.404 22.1667 26.8333 22.1667H29.1667V28.3889C29.1667 29.2476 29.8635 29.9444 30.7222 29.9444H34.2222C33.3635 29.9444 32.6667 29.2476 32.6667 28.3889Z" fill="#285260"/>
<path d="M14.7778 43.5556H10.5C9.85601 43.5556 9.33334 43.0329 9.33334 42.3889V29.1667C9.33334 28.5227 9.85601 28 10.5 28C15.9538 28 18.4925 29.8931 18.5967 29.974C18.9731 30.2618 19.1396 30.7487 19.0151 31.206L15.904 42.6953C15.7671 43.2024 15.3051 43.5556 14.7778 43.5556ZM11.6667 41.2222H13.8849L16.5262 31.4673C15.7127 31.0831 14.1229 30.5107 11.6667 30.3676V41.2222Z" fill="black"/>
<path d="M29.5556 46.6667C25.8782 46.6667 18.914 43.6645 15.0905 41.8741L16.0813 39.7616C22.288 42.6674 27.1989 44.3334 29.5556 44.3334C32.7102 44.3334 39.872 40.9252 43.6256 38.959C43.1931 38.7116 42.5491 38.5001 41.6111 38.5001C40.2453 38.5001 38.556 39.0632 36.9242 39.6061C35.1151 40.2096 33.2453 40.8334 31.5 40.8334C28.2225 40.8334 23.8949 39.2747 23.7129 39.2079L24.5093 37.0145C24.5498 37.0301 28.6347 38.5001 31.5 38.5001C32.8658 38.5001 34.5551 37.937 36.1869 37.3941C37.996 36.7905 39.8658 36.1667 41.6111 36.1667C45.4673 36.1667 46.5391 38.735 46.5827 38.8454C46.802 39.3914 46.578 40.0152 46.0631 40.2999C45.5933 40.5596 34.4665 46.6667 29.5556 46.6667Z" fill="black"/>
<path d="M36.1667 39.0288H33.8333V38.3288C33.8333 37.4095 33.1784 36.6068 32.2778 36.4232L17.6696 33.4366L18.1378 31.1499L32.746 34.1366C34.7278 34.541 36.1667 36.305 36.1667 38.3288V39.0288Z" fill="black"/>
<path d="M40.8333 31.1111H30.7222C29.2211 31.1111 28 29.8899 28 28.3888V23.3333H26.8333C25.7616 23.3333 24.8889 22.4606 24.8889 21.3888C24.8889 20.9004 25.0709 20.4337 25.4007 20.0744L34.9176 9.71128C35.3609 9.22905 36.1931 9.22905 36.6364 9.71128L46.1533 20.0744C46.4847 20.4306 46.6667 20.8988 46.6667 21.3888C46.6667 22.4606 45.794 23.3333 44.7222 23.3333H43.5556V28.3888C43.5556 29.8899 42.3344 31.1111 40.8333 31.1111ZM27.7184 20.9999H29.1667C29.8107 20.9999 30.3333 21.5226 30.3333 22.1666V28.3888C30.3333 28.6035 30.5076 28.7777 30.7222 28.7777H40.8333C41.048 28.7777 41.2222 28.6035 41.2222 28.3888V22.1666C41.2222 21.5226 41.7449 20.9999 42.3889 20.9999H43.8371L35.7778 12.2251L27.7184 20.9999Z" fill="black"/>
<path d="M40.4445 12.4443H42.7778V16.3332H40.4445V12.4443Z" fill="black"/>
</svg>
