<svg width="24" height="24" viewBox="0 0 24 24" fill="none" xmlns="http://www.w3.org/2000/svg">
<path d="M3.35689 6.89357V6.89358H20.6423H20.6425C20.7598 6.89405 20.8722 6.9406 20.955 7.02317C21.0377 7.10575 21.0841 7.21761 21.0836 7.33416M3.35689 6.89357L21.0336 7.33397M3.35689 6.89357L3.35579 6.8936C3.24021 6.89613 3.13012 6.94337 3.04913 7.02534C2.96812 7.10733 2.9227 7.21757 2.9227 7.33246C2.9227 7.44735 2.96812 7.55758 3.04913 7.63957C3.13012 7.72155 3.24021 7.76877 3.35579 7.77131L3.35579 7.77132H3.35689H11.5568V13.9442L3.35689 6.89357ZM21.0836 7.33416L21.0336 7.33397M21.0836 7.33416V7.33397H21.0336M21.0836 7.33416V16.6658M21.0336 7.33397V16.666M21.0836 16.6658L21.0336 16.666M21.0836 16.6658V16.666H21.0336M21.0836 16.6658C21.0841 16.7824 21.0377 16.8943 20.955 16.9768C20.8722 17.0594 20.7598 17.106 20.6425 17.1064L20.6423 17.1064H13.1788H13.1777L13.1777 17.1064C13.0622 17.1039 12.9521 17.0566 12.8711 16.9747C12.7901 16.8927 12.7446 16.7825 12.7446 16.6676C12.7446 16.5527 12.7901 16.4424 12.8711 16.3604C12.9521 16.2785 13.0622 16.2312 13.1777 16.2287L13.1788 16.2287L20.198 16.2287V12.4385H12.4424V13.9442V13.9447H12.3924C12.3936 13.9965 12.3842 14.0479 12.365 14.0961C12.3457 14.1442 12.317 14.1881 12.2804 14.2251C12.2438 14.2621 12.2001 14.2915 12.1519 14.3116C12.1037 14.3316 12.0519 14.342 11.9996 14.342C11.9473 14.342 11.8955 14.3316 11.8473 14.3116C11.7991 14.2915 11.7554 14.2621 11.7188 14.2251C11.6823 14.1881 11.6535 14.1442 11.6342 14.0961C11.615 14.0479 11.6057 13.9965 11.6068 13.9447L21.0336 16.666M3.35152 17.1064H3.35132C3.23405 17.106 3.12165 17.0594 3.0389 16.9768C2.95614 16.8943 2.90981 16.7824 2.91024 16.6659M3.35152 17.1064L2.96024 10.4457M3.35152 17.1064L10.815 17.1064L10.8161 17.1064C10.9317 17.1039 11.0418 17.0566 11.1228 16.9747C11.2038 16.8927 11.2492 16.7824 11.2492 16.6676C11.2492 16.5527 11.2038 16.4424 11.1228 16.3604C11.0418 16.2785 10.9317 16.2312 10.8161 16.2287L10.8161 16.2287H10.815H3.79588M3.35152 17.1064L3.79588 16.2787V16.2287M2.91024 16.6659C2.91024 16.6659 2.91024 16.6659 2.91024 16.6658L2.96024 16.666H2.91024V16.6659ZM2.91024 16.6659V10.4461M2.91024 10.4461C2.91024 10.4463 2.91024 10.4465 2.91025 10.4467L2.96024 10.4457M2.91024 10.4461V10.4457H2.96024M2.91024 10.4461C2.90916 10.3886 2.91952 10.3314 2.9407 10.2779C2.96194 10.2242 2.99366 10.1752 3.034 10.1336C3.07434 10.0921 3.12252 10.0589 3.17578 10.0358C3.22903 10.0128 3.28633 10.0003 3.34441 9.99922C3.40394 9.99806 3.46311 10.0088 3.51838 10.0308C3.57364 10.0529 3.62388 10.0857 3.66607 10.1275C3.70825 10.1693 3.7415 10.2191 3.76381 10.2739C3.78606 10.3286 3.79698 10.3872 3.79588 10.4461M2.96024 10.4457L3.74588 16.2287H3.79588M3.79588 10.4461C3.79588 10.4463 3.79588 10.4465 3.79587 10.4467L3.74588 10.4457H3.79588V10.4461ZM3.79588 10.4461V16.2287M2.57127 4.95C1.68044 4.95 0.95 5.67238 0.95 6.55547V17.4438C0.95 18.3268 1.68041 19.05 2.57127 19.05H21.428C22.3188 19.05 23.05 18.3269 23.05 17.4438V6.55547C23.05 5.67235 22.3188 4.95 21.428 4.95H2.57127ZM2.57127 5.82775H21.428C21.8429 5.82775 22.1644 6.14604 22.1644 6.55547V17.4438C22.1644 17.8532 21.8429 18.1715 21.428 18.1715H2.57127C2.15637 18.1715 1.83562 17.8533 1.83562 17.4438V6.55547C1.83562 6.14598 2.15637 5.82775 2.57127 5.82775ZM12.4424 7.77132H20.198V11.5608H12.4424V7.77132Z" fill="black" stroke="black" stroke-width="0.1"/>
</svg>
