<svg width="56" height="56" viewBox="0 0 56 56" fill="none" xmlns="http://www.w3.org/2000/svg">
<path d="M13.0311 49.5174C23.7909 49.5174 31.1798 55.0909 36.3644 55.0909C41.5491 55.0909 52.438 52.1105 52.438 28.2591C52.438 4.4078 37.7893 0.90625 32.0867 0.90625C5.38244 0.90625 -6.02445 49.5174 13.0311 49.5174Z" fill="white"/>
<path d="M5.05469 22.0371H6.61024V25.1482H5.05469V22.0371Z" fill="#A4AFC1"/>
<path d="M5.05469 30.9824H6.61024V34.0935H5.05469V30.9824Z" fill="#A4AFC1"/>
<path d="M0 27.0918H3.11111V28.6474H0V27.0918Z" fill="#A4AFC1"/>
<path d="M28 10.5L10.7333 27.0511C10.5933 27.1911 10.5 27.3933 10.5 27.6111C10.5 28.0467 10.8422 28.3889 11.2778 28.3889H15.1667V43.1667C15.1667 44.45 16.2167 45.5 17.5 45.5H38.5C39.7833 45.5 40.8333 44.45 40.8333 43.1667V28.3889H44.7222C45.1578 28.3889 45.5 28.0467 45.5 27.6111C45.5 27.3933 45.4067 27.1911 45.2667 27.0511L40.8333 22.6956V12.0556H35.3889V17.3133L28 10.5Z" fill="#F3F3F1"/>
<path d="M34.6128 32.57C34.6128 27.0462 28.0017 21.3887 28.0017 21.3887C28.0017 21.3887 21.3906 27.0447 21.3906 32.57C21.3906 36.2753 24.3508 39.2776 28.0017 39.2776C31.6526 39.2776 34.6128 36.2738 34.6128 32.57Z" fill="#B4D7D8"/>
<path d="M38.8906 17.3125V12.0547H35.3906V14.0847L38.8906 17.3125Z" fill="#D5DBE1"/>
<path d="M18.668 43.1664V28.3887H15.168V43.1664C15.168 44.4498 16.218 45.4998 17.5013 45.4998H21.0013C19.718 45.4998 18.668 44.4498 18.668 43.1664Z" fill="#D5DBE1"/>
<path d="M14 27.6111C14 27.3933 14.0933 27.1911 14.2333 27.0511L29.7842 12.1442L28 10.5L10.7333 27.0511C10.5933 27.1911 10.5 27.3933 10.5 27.6111C10.5 28.0467 10.8422 28.3889 11.2778 28.3889H14.7778C14.3422 28.3889 14 28.0467 14 27.6111Z" fill="#D5DBE1"/>
<path d="M24.8906 32.57C24.8906 28.9051 27.7933 25.1936 29.7517 23.1029C28.7577 22.0404 28.0017 21.3887 28.0017 21.3887C28.0017 21.3887 21.3906 27.0447 21.3906 32.57C21.3906 36.2753 24.3508 39.2776 28.0017 39.2776C28.6115 39.2776 29.1902 39.1671 29.7517 39.01C26.9564 38.2276 24.8906 35.6547 24.8906 32.57Z" fill="#285260"/>
<path d="M28.0004 40.4453C23.7118 40.4453 20.2227 36.9126 20.2227 32.5711C20.2227 26.5775 26.9551 20.7488 27.2413 20.5046C27.6784 20.1313 28.3209 20.1313 28.7595 20.5046C29.0458 20.7488 35.7782 26.5775 35.7782 32.5711C35.7782 36.9126 32.2891 40.4453 28.0004 40.4453ZM28.0004 22.9826C26.3453 24.5957 22.556 28.7102 22.556 32.5711C22.556 35.6262 24.9982 38.1119 28.0004 38.1119C31.0027 38.1119 33.4449 35.6262 33.4449 32.5711C33.4449 28.7102 29.6555 24.5957 28.0004 22.9826Z" fill="black"/>
<path d="M38.4987 46.6664H17.4987C15.5683 46.6664 13.9987 45.0968 13.9987 43.1664V29.5553H11.2765C10.2047 29.5553 9.33203 28.6826 9.33203 27.6108C9.33203 27.096 9.54203 26.592 9.90759 26.2264L27.1914 9.65662C27.6363 9.2304 28.3363 9.22262 28.7889 9.64106L34.2209 14.65V12.0553C34.2209 11.4113 34.7436 10.8886 35.3876 10.8886H40.832C41.476 10.8886 41.9987 11.4113 41.9987 12.0553V22.2053L46.082 26.2186C46.4554 26.592 46.6654 27.096 46.6654 27.6108C46.6654 28.6826 45.7927 29.5553 44.7209 29.5553H41.9987V43.1664C41.9987 45.0968 40.4291 46.6664 38.4987 46.6664ZM12.2394 27.222H15.1654C15.8094 27.222 16.332 27.7446 16.332 28.3886V43.1664C16.332 43.8104 16.8547 44.3331 17.4987 44.3331H38.4987C39.1427 44.3331 39.6654 43.8104 39.6654 43.1664V28.3886C39.6654 27.7446 40.188 27.222 40.832 27.222H43.7751L40.0154 23.5275C39.7929 23.3082 39.6669 23.008 39.6669 22.6953V13.222H36.5558V17.3131C36.5558 17.7766 36.282 18.1951 35.8574 18.3817C35.4358 18.5684 34.9396 18.4844 34.5989 18.1702L28.0143 12.1004L12.2394 27.222Z" fill="black"/>
</svg>
